<svg width="72" height="72" viewBox="0 0 72 72" fill="none" xmlns="http://www.w3.org/2000/svg">
<circle cx="35.8344" cy="36.1266" r="35.8344" fill="#23ACAD"/>
<path d="M14.9478 57.0851C14.9945 53.5489 16.4315 50.1733 18.948 47.6886C21.4645 45.2039 24.8581 43.8098 28.3945 43.808H44.5533C48.0897 43.8098 51.4833 45.2039 53.9998 47.6886C56.5163 50.1733 57.9533 53.5489 58.0001 57.0851C52.0936 62.4076 44.4247 65.3532 36.4739 65.3532C28.5231 65.3532 20.8542 62.4076 14.9478 57.0851ZM48.593 23.6095C48.593 26.0065 47.8822 28.3496 46.5505 30.3425C45.2189 32.3355 43.3261 33.8888 41.1117 34.8061C38.8972 35.7234 36.4605 35.9634 34.1096 35.4957C31.7587 35.0281 29.5993 33.8739 27.9044 32.179C26.2096 30.4841 25.0553 28.3247 24.5877 25.9739C24.1201 23.623 24.3601 21.1862 25.2773 18.9718C26.1946 16.7573 27.7479 14.8646 29.7409 13.5329C31.7339 12.2012 34.077 11.4905 36.4739 11.4905C39.6881 11.4905 42.7706 12.7673 45.0434 15.0401C47.3161 17.3128 48.593 20.3954 48.593 23.6095Z" fill="#F2FFFF"/>
</svg>
