<svg width="557" height="557" viewBox="0 0 557 557" fill="none" xmlns="http://www.w3.org/2000/svg">
<circle opacity="0.4" cx="278.5" cy="278.5" r="139" stroke="#D1603D"/>
<circle opacity="0.4" cx="278.5" cy="278.5" r="208" stroke="#ECBA41"/>
<path d="M287.189 90.9961C289.332 90.9961 291.069 90.2113 291.069 89.2431C291.069 88.275 289.332 87.4901 287.189 87.4901C285.046 87.4901 283.309 88.275 283.309 89.2431C283.309 90.2113 285.046 90.9961 287.189 90.9961Z" fill="#5F1A37"/>
<path d="M296.606 99.8013C296.416 107.827 295.376 111.803 288.22 112.303C283.04 112.666 278.819 107.042 278.819 100.55C278.819 94.0581 283.876 88.232 288.913 89.4896C293.611 90.6642 296.788 92.0989 296.606 99.8013Z" fill="#FFEBF3"/>
<path d="M288.054 112.534V112.554C288.054 112.554 287.684 112.579 287.111 112.572C286.534 112.579 286.167 112.554 286.167 112.554V112.534C284.849 112.447 283.096 112.176 281.78 111.407V112.424H281.791C281.789 112.462 281.78 112.498 281.78 112.534C281.78 114.02 284.167 115.226 287.111 115.226C289.982 115.226 292.316 114.079 292.43 112.644H292.441V111.407C291.123 112.176 289.372 112.447 288.054 112.534Z" fill="#D89CB5"/>
<path d="M293.856 109.649C292.755 110.095 291.3 110.25 290.563 109.976C290.361 109.902 290.206 109.788 290.126 109.631C289.978 109.342 290.13 109.003 290.435 108.815C290.919 108.519 293.65 108.58 295.432 106.753C295.884 106.289 296.225 105.742 295.878 105.13C295.826 105.038 295.743 104.995 295.651 104.98C295.196 105.202 294.318 105.695 293.625 105.941C292.504 106.338 291.3 106.32 290.563 106.049C290.361 105.975 290.206 105.861 290.126 105.704C289.978 105.415 290.13 105.076 290.435 104.888C290.919 104.592 294.078 104.41 295.86 102.583C296.313 102.119 296.653 101.572 296.306 100.96C296.254 100.868 296.174 100.826 296.079 100.81C295.624 101.034 294.746 101.525 294.053 101.772C292.932 102.169 291.3 102.393 290.563 102.121C290.361 102.048 290.206 101.933 290.126 101.776C289.978 101.487 290.13 101.149 290.435 100.96C290.919 100.664 294.078 100.483 295.86 98.6559C296.313 98.1918 296.653 97.6449 296.306 97.0329C296.093 96.6563 295.414 97.0867 295.414 97.0867C295.021 97.3579 294.526 97.6762 294.053 97.8444C292.932 98.2411 291.3 98.4653 290.563 98.1941C290.361 98.1201 290.206 98.0058 290.126 97.8488C289.978 97.5597 290.13 97.2212 290.435 97.0329C290.919 96.737 292.136 96.8737 293.905 95.921C294.934 95.3673 295.479 94.5984 295.66 93.8071C295.38 93.2444 295.06 92.7468 294.694 92.3209C294.14 91.6775 293.385 91.0543 292.441 90.5387V91.4646H292.43C292.316 92.9015 289.982 94.047 287.111 94.047C284.167 94.047 281.78 92.8409 281.78 91.3547C281.78 91.3188 281.789 91.283 281.791 91.2449H281.78V90.5365C280.836 91.0498 280.081 91.673 279.529 92.3186C277.875 94.2442 277.066 97.5955 277.29 102.433C277.494 106.878 279.206 109.878 281.746 111.386C283.067 112.171 284.837 112.444 286.169 112.532V112.552C286.169 112.552 286.537 112.577 287.113 112.57C287.689 112.577 288.057 112.552 288.057 112.552V112.532C289.388 112.444 291.159 112.173 292.479 111.386C293.338 110.875 294.32 110.066 294.925 109.071C294.721 109.246 294.389 109.434 293.856 109.649Z" fill="#B05D80"/>
<ellipse cx="286.933" cy="89.456" rx="3.82579" ry="1.9129" fill="#5F1A37"/>
<path d="M287.111 86.6405C284.167 86.6405 281.78 87.8465 281.78 89.3328V91.2449H281.791C281.789 91.283 281.78 91.3166 281.78 91.3547C281.78 92.841 284.167 94.047 287.111 94.047C289.98 94.047 292.316 92.8993 292.43 91.4646H292.441V89.335C292.441 87.8465 290.054 86.6405 287.111 86.6405ZM287.111 90.7898C285.198 90.7898 283.649 90.0815 283.649 89.205C283.649 88.3307 285.201 87.6201 287.111 87.6201C289.02 87.6201 290.572 88.3307 290.572 89.205C290.572 90.0815 289.023 90.7898 287.111 90.7898Z" fill="#D89CB5"/>
<path fill-rule="evenodd" clip-rule="evenodd" d="M160.37 137.999C160.115 138.227 159.928 138.523 159.832 138.852C159.764 139.082 159.743 139.324 159.769 139.563C159.796 139.803 159.87 140.034 159.986 140.244C160.13 140.474 160.3 140.686 160.493 140.876C161.075 141.514 161.657 142.153 162.24 142.791C163.405 144.069 164.571 145.346 165.734 146.627L165.733 146.627C165.811 146.718 165.891 146.807 165.972 146.895C166.036 146.966 166.101 147.036 166.163 147.108L171.197 152.633C171.317 152.768 171.453 152.885 171.604 152.984C171.894 153.168 172.23 153.268 172.574 153.27C172.918 153.272 173.255 153.177 173.548 152.996C173.811 152.804 174.06 152.592 174.293 152.363L184.239 143.3C184.417 143.148 184.585 142.985 184.741 142.811C185.019 142.47 185.164 142.04 185.149 141.601C185.134 141.169 184.967 140.756 184.678 140.435L181.651 137.113C181.375 136.81 181.099 136.506 180.824 136.202C180.273 135.596 179.723 134.989 179.167 134.387L179.167 134.387L173.792 128.487C173.659 128.328 173.507 128.187 173.339 128.067C173.006 127.841 172.608 127.732 172.207 127.756C171.806 127.781 171.424 127.938 171.121 128.202L160.37 137.999ZM178.234 135.258C178.233 135.259 178.232 135.26 178.232 135.261C178.123 135.346 178.018 135.438 177.92 135.535C177.863 135.588 177.804 135.641 177.745 135.694C177.642 135.786 177.537 135.879 177.444 135.982C177.439 135.985 177.435 135.988 177.431 135.991C177.389 136.049 177.362 136.116 177.351 136.187C177.34 136.262 177.347 136.339 177.374 136.411C177.414 136.501 177.472 136.582 177.546 136.647L178.033 137.183C178.075 137.235 178.128 137.278 178.187 137.309C178.246 137.34 178.312 137.358 178.378 137.362C178.445 137.367 178.512 137.357 178.575 137.335C178.638 137.312 178.696 137.276 178.744 137.23L179.356 136.672C179.45 136.587 179.508 136.469 179.516 136.342C179.525 136.216 179.484 136.091 179.402 135.995L178.929 135.475C178.844 135.357 178.727 135.266 178.593 135.212C178.532 135.195 178.469 135.19 178.407 135.199C178.346 135.207 178.287 135.227 178.234 135.258ZM174.409 138.713L174.428 138.638L169.24 139.681L171.111 141.734C171.111 141.734 171.11 141.735 171.11 141.735L172.904 143.704C173.404 142.043 173.903 140.381 174.401 138.719C174.404 138.717 174.406 138.715 174.409 138.713ZM167.491 145.05C167.488 145.054 167.486 145.057 167.483 145.06C167.388 145.123 167.305 145.202 167.221 145.281C167.193 145.308 167.165 145.334 167.137 145.36C167.086 145.408 167.033 145.455 166.981 145.502C166.881 145.59 166.782 145.679 166.694 145.778C166.691 145.78 166.688 145.782 166.685 145.784C166.617 145.881 166.589 146 166.607 146.117C166.635 146.243 166.702 146.357 166.797 146.443L167.3 146.995C167.343 147.043 167.395 147.082 167.453 147.109C167.512 147.137 167.575 147.153 167.639 147.156C167.704 147.159 167.768 147.15 167.829 147.128C167.889 147.106 167.945 147.073 167.993 147.029L168.622 146.456C168.704 146.378 168.757 146.274 168.77 146.161C168.783 146.048 168.757 145.935 168.695 145.84C168.554 145.679 168.409 145.521 168.264 145.364C168.192 145.286 168.12 145.208 168.049 145.131C167.977 145.054 167.881 145.005 167.777 144.992C167.678 144.979 167.577 145 167.491 145.05ZM161.092 140.03C161.086 139.93 161.113 139.83 161.17 139.747C161.202 139.704 161.239 139.665 161.279 139.63L161.879 139.083C161.942 139.02 162.02 138.975 162.105 138.952C162.187 138.933 162.271 138.937 162.351 138.962C162.43 138.988 162.501 139.035 162.556 139.097C162.624 139.172 162.693 139.247 162.761 139.322C162.899 139.471 163.036 139.621 163.171 139.773C163.243 139.859 163.28 139.969 163.276 140.082C163.271 140.195 163.225 140.301 163.147 140.382L162.456 141.012C162.369 141.088 162.258 141.128 162.143 141.126C162.028 141.123 161.918 141.077 161.836 140.997L161.203 140.302C161.137 140.226 161.098 140.13 161.092 140.03ZM171.837 130.244C171.829 130.145 171.854 130.046 171.908 129.962L171.91 129.964C171.972 129.885 172.043 129.813 172.121 129.749C172.181 129.694 172.242 129.638 172.302 129.581C172.424 129.468 172.547 129.355 172.672 129.246C172.761 129.176 172.873 129.141 172.987 129.149C173.1 129.156 173.206 129.206 173.285 129.288C173.355 129.365 173.425 129.442 173.496 129.519C173.637 129.672 173.778 129.826 173.917 129.982C173.99 130.071 174.027 130.185 174.019 130.3C174.012 130.416 173.961 130.524 173.877 130.603C173.801 130.673 173.724 130.743 173.648 130.814C173.495 130.954 173.342 131.094 173.187 131.233C173.099 131.303 172.988 131.339 172.876 131.333C172.763 131.327 172.657 131.28 172.578 131.2L171.949 130.511C171.884 130.436 171.844 130.343 171.837 130.244ZM162.93 141.969C162.938 141.894 162.964 141.823 163.007 141.761C163.074 141.68 163.148 141.606 163.228 141.539C163.288 141.485 163.347 141.43 163.406 141.375C163.524 141.265 163.643 141.156 163.764 141.05C163.853 140.978 163.966 140.943 164.081 140.95C164.195 140.958 164.302 141.008 164.381 141.091L164.996 141.766C165.054 141.83 165.092 141.908 165.107 141.992C165.123 142.076 165.114 142.163 165.082 142.242C165.043 142.331 164.982 142.408 164.905 142.467C164.835 142.53 164.766 142.594 164.697 142.658C164.558 142.787 164.419 142.915 164.276 143.04C164.189 143.111 164.08 143.147 163.968 143.142C163.856 143.136 163.75 143.09 163.671 143.012L163.125 142.413C163.057 142.349 163.001 142.273 162.961 142.189C162.932 142.12 162.922 142.044 162.93 141.969ZM173.674 132.183C173.68 132.11 173.704 132.04 173.743 131.978L173.745 131.981C173.808 131.901 173.881 131.828 173.96 131.763C174.021 131.708 174.082 131.652 174.143 131.595C174.265 131.482 174.387 131.369 174.513 131.26C174.602 131.189 174.714 131.155 174.828 131.163C174.941 131.171 175.047 131.221 175.125 131.303L175.743 131.981C175.798 132.042 175.835 132.116 175.851 132.196C175.867 132.276 175.861 132.359 175.835 132.436C175.801 132.524 175.745 132.602 175.671 132.66C175.6 132.725 175.529 132.791 175.458 132.856C175.315 132.987 175.173 133.118 175.028 133.246C174.941 133.319 174.83 133.356 174.717 133.351C174.603 133.346 174.496 133.298 174.416 133.218L173.871 132.621C173.803 132.557 173.748 132.481 173.707 132.397C173.679 132.33 173.667 132.256 173.674 132.183ZM164.765 144.062C164.759 143.961 164.787 143.861 164.844 143.778C164.904 143.706 164.971 143.639 165.044 143.579C165.104 143.524 165.165 143.468 165.225 143.412C165.347 143.299 165.47 143.186 165.595 143.077C165.684 143.003 165.798 142.967 165.913 142.974C166.028 142.981 166.137 143.032 166.216 143.116L166.844 143.806C166.917 143.893 166.954 144.005 166.949 144.118C166.943 144.231 166.896 144.339 166.815 144.419L166.129 145.044C166.043 145.12 165.931 145.161 165.816 145.158C165.702 145.155 165.592 145.109 165.51 145.029C165.367 144.877 165.227 144.722 165.087 144.567C165.017 144.489 164.947 144.412 164.877 144.335C164.811 144.259 164.771 144.163 164.765 144.062ZM175.512 134.202C175.519 134.13 175.542 134.061 175.581 133.999L175.579 133.996C175.644 133.916 175.718 133.844 175.799 133.781C175.86 133.725 175.921 133.669 175.981 133.613C176.103 133.5 176.225 133.386 176.352 133.277C176.441 133.207 176.553 133.173 176.666 133.181C176.779 133.189 176.885 133.239 176.963 133.321C177.033 133.398 177.104 133.474 177.174 133.551C177.315 133.704 177.456 133.858 177.595 134.014C177.668 134.104 177.705 134.217 177.697 134.333C177.69 134.448 177.639 134.556 177.554 134.636C177.478 134.706 177.401 134.776 177.325 134.846C177.172 134.986 177.02 135.126 176.865 135.264C176.777 135.336 176.666 135.373 176.553 135.368C176.439 135.363 176.332 135.315 176.252 135.235L175.708 134.638C175.64 134.574 175.584 134.498 175.544 134.414C175.517 134.347 175.506 134.274 175.512 134.202ZM168.438 148.102C168.428 147.991 168.461 147.88 168.53 147.792C168.558 147.755 168.589 147.721 168.624 147.69L169.224 147.144C169.314 147.055 169.435 147.003 169.562 146.999C169.624 146.999 169.685 147.012 169.741 147.037C169.797 147.063 169.847 147.099 169.888 147.145L170.461 147.773C170.547 147.858 170.599 147.97 170.607 148.091C170.616 148.211 170.579 148.33 170.506 148.425L169.828 149.042C169.735 149.127 169.612 149.173 169.486 149.17C169.359 149.167 169.239 149.115 169.15 149.024L168.591 148.411C168.508 148.327 168.454 148.219 168.438 148.102ZM179.184 138.275C179.183 138.174 179.217 138.075 179.281 137.996L179.28 137.995C179.344 137.922 179.414 137.855 179.489 137.794L179.993 137.335C180.047 137.286 180.113 137.249 180.184 137.229C180.255 137.209 180.33 137.206 180.402 137.22C180.538 137.261 180.657 137.346 180.74 137.461L181.228 137.996C181.305 138.081 181.35 138.191 181.356 138.306C181.362 138.421 181.328 138.534 181.26 138.627C181.111 138.766 180.959 138.903 180.808 139.04C180.732 139.108 180.657 139.177 180.582 139.245C180.533 139.292 180.476 139.327 180.413 139.35C180.35 139.373 180.283 139.382 180.216 139.378C180.15 139.373 180.085 139.355 180.025 139.324C179.966 139.293 179.914 139.25 179.872 139.198L179.284 138.553C179.22 138.475 179.184 138.377 179.184 138.275ZM170.288 149.96C170.304 149.904 170.33 149.852 170.366 149.807C170.394 149.77 170.426 149.735 170.46 149.704L171.062 149.155C171.153 149.067 171.273 149.016 171.4 149.012C171.461 149.012 171.522 149.025 171.578 149.051C171.634 149.076 171.685 149.112 171.726 149.158L172.298 149.786C172.384 149.87 172.436 149.983 172.445 150.103C172.453 150.223 172.417 150.342 172.343 150.437L171.617 151.099C171.518 151.166 171.398 151.196 171.279 151.182C171.161 151.168 171.051 151.112 170.969 151.024L170.425 150.427C170.345 150.346 170.293 150.243 170.275 150.131C170.268 150.073 170.272 150.015 170.288 149.96ZM181.022 140.236C181.032 140.154 181.064 140.077 181.115 140.012L181.115 140.011C181.207 139.904 181.313 139.811 181.419 139.717C181.481 139.662 181.544 139.607 181.603 139.55C181.726 139.402 181.888 139.291 182.071 139.229C182.147 139.219 182.224 139.227 182.296 139.253C182.368 139.279 182.433 139.322 182.484 139.379L183.044 139.994C183.091 140.041 183.128 140.097 183.152 140.158C183.177 140.22 183.189 140.286 183.187 140.352C183.186 140.418 183.171 140.484 183.143 140.544C183.116 140.604 183.077 140.659 183.028 140.703L182.398 141.277C182.313 141.351 182.205 141.394 182.092 141.397C181.979 141.4 181.868 141.363 181.779 141.293L181.204 140.663C181.146 140.608 181.098 140.545 181.061 140.474C181.026 140.4 181.012 140.317 181.022 140.236Z" fill="white"/>
<path d="M169.239 139.677C170.968 139.33 172.698 138.982 174.427 138.633L174.405 138.716C173.905 140.377 173.406 142.039 172.908 143.701L171.111 141.729C170.488 141.046 169.863 140.364 169.239 139.677Z" fill="#ECBA41"/>
<path d="M122.814 220.716C122.971 220.411 122.925 220.002 122.98 219.646C122.937 218.981 123.251 218.372 123.869 217.92C124.229 217.72 124.487 217.467 124.644 217.163C126.305 214.935 124.668 210.881 120.972 208.078C117.277 205.276 112.89 204.815 111.229 207.043C110.761 207.701 110.549 208.363 110.54 209.129C110.583 209.793 110.473 210.507 110.159 211.116C109.497 210.904 107.67 209.963 108.1 208.129C108.156 207.772 107.956 207.412 107.599 207.357C107.242 207.302 106.882 207.502 106.827 207.859C106.236 210.252 108.261 211.809 109.633 212.387C109.218 212.944 108.754 213.347 108.289 213.75C107.671 214.202 107.203 214.861 106.991 215.522C106.142 218.168 109.065 221.472 113.493 222.853C117.714 224.384 122.067 223.415 122.814 220.716L122.814 220.716Z" fill="#E4582D"/>
<path d="M392.71 153.296L395.43 150.401C395.636 150.181 395.746 149.889 395.737 149.588C395.727 149.286 395.598 149.001 395.378 148.795L394.549 148.016C397.657 148.428 400.513 146.252 400.942 143.121C401.128 141.628 400.717 140.121 399.798 138.927C398.878 137.734 397.525 136.951 396.033 136.75C395.105 136.625 394.152 136.742 393.286 137.066C393.092 136.344 392.757 135.668 392.301 135.076C391.844 134.483 391.275 133.987 390.627 133.615C389.978 133.243 389.262 133.003 388.521 132.908C387.78 132.814 387.028 132.867 386.308 133.064C384.854 133.458 383.617 134.413 382.869 135.72C382.122 137.027 381.925 138.578 382.321 140.033C382.402 140.296 382.475 140.567 382.595 140.804L376.052 147.77C375.846 147.989 375.735 148.282 375.745 148.583C375.755 148.884 375.884 149.169 376.104 149.376L386.053 158.722C386.272 158.928 386.565 159.039 386.866 159.03C387.168 159.021 387.453 158.893 387.659 158.673L390.379 155.778L390.586 162.202L399.135 153.102L392.71 153.296ZM396.724 140.716C397.164 141.129 397.422 141.699 397.442 142.302C397.461 142.904 397.24 143.489 396.828 143.928C396.416 144.367 395.846 144.624 395.244 144.642C394.641 144.66 394.056 144.438 393.616 144.025C393.176 143.612 392.918 143.041 392.899 142.439C392.879 141.836 393.1 141.252 393.512 140.813C393.924 140.374 394.494 140.117 395.097 140.099C395.699 140.081 396.285 140.303 396.724 140.716ZM389.367 136.919C389.806 137.332 390.064 137.902 390.084 138.505C390.103 139.107 389.883 139.692 389.471 140.131C389.058 140.57 388.488 140.826 387.886 140.844C387.283 140.863 386.698 140.641 386.258 140.228C385.818 139.815 385.56 139.244 385.541 138.642C385.521 138.039 385.742 137.454 386.154 137.016C386.567 136.577 387.137 136.32 387.739 136.302C388.341 136.284 388.927 136.506 389.367 136.919Z" fill="#E4582D"/>
<circle opacity="0.4" cx="278.5" cy="278.5" r="278" stroke="#C4C4C4"/>
<path d="M448.341 118.561L449.116 115.476C449.23 115.021 448.953 114.629 448.472 114.616L443.465 114.647C442.984 114.634 442.516 115 442.402 115.455C442.287 115.91 442.558 116.435 442.956 116.67L447.335 119.034C447.764 119.249 448.214 119.066 448.341 118.561Z" fill="#FCF4E1"/>
<path d="M447.858 120.267C447.251 120.115 446.923 119.495 447.076 118.888L448.143 114.641C448.296 114.034 448.897 113.674 449.485 113.795L469.457 118.816C470.064 118.968 470.392 119.588 470.239 120.195L469.172 124.442C469.019 125.049 468.418 125.409 467.83 125.288L447.858 120.267Z" fill="#FCF4E1"/>
<path d="M451.088 114.203L467.856 118.418L466.229 124.89L449.461 120.675L451.088 114.203Z" fill="#F5C654"/>
<path d="M464.584 117.604L466.229 118.018L464.602 124.489L462.958 124.076L464.584 117.604Z" fill="#FCF4E1"/>
<path d="M452.714 114.604L454.358 115.018L452.732 121.489L451.087 121.076L452.714 114.604Z" fill="#FCF4E1"/>
<path d="M458.683 119.548C456.509 119.001 455.108 117.09 455.552 115.32L463.44 117.303C462.964 119.092 460.857 120.094 458.683 119.548Z" fill="#FCF4E1"/>
<rect x="245.223" y="22.1187" width="13.6172" height="13.6172" rx="2.43165" transform="rotate(-5.9537 245.223 22.1187)" fill="#849324"/>
<path d="M253.847 29.5367L252.249 29.7034L252.088 30.4527L250.51 30.6173L251.764 25.6398L253.497 25.459L255.745 30.0713L254.16 30.2366L253.847 29.5367ZM253.364 28.444L252.791 27.1551L252.497 28.5344L253.364 28.444Z" fill="white"/>
<rect x="238.564" y="37.9711" width="13.6172" height="13.6172" rx="2.43165" transform="rotate(-5.9537 238.564 37.9711)" fill="white"/>
<path d="M247.143 43.6413C247.439 43.6789 247.677 43.7956 247.857 43.9913C248.041 44.182 248.148 44.415 248.176 44.6904C248.22 45.1103 248.114 45.4499 247.858 45.7094C247.606 45.9638 247.221 46.1181 246.702 46.1723L244.189 46.4343L243.689 41.6398L246.134 41.3848C246.622 41.334 247.016 41.4001 247.318 41.583C247.62 41.766 247.793 42.0607 247.835 42.467C247.864 42.7469 247.814 42.9917 247.686 43.2014C247.561 43.406 247.38 43.5527 247.143 43.6413ZM245.388 43.352L245.97 43.2913C246.105 43.2772 246.202 43.2397 246.259 43.179C246.322 43.1177 246.347 43.0307 246.335 42.9178C246.323 42.8004 246.28 42.7182 246.206 42.6711C246.137 42.619 246.035 42.6 245.899 42.6141L245.317 42.6748L245.388 43.352ZM246.251 45.0008C246.386 44.9866 246.483 44.9515 246.541 44.8952C246.603 44.834 246.628 44.7447 246.616 44.6273C246.592 44.397 246.447 44.2958 246.18 44.3236L245.496 44.3949L245.567 45.0721L246.251 45.0008Z" fill="#7D7777"/>
<rect x="253.559" y="36.4073" width="13.6172" height="13.6172" rx="2.43165" transform="rotate(-5.9537 253.559 36.4073)" fill="#FCF4E1"/>
<path d="M258.798 42.4807C258.749 42.0067 258.799 41.5747 258.95 41.1847C259.106 40.7943 259.351 40.4789 259.687 40.2385C260.022 39.9937 260.431 39.846 260.914 39.7957C261.329 39.7524 261.708 39.7928 262.049 39.9169C262.395 40.036 262.684 40.2272 262.917 40.4904C263.154 40.7532 263.326 41.0706 263.434 41.4428L261.849 41.608C261.76 41.4576 261.644 41.3465 261.499 41.2749C261.359 41.1982 261.203 41.1688 261.032 41.1867C260.779 41.2131 260.588 41.3289 260.459 41.534C260.334 41.7387 260.288 42.0013 260.322 42.3218C260.355 42.6424 260.454 42.8899 260.618 43.0645C260.787 43.2385 260.998 43.3124 261.251 43.286C261.422 43.2681 261.569 43.2095 261.691 43.11C261.817 43.0056 261.908 42.8706 261.964 42.7051L263.548 42.5398C263.52 42.9261 263.417 43.2723 263.239 43.5784C263.065 43.884 262.822 44.133 262.509 44.3254C262.2 44.5128 261.838 44.6281 261.422 44.6714C260.939 44.7218 260.509 44.664 260.131 44.4981C259.753 44.3276 259.447 44.0674 259.214 43.7174C258.986 43.367 258.847 42.9548 258.798 42.4807Z" fill="#E4582D"/>
<path d="M516.005 214.733L516.812 214.196C518.438 213.055 518.589 210.638 516.85 209.316C515.799 208.522 514.357 208.609 513.273 209.37L508.124 212.983C507.892 213.146 507.829 213.508 507.992 213.74L511.659 218.996C512.802 220.621 515.221 220.772 516.544 219.035C517.339 217.986 517.251 216.546 516.489 215.462L516.005 214.733Z" fill="#E4582D"/>
<path d="M526.302 209.848C525.759 209.652 525.056 209.393 524.42 209.146L524.397 209.278C524.322 209.706 524.122 210.078 523.822 210.433C523.656 210.607 523.495 210.749 523.301 210.885L522.239 217.35C522.482 217.324 522.718 217.332 522.949 217.372L525.883 217.885C526.278 217.954 526.629 218.083 526.941 218.239L528.582 209.432C527.984 209.939 527.135 210.13 526.302 209.848L526.302 209.848Z" fill="#8F67F3"/>
<path d="M521.061 219.621C519.999 220.453 518.173 222.543 518.173 222.543C517.885 222.832 517.897 223.344 518.22 223.638C518.515 223.893 518.895 223.857 519.282 223.585C519.669 223.314 520.35 222.72 520.35 222.72C520.698 222.476 520.928 222.72 520.876 223.016C520.745 223.57 520.654 223.893 520.479 224.507C520.304 225.122 519.276 227.894 519.276 227.894C519.147 228.245 519.32 228.614 519.671 228.743C520.023 228.873 520.393 228.7 520.522 228.349L521.736 224.897C521.786 224.804 521.863 224.749 521.962 224.767L522.028 224.778C522.16 224.801 522.242 224.917 522.219 225.049L521.207 229.283C521.111 229.64 521.35 230.021 521.712 230.084C522.075 230.148 522.451 229.942 522.514 229.58L523.593 225.154C523.61 225.055 523.727 224.973 523.825 224.991C523.924 225.008 524.012 225.091 524.022 225.228L523.513 229.11C523.483 229.478 523.728 229.826 524.096 229.856C524.459 229.92 524.813 229.642 524.844 229.274L525.28 225.414C525.297 225.316 525.413 225.234 525.512 225.251C525.611 225.269 525.698 225.352 525.681 225.451L525.526 228.477C525.495 228.845 525.779 229.166 526.147 229.196C526.516 229.227 526.837 228.944 526.867 228.576C526.867 228.576 527.053 224.401 527.12 222.852C527.181 221.335 527.078 219.79 525.594 219.531L522.661 219.019C522.139 218.894 521.532 219.262 521.061 219.621L521.061 219.621Z" fill="white"/>
<path d="M517.686 227.276C517.882 226.734 518.141 226.032 518.355 225.391C517.855 225.338 517.422 225.093 517.094 224.831C516.919 224.665 516.777 224.505 516.647 224.278L510.175 223.215C510.201 223.457 510.193 223.694 510.153 223.924L509.641 226.855C509.572 227.25 509.443 227.6 509.286 227.912L518.108 229.522C517.689 229.007 517.501 228.33 517.622 227.639C517.607 227.534 517.663 227.408 517.686 227.276L517.686 227.276Z" fill="#8F67F3"/>
<path d="M504.697 228.128C506.215 228.19 507.761 228.087 508.02 226.605L508.532 223.675C508.63 223.115 508.255 222.541 507.895 222.071C507.062 221.009 504.969 219.184 504.969 219.184C504.68 218.896 504.168 218.909 503.874 219.23C503.619 219.525 503.654 219.905 503.926 220.291C504.198 220.678 504.793 221.359 504.793 221.359C505.038 221.707 504.794 221.936 504.497 221.884C503.943 221.753 503.619 221.663 503.004 221.488C502.439 221.219 499.664 220.191 499.664 220.191C499.313 220.062 498.943 220.235 498.814 220.585C498.685 220.936 498.858 221.306 499.209 221.435L502.621 222.71C502.719 222.727 502.768 222.837 502.751 222.936L502.739 223.002C502.716 223.133 502.6 223.215 502.474 223.159L498.235 222.147C497.878 222.051 497.497 222.289 497.434 222.651C497.37 223.014 497.576 223.389 497.939 223.452L502.37 224.532C502.469 224.549 502.55 224.665 502.533 224.764C502.516 224.863 502.4 224.944 502.295 224.96L498.41 224.451C498.047 224.388 497.693 224.665 497.663 225.033C497.632 225.401 497.877 225.749 498.246 225.78L502.131 226.289C502.23 226.306 502.311 226.422 502.294 226.521C502.277 226.62 502.194 226.707 502.095 226.69L499.065 226.534C498.697 226.503 498.375 226.786 498.345 227.154C498.315 227.522 498.599 227.843 498.967 227.874C498.967 227.874 503.146 228.061 504.697 228.128L504.697 228.128Z" fill="white"/>
<path d="M508.853 201.234C508.656 201.777 508.398 202.478 508.151 203.113C508.651 203.167 509.084 203.412 509.445 203.679C509.62 203.845 509.761 204.006 509.892 204.232L516.364 205.295C516.338 205.053 516.345 204.817 516.386 204.586L516.898 201.656C516.967 201.261 517.096 200.91 517.252 200.598L508.436 198.956C508.856 199.47 509.076 200.154 508.955 200.845C508.938 200.944 508.876 201.103 508.853 201.234L508.853 201.234Z" fill="#8F67F3"/>
<path d="M518.001 204.869C517.903 205.428 518.278 206.003 518.637 206.473C519.471 207.535 521.564 209.359 521.564 209.359C521.853 209.648 522.365 209.635 522.659 209.313C522.914 209.018 522.878 208.639 522.606 208.252C522.334 207.865 521.74 207.185 521.74 207.185C521.495 206.836 521.739 206.608 522.035 206.659C522.59 206.79 522.914 206.881 523.529 207.056C524.144 207.231 526.919 208.259 526.919 208.259C527.27 208.388 527.64 208.215 527.769 207.865C527.898 207.514 527.725 207.144 527.374 207.015L523.918 205.801C523.819 205.784 523.77 205.673 523.787 205.575L523.799 205.509C523.822 205.377 523.938 205.295 524.064 205.351L528.303 206.364C528.66 206.46 529.042 206.221 529.105 205.859C529.168 205.497 528.962 205.121 528.599 205.058L524.168 203.978C524.07 203.961 523.988 203.845 524.005 203.746C524.023 203.648 524.106 203.56 524.243 203.55L528.128 204.059C528.491 204.123 528.845 203.845 528.876 203.477C528.939 203.115 528.661 202.761 528.293 202.731L524.407 202.222C524.309 202.204 524.227 202.088 524.244 201.989C524.262 201.891 524.345 201.803 524.477 201.826L527.506 201.983C527.874 202.013 528.196 201.73 528.226 201.362C528.256 200.994 527.973 200.673 527.604 200.643C527.604 200.643 523.425 200.455 521.874 200.388C520.357 200.326 518.81 200.429 518.551 201.911C518.317 203.058 518.202 203.716 518.001 204.869L518.001 204.869Z" fill="white"/>
<path d="M500.237 218.663C500.78 218.859 501.482 219.118 502.118 219.365L502.141 219.233C502.216 218.805 502.417 218.433 502.717 218.078C502.883 217.904 503.044 217.762 503.27 217.632L504.299 211.161C504.057 211.187 503.82 211.179 503.59 211.139L500.656 210.626C500.261 210.557 499.909 210.428 499.597 210.271L497.956 219.078C498.117 218.937 498.272 218.828 498.454 218.758C499.012 218.482 499.628 218.455 500.237 218.663L500.237 218.663Z" fill="#8F67F3"/>
<path d="M505.477 208.89C506.54 208.058 508.366 205.968 508.366 205.968C508.654 205.679 508.641 205.168 508.319 204.874C508.024 204.618 507.644 204.654 507.257 204.926C506.87 205.197 506.188 205.791 506.188 205.791C505.84 206.035 505.611 205.792 505.663 205.495C505.793 204.941 505.884 204.618 506.059 204.004C506.295 203.434 507.323 200.662 507.323 200.662C507.452 200.311 507.279 199.941 506.928 199.812C506.577 199.683 506.207 199.856 506.078 200.207L504.803 203.614C504.753 203.707 504.675 203.762 504.576 203.744L504.51 203.733C504.379 203.71 504.297 203.594 504.353 203.468L505.364 199.233C505.461 198.877 505.222 198.496 504.859 198.432C504.496 198.369 504.121 198.575 504.057 198.937L502.978 203.363C502.961 203.462 502.845 203.543 502.746 203.526C502.647 203.509 502.56 203.426 502.55 203.288L503.058 199.407C503.121 199.045 502.843 198.691 502.475 198.661C502.112 198.597 501.758 198.875 501.728 199.243L501.22 203.124C501.202 203.223 501.086 203.304 500.987 203.287C500.888 203.269 500.801 203.186 500.818 203.088L500.974 200.061C501.004 199.693 500.72 199.372 500.352 199.342C499.984 199.311 499.662 199.594 499.632 199.962C499.632 199.962 499.446 204.137 499.379 205.686C499.318 207.203 499.422 208.748 500.905 209.007L503.838 209.519C504.399 209.617 505.007 209.249 505.477 208.89L505.477 208.89Z" fill="white"/>
<path d="M365.121 44.447L372.769 45.531L377.355 49.5127L377.132 56.6017L371.885 60.8191L361.812 54.168L361.596 47.5467L365.121 44.447Z" fill="#A8CCF9"/>
<path d="M371.19 62.6707C373.073 60.067 377.526 60.1617 378.606 53.7704C379.685 47.3796 372.955 44.0394 368.99 43.5577C364.88 43.0584 360.36 45.8561 360.04 49.5575C360.016 49.8436 359.863 50.1 359.63 50.2672C358.898 50.7918 357.074 51.8462 356.39 52.6168C356.144 52.8946 356.189 53.3244 356.489 53.5446C356.582 53.6136 357.126 54.1205 357.199 54.1798C357.95 54.7905 357.038 56.6246 356.353 58.3667C355.638 60.1873 357.666 60.698 358.355 60.8097C359.043 60.9209 360.528 61.3567 359.849 63.0849C359.758 63.3156 359.692 63.5043 359.644 63.6579C359.532 64.0124 359.639 64.399 359.912 64.6502C360.995 65.6427 364.387 67.8613 369.477 68.02C369.776 68.0292 370.015 67.773 369.988 67.4756C369.896 66.4727 369.789 64.6075 371.19 62.6707L371.19 62.6707ZM370.827 59.3895C369.624 59.5167 369.088 58.6103 368.868 58.0244C368.61 58.0351 368.346 57.9948 368.09 57.8942C367.673 57.7302 367.347 57.435 367.138 57.0751C367.113 57.1075 365.645 56.8878 365.779 55.8577C365.8 55.8667 365.82 55.8771 365.842 55.8857C365.864 55.8945 365.887 55.9034 365.91 55.9115C366.753 56.2154 367.733 56.079 368.822 55.5057C369.005 55.4095 369.075 55.1834 368.979 55.0007C368.883 54.8179 368.656 54.7479 368.474 54.844C367.583 55.313 366.808 55.4365 366.173 55.211C365.984 55.1442 365.822 55.0498 365.684 54.9457C365.646 54.9148 365.609 54.8863 365.57 54.853C365.53 54.8189 365.496 54.7842 365.46 54.7498C365.176 54.4631 365.046 54.1734 365.043 54.1664C365.038 54.154 365.03 54.1435 365.024 54.1319C364.749 53.4648 365.022 52.8073 365.277 52.3972C363.54 51.9277 362.997 51.0059 362.861 50.2633C363.017 50.3029 363.18 50.3288 363.351 50.3298C363.87 50.3316 364.343 50.1231 364.754 49.7101C364.9 49.564 364.899 49.3272 364.753 49.1817C364.607 49.0359 364.37 49.0364 364.225 49.1826C363.957 49.4519 363.673 49.5826 363.357 49.5823C363.073 49.5824 362.804 49.4757 362.589 49.3536C362.158 48.8792 362.004 48.1851 362.255 47.5481C362.588 46.7013 363.51 46.2631 364.366 46.5167C364.338 46.3246 364.372 46.1195 364.484 45.9322C364.678 45.609 365.072 45.4436 365.438 45.5312C365.468 45.5384 365.495 45.5502 365.524 45.56C365.503 45.9311 365.547 46.4688 365.904 46.8157C366.005 46.9141 366.121 46.9886 366.251 47.0396C366.521 47.1461 366.854 47.1504 367.245 47.0514C367.445 47.0007 367.566 46.7975 367.516 46.5976C367.465 46.3971 367.262 46.276 367.062 46.3269C366.849 46.3805 366.566 46.4157 366.425 46.2802C366.267 46.1274 366.253 45.7743 366.277 45.5153C366.687 45.1818 367.259 45.072 367.787 45.2793C368.074 45.3923 368.307 45.5837 368.472 45.819C368.882 45.3579 369.549 45.1758 370.157 45.4146C370.49 45.5456 370.75 45.7818 370.915 46.0697C371.314 45.802 371.833 45.7274 372.314 45.9164C372.787 46.1022 373.112 46.4995 373.228 46.957C373.45 46.9201 373.684 46.9396 373.909 47.028C374.424 47.2306 374.734 47.7285 374.725 48.2516C374.926 48.2126 375.14 48.2274 375.345 48.3079C375.919 48.5336 376.201 49.1819 375.976 49.7563C375.967 49.7784 375.957 49.7991 375.947 49.8203C376.111 49.8124 376.281 49.8536 376.436 49.9588C376.684 50.1272 376.817 50.4327 376.772 50.7287C376.743 50.9135 376.658 51.0662 376.541 51.181C376.556 51.1862 376.571 51.1904 376.587 51.1965C377.095 51.3962 377.345 51.97 377.145 52.478C377.078 52.6496 376.965 52.7887 376.829 52.894C376.28 52.5774 375.502 52.4425 374.622 53.0241C374.449 53.1381 374.402 53.3698 374.516 53.5419C374.56 53.6085 374.622 53.6566 374.69 53.6836C374.8 53.7267 374.928 53.7175 375.034 53.6477C376.111 52.9356 376.819 53.8216 376.897 53.9264C376.902 53.9336 376.909 53.9389 376.914 53.9454C376.998 54.4762 376.947 55.0358 376.737 55.5719C376.39 56.4533 375.686 57.0876 374.856 57.3751C374.834 57.6251 374.748 57.8773 374.576 58.1081C374.267 58.5235 373.745 58.7418 373.231 58.6731C372.931 58.633 372.68 58.5069 372.48 58.3332C372.191 58.8463 371.68 59.2993 370.827 59.3894L370.827 59.3895Z" fill="#206DCD"/>
<path d="M368.474 49.6038C367.672 49.9939 367.119 50.8554 367.099 51.7479C367.095 51.9089 367.194 52.0485 367.336 52.1042C367.376 52.1199 367.419 52.1288 367.464 52.1301C367.67 52.1346 367.841 51.9711 367.846 51.7647C367.86 51.1453 368.243 50.5472 368.801 50.2762C368.986 50.1858 369.064 49.9625 368.973 49.7768C368.883 49.591 368.659 49.5137 368.474 49.6039L368.474 49.6038Z" fill="#094287"/>
<path d="M375.494 50.9952C375.366 50.0088 374.737 49.4966 374.067 49.254C374.11 48.9935 374.145 48.6045 374.075 48.2223C374.038 48.0195 373.843 47.885 373.64 47.9226C373.437 47.9601 373.303 48.1549 373.34 48.3577C373.387 48.6151 373.366 48.8887 373.337 49.0857C373.124 49.0624 372.926 49.0605 372.759 49.074C372.553 49.0907 372.4 49.271 372.416 49.4766C372.433 49.6822 372.613 49.8356 372.819 49.819C372.89 49.8129 374.571 49.6936 374.752 51.0914C374.771 51.2313 374.864 51.3432 374.987 51.3915C375.043 51.4138 375.106 51.4226 375.171 51.4143C375.376 51.3873 375.52 51.1998 375.494 50.9952L375.494 50.9952Z" fill="#094287"/>
<path d="M370.865 53.4901C370.778 54.2226 371.084 54.8164 371.706 55.1192C371.715 55.1235 371.725 55.1275 371.734 55.1311C371.913 55.2017 372.12 55.1234 372.206 54.9468C372.296 54.7612 372.219 54.5375 372.034 54.4471C371.832 54.3489 371.705 54.2119 371.642 54.0278C371.534 53.7052 371.655 53.3202 371.696 53.2242C371.731 53.1723 371.754 53.1112 371.759 53.0458C371.773 52.8829 371.679 52.7294 371.528 52.6677C370.335 52.182 370.563 50.9593 370.573 50.9055C370.615 50.7042 370.486 50.5069 370.284 50.4645C370.082 50.4221 369.884 50.5512 369.841 50.7535C369.716 51.3475 369.805 52.5549 370.915 53.1986C370.895 53.2857 370.878 53.3829 370.865 53.4901L370.865 53.4901Z" fill="#094287"/>
<path d="M370.791 46.5917C370.585 46.5808 370.409 46.7391 370.398 46.9451C370.374 47.4061 370.235 47.7229 369.973 47.9133C369.45 48.2936 368.59 48.0734 368.573 48.0689C368.374 48.0153 368.169 48.1331 368.115 48.3318C368.064 48.5177 368.163 48.7087 368.338 48.7774C368.351 48.7824 368.364 48.7868 368.377 48.7906C368.427 48.804 369.592 49.1113 370.409 48.5204C370.86 48.1938 371.108 47.677 371.145 46.9846C371.155 46.7786 370.998 46.6028 370.791 46.5917L370.791 46.5917Z" fill="#094287"/>
<path d="M371.427 57.9365C370.859 57.9547 370.444 57.8289 370.194 57.5622C369.862 57.2086 369.903 56.6918 369.904 56.676C369.926 56.4715 369.778 56.2889 369.573 56.2659C369.368 56.2436 369.184 56.3917 369.161 56.5968C369.157 56.6314 369.074 57.4539 369.641 58.0655C369.822 58.2616 370.045 58.4116 370.308 58.515C370.63 58.6415 371.012 58.698 371.45 58.6841C371.657 58.6774 371.818 58.5047 371.812 58.2984C371.805 58.0916 371.633 57.9296 371.427 57.9366L371.427 57.9365Z" fill="#094287"/>
<path fill-rule="evenodd" clip-rule="evenodd" d="M124.983 79.6626L120.857 82.3657L129.642 95.7734L133.768 93.0702L124.983 79.6626ZM126.316 83.9481L124.254 85.2996L128.984 92.5191L131.047 91.1676L126.316 83.9481Z" fill="white"/>
<path fill-rule="evenodd" clip-rule="evenodd" d="M130.139 76.2835L126.014 78.9867L134.799 92.3943L138.925 89.6912L130.139 76.2835ZM131.473 80.569L129.411 81.9206L134.141 89.1401L136.204 87.7885L131.473 80.569Z" fill="#ECBA41"/>
<path fill-rule="evenodd" clip-rule="evenodd" d="M134.228 73.6047L132.007 78.0084L146.319 85.2272L148.54 80.8235L134.228 73.6047ZM137.526 76.6491L136.415 78.851L144.122 82.738L145.232 80.5361L137.526 76.6491Z" fill="white"/>
<g clip-path="url(#clip0_727_4307)">
<path d="M66.0243 164.984L65.115 166.587L65.4714 166.789C65.9251 167.047 66.0829 167.618 65.8258 168.072C65.5686 168.525 64.9974 168.683 64.5437 168.426L64.1873 168.224L60.6465 174.469C60.4306 174.85 60.1592 175.178 59.861 175.458L63.563 177.557C64.1624 177.897 64.924 177.686 65.2638 177.087L71.1695 166.67C69.8091 166.766 68.3981 166.48 67.1263 165.759C66.7294 165.534 66.3636 165.273 66.0241 164.984L66.0243 164.984ZM59.2183 153.557L57.487 156.611L55.8669 155.693C54.8544 155.119 53.5642 155.468 52.9855 156.489L49.2935 163.002C48.7194 164.014 49.0773 165.309 50.0898 165.883L51.7099 166.802L49.9785 169.855C49.6387 170.455 49.8492 171.216 50.4485 171.556L55.8841 174.638C57.0829 175.317 58.606 174.896 59.2856 173.698L62.8265 167.452L62.2189 167.108C61.7653 166.85 61.6074 166.279 61.8646 165.826C62.1218 165.372 62.693 165.214 63.1466 165.471L63.7542 165.816L64.9069 163.782C63.2708 161.57 62.9844 158.507 64.4265 155.964C64.5551 155.737 64.7 155.519 64.8528 155.306L60.9241 153.079C60.3201 152.747 59.5585 152.958 59.2187 153.557L59.2183 153.557ZM56.449 158.442L52.7521 164.963L51.132 164.045L54.829 157.524L56.449 158.442Z" fill="#5EEFF1"/>
<path d="M70.0266 165.877C66.9132 165.902 64.3653 163.038 64.3373 159.477C64.3093 155.917 66.812 153.013 69.9255 152.989C72.0077 152.972 73.8668 154.271 74.8527 156.205C75.311 157.111 75.4402 158.182 74.4253 158.19L74.2359 158.191C73.9071 158.189 73.5874 158.3 73.3302 158.505C73.0731 158.71 72.894 158.997 72.8229 159.318C72.7389 159.735 72.8472 160.168 73.1178 160.496C73.3884 160.824 73.7924 161.014 74.2177 161.011C74.4383 160.983 74.6594 161.058 74.8177 161.213C74.9761 161.369 75.0541 161.589 75.0297 161.81C75.0055 162.275 74.8604 162.726 74.609 163.118C73.6673 164.774 71.9308 165.82 70.0266 165.877Z" fill="#F5C654"/>
<path d="M72.092 163.186C72.0937 163.405 72.0081 163.616 71.8542 163.773C71.7003 163.929 71.4906 164.018 71.2711 164.019C71.0518 164.021 70.8407 163.936 70.6844 163.782C70.5279 163.628 70.4392 163.418 70.4374 163.199C70.4357 162.979 70.5212 162.768 70.6752 162.612C70.8291 162.455 71.0388 162.367 71.2581 162.365C71.4776 162.363 71.6887 162.449 71.845 162.603C72.0013 162.756 72.0902 162.966 72.092 163.186ZM68.7717 161.764C68.7738 162.038 68.6669 162.302 68.4744 162.497C68.282 162.693 68.0199 162.804 67.7457 162.806C67.4714 162.808 67.2075 162.701 67.0121 162.509C66.8167 162.317 66.7056 162.054 66.7035 161.78C66.7013 161.506 66.8083 161.242 67.0006 161.047C67.193 160.851 67.4551 160.74 67.7295 160.738C68.0037 160.736 68.2675 160.843 68.4629 161.035C68.6585 161.228 68.7695 161.49 68.7717 161.764ZM68.3255 157.631C68.3277 157.905 68.2207 158.169 68.0284 158.365C67.8359 158.56 67.5737 158.671 67.2995 158.673C67.0253 158.675 66.7615 158.568 66.5659 158.376C66.3705 158.184 66.2595 157.921 66.2573 157.647C66.2552 157.373 66.3621 157.109 66.5545 156.914C66.747 156.718 67.0091 156.607 67.2833 156.605C67.5575 156.603 67.8213 156.71 68.0169 156.902C68.2123 157.095 68.3234 157.357 68.3255 157.631ZM72.0335 155.74C72.0361 156.069 71.9078 156.386 71.6768 156.621C71.446 156.855 71.1314 156.988 70.8024 156.991C70.4732 156.994 70.1565 156.865 69.9221 156.635C69.6876 156.404 69.5543 156.089 69.5518 155.76C69.5492 155.431 69.6774 155.114 69.9083 154.88C70.1391 154.645 70.4537 154.512 70.7829 154.509C71.1119 154.507 71.4286 154.635 71.6631 154.866C71.8977 155.097 72.0309 155.411 72.0335 155.74Z" fill="#FCF4E1"/>
</g>
<defs>
<clipPath id="clip0_727_4307">
<rect width="27.6923" height="30" fill="white" transform="translate(42.7728 167.028) rotate(-60.45)"/>
</clipPath>
</defs>
</svg>
