<svg width="177" height="74" viewBox="0 0 177 74" fill="none" xmlns="http://www.w3.org/2000/svg">
<path d="M125.588 72.2496H126.437V66.6207H128.548V65.9163H123.47V66.6207H125.588V72.2496Z" fill="white"/>
<path d="M129.125 72.2496H129.881V69.6594C129.861 69.4731 129.882 69.2846 129.943 69.1072C130.003 68.9298 130.102 68.7677 130.231 68.6322C130.361 68.4967 130.519 68.3911 130.694 68.3227C130.868 68.2543 131.056 68.2247 131.243 68.2361C131.368 68.2256 131.493 68.2419 131.61 68.2841C131.727 68.3263 131.834 68.3933 131.922 68.4805C132.011 68.5678 132.08 68.6731 132.124 68.7894C132.168 68.9057 132.186 69.0301 132.178 69.1541V72.2638H132.927V69.2466C132.927 68.2646 132.556 67.5672 131.35 67.5672C131.063 67.5518 130.777 67.6169 130.525 67.7553C130.273 67.8936 130.065 68.0996 129.924 68.35V65.9305H129.168V72.2638L129.125 72.2496Z" fill="white"/>
<path d="M134.866 65.9163H134.11V66.8342H134.866V65.9163ZM134.11 72.2496H134.866V67.6597H134.11V72.2496Z" fill="white"/>
<path d="M136.036 72.2496H136.792V69.6593C136.773 69.4732 136.795 69.2853 136.856 69.1085C136.917 68.9316 137.015 68.77 137.145 68.6348C137.274 68.4996 137.431 68.3939 137.605 68.3251C137.78 68.2562 137.967 68.2259 138.154 68.2361C138.278 68.2255 138.403 68.2419 138.52 68.2841C138.637 68.3263 138.744 68.3932 138.833 68.4805C138.922 68.5677 138.99 68.673 139.035 68.7893C139.079 68.9056 139.097 69.03 139.088 69.154V72.2638H139.844V69.2465C139.844 68.2645 139.466 67.5672 138.261 67.5672C137.958 67.5513 137.657 67.621 137.392 67.7683C137.127 67.9156 136.909 68.1344 136.763 68.3997V67.6881H136.05V72.278L136.036 72.2496Z" fill="white"/>
<path d="M141.021 72.2496H141.777V70.5061L142.49 69.8515L144.059 72.2496H145.022L143.068 69.332L144.886 67.6597H143.874L141.777 69.6664V65.9163H141.021V72.2496Z" fill="white"/>
<path d="M149.023 66.6207H150.677C151.626 66.6207 152.103 67.0335 152.103 67.7807C152.103 68.5279 151.661 68.9548 150.677 68.9477H149.023V66.6207ZM148.16 72.2496H149.001V69.6593H150.941C151.438 69.6593 151.916 69.4621 152.267 69.1112C152.619 68.7602 152.817 68.2842 152.817 67.7878C152.817 67.2914 152.619 66.8154 152.267 66.4644C151.916 66.1134 151.438 65.9163 150.941 65.9163H148.16V72.2496Z" fill="white"/>
<path d="M154.364 69.5098C154.364 69.1606 154.503 68.8258 154.751 68.5789C154.998 68.332 155.334 68.1933 155.684 68.1933C156.033 68.1933 156.369 68.332 156.617 68.5789C156.864 68.8258 157.003 69.1606 157.003 69.5098H154.364ZM156.989 70.7907C156.938 71.0616 156.788 71.3038 156.568 71.4697C156.347 71.6357 156.073 71.7133 155.798 71.6873C155.6 71.6991 155.402 71.6674 155.218 71.5945C155.033 71.5216 154.867 71.4093 154.731 71.2655C154.595 71.1216 154.493 70.9497 154.43 70.762C154.368 70.5742 154.348 70.3751 154.371 70.1787H157.816C157.859 69.0686 157.36 67.5529 155.733 67.5529C155.434 67.5615 155.139 67.631 154.866 67.7571C154.594 67.8832 154.351 68.0632 154.151 68.2863C153.95 68.5093 153.798 68.7706 153.702 69.0544C153.606 69.3381 153.57 69.6384 153.594 69.9368C153.637 71.36 154.307 72.3491 155.798 72.3491C156.262 72.3833 156.722 72.242 157.087 71.9533C157.451 71.6646 157.694 71.2496 157.766 70.7907H156.989Z" fill="white"/>
<path d="M159.135 69.9582C159.135 68.841 159.777 68.2219 160.562 68.2219C161.346 68.2219 161.988 68.841 161.988 69.9582C161.988 71.0755 161.346 71.6874 160.562 71.6874C159.777 71.6874 159.135 71.0683 159.135 69.9582ZM158.337 69.9582C158.319 70.2609 158.364 70.5638 158.469 70.8485C158.573 71.1332 158.734 71.3936 158.943 71.6139C159.151 71.8342 159.403 72.0097 159.682 72.1296C159.961 72.2496 160.261 72.3114 160.565 72.3114C160.869 72.3114 161.169 72.2496 161.448 72.1296C161.727 72.0097 161.979 71.8342 162.188 71.6139C162.396 71.3936 162.558 71.1332 162.662 70.8485C162.766 70.5638 162.811 70.2609 162.794 69.9582C162.794 68.6062 162.024 67.553 160.569 67.553C160.257 67.543 159.948 67.5999 159.66 67.7197C159.373 67.8395 159.114 68.0196 158.903 68.2476C158.691 68.4757 158.531 68.7464 158.433 69.0415C158.336 69.3367 158.303 69.6493 158.337 69.9582Z" fill="white"/>
<path d="M163.714 74H164.47V71.6303C164.639 71.8614 164.863 72.0472 165.122 72.1713C165.381 72.2955 165.666 72.3541 165.953 72.342C167.379 72.342 168.057 71.2532 168.057 69.958C168.057 68.6629 167.344 67.5457 165.917 67.5457C165.63 67.5158 165.341 67.5666 165.081 67.6924C164.822 67.8181 164.602 68.0138 164.448 68.2573V67.6382H163.692V73.9786L163.714 74ZM167.28 69.9082C167.28 70.8048 166.937 71.6872 165.903 71.6872C164.869 71.6872 164.477 70.8547 164.477 69.9509C164.477 69.0472 164.869 68.2217 165.903 68.2217C166.937 68.2217 167.33 69.0543 167.33 69.9082H167.28Z" fill="white"/>
<path d="M168.998 72.2496H169.754V65.9163H168.998V72.2496Z" fill="white"/>
<path d="M171.473 69.5098C171.498 69.1764 171.648 68.8647 171.893 68.6372C172.138 68.4096 172.461 68.2832 172.796 68.2832C173.131 68.2832 173.453 68.4096 173.699 68.6372C173.944 68.8647 174.094 69.1764 174.119 69.5098H171.473ZM174.097 70.7907C174.047 71.0616 173.897 71.3038 173.676 71.4697C173.456 71.6357 173.181 71.7133 172.906 71.6873C172.709 71.6978 172.511 71.6653 172.328 71.592C172.144 71.5187 171.979 71.4064 171.843 71.2628C171.707 71.1192 171.604 70.9479 171.542 70.7607C171.479 70.5734 171.458 70.3748 171.48 70.1787H174.925C174.968 69.0686 174.468 67.5529 172.842 67.5529C172.542 67.5615 172.247 67.631 171.975 67.7571C171.703 67.8832 171.46 68.0632 171.259 68.2863C171.059 68.5093 170.907 68.7706 170.811 69.0544C170.715 69.3381 170.678 69.6384 170.703 69.9368C170.746 71.36 171.416 72.3491 172.906 72.3491C173.371 72.3833 173.831 72.242 174.196 71.9533C174.56 71.6646 174.803 71.2496 174.875 70.7907H174.097Z" fill="white"/>
<path d="M113.664 0H176.658V62.8563H113.664V0Z" fill="white"/>
<path d="M30.6303 62.8563H176.65V63.2691H30.6303V62.8563Z" fill="white"/>
<path d="M0 62.8563H146.02V63.2691H0V62.8563Z" fill="white"/>
<path d="M113.657 62.8137H118.842V52.9366C118.842 49.1082 120.054 47.5355 122.864 47.5355C125.274 47.5355 126.187 49.0726 126.187 52.1681V62.8422H131.379V51.2217C131.379 46.5535 129.953 43.4509 124.468 43.4509C123.36 43.4725 122.274 43.7711 121.311 44.3193C120.348 44.8675 119.538 45.6479 118.956 46.5891H118.842V25.4614H113.657V62.8137Z" fill="#252121"/>
<path d="M131.308 54.3526H136.492V43.4152C136.492 39.7362 138.981 39.0744 140.001 39.0744C143.289 39.0744 143.146 41.5935 143.146 43.7781V54.3526H148.331V43.8493C148.331 41.4796 148.88 39.0744 151.804 39.0744C154.728 39.0744 154.985 41.1523 154.985 43.6714V54.3455H160.169V41.7358C160.169 36.8541 157.317 34.9969 153.266 34.9969C152.129 35.0057 151.013 35.2966 150.017 35.8431C149.021 36.3897 148.177 37.1749 147.561 38.1279C146.534 35.865 144.416 34.9969 142.041 34.9969C140.899 34.9828 139.772 35.2558 138.764 35.7905C137.756 36.3253 136.898 37.1046 136.271 38.0568H136.193V35.5021H131.3V54.3526H131.308Z" fill="#252121"/>
<path d="M159.506 39.5939C159.72 44.5752 163.999 46.2261 168.378 46.2261C172.757 46.2261 177 44.625 177 39.6651C177 36.164 174.04 35.0752 171.009 34.3778C167.978 33.6805 165.126 33.4314 165.126 31.5741C165.126 30.0371 166.845 29.8236 167.978 29.8236C169.847 29.8236 171.38 30.3644 171.544 32.3711H176.479C176.073 27.7457 172.279 26.358 168.15 26.358C164.02 26.358 159.927 27.5962 159.927 32.4067C159.927 35.7299 162.922 36.7831 165.917 37.4449C169.647 38.2419 171.801 38.7898 171.801 40.3554C171.801 42.1842 169.897 42.7677 168.406 42.7677C166.36 42.7677 164.455 41.8497 164.42 39.5939H159.506Z" fill="#252121"/>
<path d="M31.0868 54.865H28.7405V62.8492H31.0868V54.865Z" fill="white"/>
<path d="M31.0868 51.9402H28.7405V53.9825H31.0868V51.9402Z" fill="white"/>
<path d="M18.2855 55.8256C17.9293 55.4526 17.4962 55.1612 17.0161 54.9717C16.4895 54.7641 15.9277 54.6602 15.3615 54.6657C14.7999 54.6593 14.2426 54.7633 13.7213 54.9717C13.2437 55.1622 12.8131 55.4535 12.459 55.8256C12.0979 56.205 11.8209 56.656 11.646 57.1492C11.448 57.7039 11.3514 58.2896 11.3607 58.8784C11.352 59.4625 11.4487 60.0434 11.646 60.5934C11.821 61.0845 12.0981 61.5331 12.459 61.9098C12.8109 62.2828 13.2423 62.5722 13.7213 62.7567C14.2447 62.9561 14.8012 63.0551 15.3615 63.0484C15.9265 63.055 16.4876 62.956 17.0161 62.7567C17.4972 62.5723 17.9309 62.283 18.2855 61.9098C18.6441 61.5313 18.9208 61.0832 19.0985 60.5934C19.2925 60.0425 19.389 59.4622 19.3838 58.8784C19.3889 58.2899 19.2924 57.705 19.0985 57.1492C18.9208 56.6573 18.6441 56.2069 18.2855 55.8256ZM16.146 60.9848C15.9024 61.1205 15.6261 61.1869 15.3473 61.1769C15.074 61.1858 14.8032 61.1219 14.5628 60.9919C14.3571 60.8649 14.1837 60.6919 14.0565 60.4866C13.9276 60.2651 13.8338 60.0251 13.7783 59.775C13.7272 59.4884 13.7009 59.198 13.6999 58.9069C13.7009 58.6111 13.7271 58.3159 13.7783 58.0245C13.8297 57.7732 13.9238 57.5325 14.0565 57.3129C14.1854 57.107 14.3583 56.9321 14.5628 56.8005C14.8012 56.6646 15.0729 56.598 15.3473 56.6084C15.6094 56.5957 15.8699 56.6555 16.1001 56.781C16.3304 56.9066 16.5215 57.093 16.6524 57.32C16.7909 57.5367 16.8854 57.7785 16.9305 58.0316C16.9879 58.3222 17.0166 58.6178 17.0161 58.914C17.0162 59.2055 16.9876 59.4963 16.9305 59.7821C16.878 60.0331 16.784 60.2736 16.6524 60.4938C16.5318 60.692 16.3624 60.8561 16.1603 60.9705L16.146 60.9848Z" fill="white"/>
<path d="M25.5527 59.7323C25.5167 60.1229 25.3568 60.4919 25.0963 60.7855C24.8604 60.994 24.5648 61.1233 24.2513 61.1552C23.9379 61.1871 23.6222 61.12 23.349 60.9634C23.151 60.8301 22.9873 60.6522 22.8712 60.444C22.7499 60.2204 22.661 59.9808 22.6073 59.7323C22.5514 59.4655 22.5227 59.1937 22.5217 58.9211C22.5224 58.6391 22.5511 58.3578 22.6073 58.0814C22.6587 57.8167 22.7526 57.562 22.8854 57.3271C23.0087 57.1095 23.1793 56.9223 23.3847 56.7792C23.5821 56.6507 23.8091 56.5744 24.0443 56.5574C24.2794 56.5405 24.5151 56.5835 24.729 56.6824C24.9429 56.7813 25.1281 56.9328 25.2672 57.1228C25.4063 57.3128 25.4947 57.5349 25.5241 57.7683V57.8964H27.8205V57.7399C27.8021 57.2677 27.6779 56.8057 27.4568 56.3878C27.2482 56.0155 26.964 55.6907 26.6224 55.4342C26.2786 55.179 25.8923 54.9863 25.4814 54.865C25.0524 54.7418 24.6083 54.6796 24.162 54.6799C23.5867 54.6722 23.016 54.7836 22.4861 55.0073C22.0058 55.2117 21.5788 55.5233 21.238 55.9181C20.8835 56.3039 20.6096 56.7563 20.4322 57.2488C20.257 57.7987 20.1704 58.3727 20.1754 58.9496C20.1677 59.5081 20.2644 60.0632 20.4607 60.5863C20.6357 61.0641 20.9048 61.502 21.2523 61.8743C21.6009 62.2414 22.024 62.53 22.4932 62.7211C23.0009 62.9244 23.5437 63.026 24.0907 63.02C25.0078 63.0578 25.9075 62.7619 26.6224 62.1874C27.3213 61.559 27.7547 60.689 27.8348 59.7537V59.59H25.5527V59.7323Z" fill="white"/>
<path d="M9.46369 57.0425C9.12957 56.8212 8.7642 56.6509 8.37968 56.5372C8.03023 56.4376 7.75923 56.3593 7.5738 56.3238L6.00485 55.911C5.69297 55.8272 5.38783 55.7201 5.092 55.5908C4.93954 55.5267 4.80671 55.4236 4.7069 55.2919C4.63812 55.1605 4.6061 55.013 4.61418 54.865C4.60454 54.6952 4.64682 54.5264 4.73542 54.381C4.81758 54.2502 4.92704 54.1386 5.05634 54.0537C5.19221 53.9676 5.34171 53.905 5.49851 53.8687C5.9145 53.7792 6.34481 53.7792 6.7608 53.8687C6.96643 53.9101 7.16241 53.9897 7.33846 54.1036C7.502 54.2129 7.63462 54.3624 7.72357 54.5376C7.83332 54.7594 7.89412 55.002 7.90186 55.2492V55.3916H10.3908V55.235C10.4042 54.6689 10.2819 54.1078 10.0342 53.5983C9.80336 53.1592 9.47385 52.7792 9.07145 52.4882C8.65967 52.1935 8.19474 51.9808 7.70218 51.862C6.71345 51.6023 5.67423 51.6023 4.6855 51.862C4.22206 51.9909 3.78506 52.2005 3.39467 52.4811C3.01545 52.7609 2.69957 53.1174 2.46756 53.5272C2.22299 53.9868 2.10025 54.5012 2.11098 55.0215C2.09562 55.4443 2.17989 55.8648 2.35701 56.2491C2.53413 56.6335 2.79916 56.971 3.1308 57.2346C3.44252 57.4745 3.78564 57.6709 4.15063 57.8181C4.52419 57.9594 4.90509 58.0806 5.29168 58.1811C5.67679 58.2949 6.05477 58.3945 6.40422 58.4799C6.73214 58.5585 7.05391 58.6608 7.36699 58.7859C7.60809 58.8802 7.82851 59.0204 8.01597 59.1986C8.09149 59.2767 8.15009 59.3694 8.18813 59.471C8.22616 59.5726 8.24282 59.681 8.23705 59.7893C8.24586 59.9918 8.18828 60.1917 8.07303 60.3586C7.95298 60.515 7.79623 60.6397 7.61659 60.7215C7.42726 60.8141 7.22548 60.8788 7.01754 60.9136C6.54303 60.9894 6.05814 60.9701 5.59121 60.8567C5.34653 60.7953 5.11634 60.6865 4.91371 60.5365C4.71747 60.3954 4.56041 60.2068 4.45728 59.9885C4.33542 59.7258 4.2768 59.4382 4.28612 59.1488V58.9994H1.79719V59.1488C1.77489 59.7577 1.89963 60.363 2.1609 60.9136C2.4015 61.3948 2.75058 61.8137 3.18073 62.1376C3.60655 62.463 4.09062 62.7046 4.60705 62.8492C5.15875 62.9942 5.72674 63.0683 6.29725 63.0698C6.94161 63.0779 7.58352 62.9892 8.20139 62.8065C8.7076 62.6635 9.1803 62.4216 9.59206 62.0949C9.96157 61.7892 10.2546 61.4018 10.4479 60.9634C10.6425 60.5144 10.7398 60.0294 10.7331 59.5402C10.7562 58.9961 10.6199 58.457 10.3409 57.9889C10.1129 57.6195 9.81495 57.2981 9.46369 57.0425Z" fill="white"/>
<path d="M109.221 58.6009C108.977 58.4221 108.708 58.2806 108.422 58.1811C108.13 58.0814 107.83 57.996 107.531 57.9249L106.682 57.7327C106.441 57.6828 106.203 57.6186 105.969 57.5406C105.794 57.4843 105.632 57.3949 105.491 57.2773C105.443 57.2333 105.404 57.1795 105.378 57.1193C105.352 57.0591 105.34 56.9941 105.341 56.9286C105.336 56.8267 105.366 56.7261 105.427 56.644C105.486 56.5703 105.562 56.5117 105.648 56.4732C105.75 56.4289 105.858 56.4002 105.969 56.3878C106.391 56.3151 106.825 56.3774 107.21 56.5657C107.329 56.6408 107.426 56.7465 107.49 56.8717C107.554 56.9969 107.583 57.137 107.574 57.2773V57.4125H109.827V57.2488C109.801 56.8098 109.672 56.3831 109.449 56.0035C109.252 55.6796 108.98 55.4066 108.658 55.2065C108.333 55.0009 107.973 54.8584 107.595 54.7867C106.797 54.6266 105.975 54.6266 105.177 54.7867C104.793 54.8557 104.424 54.9905 104.086 55.1852C103.76 55.384 103.488 55.6602 103.295 55.9893C103.079 56.3863 102.973 56.8332 102.988 57.2844C102.979 57.6099 103.058 57.9317 103.216 58.2166C103.358 58.467 103.555 58.6813 103.794 58.8428C104.037 59.0111 104.304 59.1429 104.585 59.2342C104.871 59.3267 105.17 59.4121 105.477 59.4833C106.049 59.5974 106.612 59.7543 107.16 59.953C107.509 60.0882 107.681 60.2732 107.681 60.5222C107.687 60.6585 107.65 60.7933 107.574 60.9065C107.503 61.0088 107.41 61.0939 107.303 61.1556C107.18 61.2244 107.048 61.2748 106.91 61.305C106.592 61.384 106.259 61.384 105.94 61.305C105.78 61.2629 105.628 61.193 105.491 61.0986C105.367 61.0031 105.263 60.8847 105.184 60.7499C105.103 60.5893 105.064 60.4105 105.07 60.2305V60.081H102.81V60.2376C102.813 60.7141 102.938 61.1819 103.173 61.5968C103.382 61.9471 103.667 62.2463 104.008 62.4721C104.363 62.692 104.754 62.8485 105.163 62.9346C105.592 63.0264 106.03 63.0717 106.468 63.0698C106.897 63.0702 107.325 63.0273 107.745 62.9417C108.151 62.8636 108.538 62.7091 108.886 62.4863C109.223 62.2619 109.504 61.9623 109.706 61.611C109.926 61.1951 110.034 60.7292 110.02 60.2589C110.032 59.9444 109.966 59.6318 109.828 59.3488C109.689 59.0658 109.484 58.8211 109.228 58.6365L109.221 58.6009Z" fill="white"/>
<path d="M55.6481 57.0426C55.3237 56.8188 54.9681 56.6438 54.5927 56.5231C54.2432 56.4235 53.9722 56.3452 53.7796 56.3096L52.2178 55.8969C51.9049 55.8163 51.5995 55.7092 51.305 55.5767C51.1512 55.5148 51.0179 55.4112 50.9199 55.2778C50.8486 55.1471 50.8141 54.9996 50.82 54.8509C50.8141 54.6814 50.8561 54.5137 50.9412 54.367C51.0282 54.2376 51.1396 54.1264 51.2693 54.0396C51.4045 53.9522 51.5542 53.8895 51.7115 53.8546C52.125 53.765 52.5531 53.765 52.9666 53.8546C53.1727 53.8946 53.3689 53.9744 53.5443 54.0894C53.7118 54.1963 53.8473 54.3462 53.9365 54.5235C54.0447 54.7455 54.1031 54.9883 54.1077 55.2351V55.3774H56.5895V55.2209C56.6071 54.6544 56.4847 54.0922 56.2329 53.5842C56.0045 53.1455 55.6774 52.7655 55.2773 52.4741C54.8636 52.178 54.3961 51.9653 53.9009 51.8478C52.9146 51.5882 51.8776 51.5882 50.8913 51.8478C50.4273 51.9752 49.99 52.185 49.6005 52.467C49.2213 52.7469 48.9054 53.1033 48.6734 53.513C48.4255 53.9714 48.3025 54.4867 48.3168 55.0074C48.3039 55.4597 48.3993 55.9086 48.5949 56.3168C48.765 56.6656 49.0082 56.9738 49.3081 57.2205C49.6181 57.4631 49.9616 57.6596 50.3279 57.804C50.7011 57.9464 51.0821 58.0675 51.469 58.1669C51.847 58.2808 52.2249 58.3804 52.5815 58.4658C52.9097 58.5434 53.2316 58.6457 53.5443 58.7718C53.7845 58.8678 54.0046 59.0078 54.1933 59.1845C54.2688 59.2625 54.3274 59.3553 54.3654 59.4569C54.4035 59.5585 54.4201 59.6669 54.4144 59.7752C54.4244 59.9789 54.364 60.1799 54.2432 60.3444C54.1243 60.4992 53.9704 60.6236 53.7939 60.7074C53.6026 60.8012 53.3982 60.866 53.1877 60.8995C52.7132 60.9751 52.2283 60.9558 51.7614 60.8426C51.5178 60.7782 51.2881 60.6697 51.0839 60.5224C50.8921 60.3785 50.738 60.1905 50.6346 59.9744C50.512 59.7119 50.4533 59.4242 50.4634 59.1347V58.9853H47.9674V59.1347C47.9456 59.7436 48.0703 60.3487 48.3311 60.8995C48.572 61.3784 48.9182 61.7968 49.3438 62.1235C49.7837 62.4517 50.2823 62.6932 50.8129 62.8351C51.3645 62.9805 51.9325 63.0547 52.5031 63.0557C53.1452 63.0647 53.7849 62.9759 54.4001 62.7924C54.9179 62.6513 55.4026 62.4095 55.8264 62.0808C56.1959 61.7751 56.4889 61.3877 56.6822 60.9493C56.8743 60.4995 56.9714 60.015 56.9675 59.5261C56.9881 58.9822 56.8519 58.4439 56.5752 57.9748C56.3311 57.6059 56.016 57.289 55.6481 57.0426Z" fill="white"/>
<path d="M68.4636 54.865H66.1102V62.8492H68.4636V54.865Z" fill="white"/>
<path d="M62.9223 59.7323C62.8864 60.1229 62.7265 60.4919 62.4659 60.7855C62.3323 60.9167 62.1723 61.0182 61.9965 61.0832C61.8208 61.1482 61.6332 61.1753 61.4461 61.1627C61.1939 61.168 60.9457 61.0987 60.7329 60.9634C60.5313 60.8323 60.3648 60.654 60.248 60.444C60.1257 60.2209 60.0368 59.9811 59.9841 59.7323C59.9317 59.465 59.9031 59.1935 59.8985 58.9211C59.9027 58.6393 59.9313 58.3583 59.9841 58.0814C60.0355 57.8167 60.1295 57.562 60.2623 57.3271C60.3837 57.1082 60.5546 56.9206 60.7615 56.7792C60.9576 56.6586 61.1808 56.5888 61.4108 56.5761C61.6408 56.5634 61.8704 56.6082 62.0786 56.7064C62.2869 56.8047 62.4673 56.9533 62.6034 57.1387C62.7395 57.3241 62.8271 57.5405 62.8582 57.7683V57.8964H65.1546V57.7399C65.1337 57.2672 65.007 56.8052 64.7837 56.3878C64.5802 56.0161 64.3008 55.6913 63.9636 55.4342C63.6171 55.179 63.2285 54.9864 62.8154 54.865C62.3865 54.7418 61.9423 54.6796 61.496 54.6799C60.9207 54.6722 60.35 54.7836 59.8201 55.0073C59.3423 55.2161 58.9163 55.5271 58.5721 55.9181C58.2303 56.307 57.9686 56.7592 57.8018 57.2488C57.6267 57.7987 57.5401 58.3727 57.5451 58.9496C57.538 59.5081 57.6347 60.063 57.8304 60.5863C58.0071 61.0633 58.276 61.5009 58.622 61.8743C58.9706 62.2414 59.3936 62.53 59.8629 62.7211C60.3705 62.9244 60.9134 63.026 61.4604 63.02C62.3768 63.072 63.2811 62.7915 64.0064 62.2301C64.7055 61.6027 65.1369 60.7317 65.2116 59.7964V59.6327H62.9295L62.9223 59.7323Z" fill="white"/>
<path d="M68.4636 51.9402H66.1102V53.9825H68.4636V51.9402Z" fill="white"/>
<path d="M84.7737 55.5836C84.5466 55.2702 84.2385 55.0243 83.8822 54.872C83.4295 54.6903 82.9435 54.6055 82.4559 54.623C81.9906 54.6283 81.5324 54.7377 81.1151 54.9432C80.7887 55.1174 80.504 55.3602 80.2807 55.6548V54.8649H78.0557V62.842H80.4091V58.672C80.3642 58.1178 80.4858 57.5629 80.7585 57.078C80.8877 56.9194 81.0545 56.7953 81.2437 56.7171C81.433 56.6388 81.6388 56.6088 81.8426 56.6297C82.0137 56.6087 82.1875 56.6339 82.3455 56.7027C82.5036 56.7716 82.6402 56.8815 82.7411 57.0211C82.9456 57.4386 83.0366 57.9024 83.005 58.366V62.8492H85.3585V57.9604C85.3616 57.5136 85.3186 57.0677 85.2301 56.6297C85.1538 56.2527 84.9982 55.8962 84.7737 55.5836Z" fill="white"/>
<path d="M76.3156 56.1173C76.0023 55.6704 75.5867 55.3045 75.1032 55.0499C74.5675 54.776 73.9721 54.6391 73.3702 54.6514C72.816 54.6471 72.267 54.7586 71.7585 54.9788C71.2863 55.1877 70.8617 55.4904 70.5105 55.8683C70.1546 56.257 69.8784 56.7115 69.6975 57.2061C69.5058 57.7378 69.4092 58.2991 69.4122 58.8641C69.4058 59.4359 69.4999 60.0043 69.6903 60.5435C69.8625 61.0338 70.129 61.4858 70.4748 61.8742C70.824 62.2506 71.2528 62.5447 71.73 62.7353C72.2518 62.9413 72.8091 63.0428 73.3702 63.0342C74.1645 63.0583 74.9475 62.8425 75.6167 62.4151C76.3191 61.9176 76.824 61.1897 77.043 60.3585L77.1072 60.1664H74.9677V60.2731C74.8826 60.5237 74.7106 60.7357 74.4828 60.8709C74.1962 61.0688 73.8542 61.1709 73.5057 61.1626C73.2836 61.1779 73.0606 61.1486 72.8499 61.0765C72.6392 61.0043 72.4451 60.8909 72.2791 60.7428C71.992 60.3989 71.8332 59.9664 71.8298 59.5188H77.1928V59.3836C77.2373 58.7935 77.1868 58.2001 77.043 57.626C76.9027 57.0801 76.6555 56.5674 76.3156 56.1173ZM72.5715 56.7008C72.793 56.5918 73.0378 56.5381 73.2847 56.5443C73.4691 56.5296 73.6546 56.555 73.8282 56.6189C74.0019 56.6828 74.1595 56.7836 74.2902 56.9143C74.516 57.1925 74.668 57.5229 74.7324 57.875H71.7799C71.7799 57.7825 71.8227 57.6829 71.8512 57.569C71.9054 57.3922 71.9898 57.2261 72.1008 57.078C72.2269 56.921 72.3849 56.7924 72.5644 56.7008H72.5715Z" fill="white"/>
<path d="M43.0965 51.9402H40.743V62.8491H43.0965V51.9402Z" fill="white"/>
<path d="M39.4593 61.9598C39.4179 61.6365 39.3989 61.3108 39.4022 60.9849V56.9928C39.4215 56.5643 39.3042 56.1408 39.0671 55.783C38.854 55.479 38.5668 55.2341 38.2327 55.0714C37.8871 54.9015 37.5162 54.7885 37.1344 54.737C36.3293 54.6145 35.509 54.6313 34.7096 54.7868C34.3042 54.8663 33.9157 55.0156 33.5614 55.228C33.215 55.4351 32.9219 55.7202 32.7056 56.0606C32.4642 56.4557 32.3314 56.9073 32.3205 57.3699V57.5265H34.6597V57.3913C34.6601 57.2427 34.6913 57.0957 34.7514 56.9598C34.8116 56.8238 34.8993 56.7018 35.0092 56.6014C35.2604 56.4305 35.5615 56.3479 35.865 56.3666C36.0288 56.3555 36.1932 56.3555 36.357 56.3666C36.4835 56.3841 36.605 56.4277 36.7136 56.4947C36.8121 56.5593 36.8929 56.6473 36.949 56.7508C37.0197 56.8994 37.0516 57.0634 37.0417 57.2276C37.0511 57.2967 37.0437 57.3671 37.0201 57.4327C36.9966 57.4984 36.9575 57.5574 36.9062 57.6048C36.7649 57.718 36.5987 57.7961 36.4212 57.8325C36.1679 57.8936 35.9105 57.9364 35.651 57.9606C35.3372 57.9961 35.0306 58.0317 34.731 58.0815C34.4159 58.1325 34.104 58.2015 33.7968 58.2879C33.4925 58.3695 33.2051 58.5045 32.9481 58.6864C32.6881 58.8737 32.4736 59.1169 32.3205 59.398C32.1695 59.7512 32.0916 60.1312 32.0916 60.5153C32.0916 60.8993 32.1695 61.2793 32.3205 61.6324C32.4461 61.9325 32.6446 62.1967 32.8982 62.401C33.1535 62.6056 33.4467 62.758 33.7611 62.8493C34.1001 62.9429 34.4506 62.9884 34.8023 62.9845C35.286 62.9872 35.7671 62.9152 36.2287 62.771C36.5951 62.659 36.9332 62.4697 37.22 62.216V62.3085C37.2433 62.4359 37.2743 62.5619 37.3127 62.6856L37.3483 62.7924H39.7588L39.6162 62.5646C39.526 62.3748 39.4727 62.1695 39.4593 61.9598ZM37.0488 59.213V59.7182C37.0568 59.8723 37.0568 60.0267 37.0488 60.1808C37.0256 60.3687 36.9649 60.5502 36.8705 60.7145C36.7658 60.8963 36.616 61.0482 36.4355 61.1557C36.172 61.2929 35.8764 61.3568 35.5797 61.3407C35.4289 61.3413 35.2784 61.327 35.1304 61.298C35.0065 61.2749 34.8881 61.229 34.781 61.1628C34.6843 61.1033 34.6074 61.0167 34.5599 60.9138C34.4984 60.7876 34.469 60.6483 34.4743 60.5081C34.4684 60.3633 34.4978 60.2193 34.5599 60.0883C34.6132 59.9833 34.6886 59.8911 34.781 59.8178C34.8876 59.7427 35.0055 59.6851 35.1304 59.6471C35.2713 59.595 35.417 59.5569 35.5654 59.5332C35.7223 59.4976 35.8792 59.4763 36.0432 59.4549L36.5211 59.3838C36.6704 59.351 36.818 59.3106 36.9632 59.2628L37.0488 59.213Z" fill="white"/>
<path d="M91.7556 59.7324C91.7164 60.1222 91.5569 60.4901 91.2992 60.7856C91.0633 60.9941 90.7678 61.1234 90.4543 61.1553C90.1408 61.1872 89.8252 61.1201 89.552 60.9635C89.3515 60.8331 89.1872 60.6544 89.0741 60.444C88.9518 60.221 88.8629 59.9812 88.8103 59.7324C88.7539 59.4657 88.7253 59.1938 88.7247 58.9212C88.7249 58.6391 88.7536 58.3578 88.8103 58.0815C88.8617 57.8168 88.9556 57.562 89.0884 57.3272C89.2098 57.1083 89.3807 56.9207 89.5876 56.7793C89.799 56.6403 90.0476 56.5683 90.3008 56.5729C90.4701 56.5562 90.641 56.5745 90.8029 56.6265C90.9649 56.6786 91.1144 56.7633 91.2421 56.8754C91.3698 56.9875 91.4731 57.1246 91.5455 57.2782C91.6179 57.4319 91.6579 57.5987 91.6629 57.7684V57.8965H93.9593V57.7399C93.9482 57.2908 93.8352 56.8501 93.6289 56.4508C93.4227 56.0514 93.1284 55.704 92.7683 55.4343C92.4236 55.1805 92.0376 54.9879 91.6273 54.8651C91.1981 54.7429 90.7541 54.6807 90.3079 54.68C89.7325 54.6714 89.1616 54.7829 88.632 55.0073C88.1506 55.2135 87.7216 55.5247 87.3768 55.9182C87.0298 56.3195 86.7678 56.7867 86.6066 57.2916C86.4315 57.8414 86.3448 58.4155 86.3498 58.9924C86.3433 59.5502 86.4376 60.1046 86.628 60.6291C86.8089 61.1056 87.0801 61.5429 87.4267 61.9171C87.7753 62.2841 88.1984 62.5728 88.6676 62.7639C89.1753 62.9672 89.7181 63.0688 90.2651 63.0627C91.1821 63.0993 92.0813 62.8036 92.7968 62.2302C93.496 61.6028 93.9274 60.7318 94.0021 59.7965V59.6328H91.7271L91.7556 59.7324Z" fill="white"/>
<path d="M101.426 56.1173C101.111 55.672 100.696 55.3065 100.214 55.0499C99.678 54.776 99.0825 54.6391 98.4807 54.6514C97.9264 54.6471 97.3774 54.7586 96.8689 54.9788C96.3968 55.1877 95.9722 55.4904 95.6209 55.8683C95.2626 56.2552 94.9861 56.7102 94.8079 57.2061C94.6162 57.7378 94.5197 58.2991 94.5226 58.8641C94.5162 59.4359 94.6104 60.0043 94.8008 60.5435C94.9725 61.0356 95.2418 61.4881 95.5924 61.8742C95.9376 62.2519 96.3644 62.5464 96.8404 62.7353C97.3623 62.9413 97.9196 63.0428 98.4807 63.0342C99.2771 63.0575 100.062 62.8419 100.734 62.4151C101.419 61.9093 101.908 61.1827 102.118 60.3585L102.182 60.1664H100.043L100.007 60.2731C99.9166 60.5208 99.7459 60.7312 99.5219 60.8709C99.2332 61.0698 98.8885 61.172 98.5378 61.1626C98.3177 61.178 98.0969 61.1487 97.8885 61.0765C97.6801 61.0043 97.4886 60.8908 97.3254 60.7428C97.0362 60.3995 96.875 59.9671 96.8689 59.5188H102.232V59.3836C102.276 58.7935 102.226 58.2001 102.082 57.626C101.961 57.0861 101.739 56.5741 101.426 56.1173ZM97.682 56.7008C97.9035 56.5918 98.1482 56.5381 98.3951 56.5443C98.5796 56.5296 98.7651 56.555 98.9387 56.6189C99.1123 56.6828 99.27 56.7836 99.4007 56.9143C99.6265 57.1925 99.7785 57.5229 99.8428 57.875H96.8689C96.8849 57.7719 96.9063 57.6698 96.9331 57.569C96.9873 57.3922 97.0717 57.2261 97.1827 57.078C97.3208 56.9187 97.4909 56.7902 97.682 56.7008Z" fill="white"/>
<path d="M88.3681 45.7634C88.4059 45.1734 88.3554 44.581 88.2184 44.0058C88.0852 43.4686 87.8557 42.9598 87.5408 42.5043C87.2257 42.059 86.8105 41.6934 86.3285 41.4369C85.7927 41.163 85.1973 41.0261 84.5955 41.0384C84.0412 41.0341 83.4922 41.1456 82.9837 41.3657C82.5084 41.5728 82.0811 41.8756 81.7286 42.2552C81.3743 42.6425 81.0983 43.0943 80.9155 43.5859C80.7269 44.1182 80.6328 44.6793 80.6374 45.244C80.6317 45.8174 80.7234 46.3876 80.9084 46.9305C81.0802 47.4225 81.3494 47.8751 81.7 48.2612C82.0466 48.6374 82.473 48.9315 82.9481 49.1222C83.4726 49.3275 84.0321 49.429 84.5955 49.4211C85.3895 49.4435 86.172 49.2278 86.8419 48.802C87.5292 48.2983 88.0186 47.5709 88.2255 46.7454L88.2897 46.5533H86.1502V46.6601C86.0595 46.9096 85.8858 47.1206 85.6581 47.2578C85.3247 47.469 84.9333 47.5703 84.5391 47.5473C84.1449 47.5243 83.768 47.3782 83.4615 47.1297C83.1708 46.7852 83.0116 46.3491 83.0123 45.8986H88.3681V45.7634ZM83.7967 43.0878C84.0183 42.9788 84.263 42.9251 84.5099 42.9312C84.6937 42.917 84.8785 42.942 85.0519 43.0046C85.2253 43.0672 85.3833 43.1659 85.5155 43.2942C85.7365 43.5771 85.8857 43.9091 85.9505 44.2619H82.9766C82.9925 44.1559 83.0163 44.0513 83.0479 43.9488C83.0981 43.774 83.1803 43.6099 83.2904 43.4649C83.4288 43.303 83.6018 43.1742 83.7967 43.0878Z" fill="white"/>
<path d="M70.8813 41.2448H68.535V49.2219H70.8813V41.2448Z" fill="white"/>
<path d="M79.6817 38.3201H77.3354V40.3624H79.6817V38.3201Z" fill="white"/>
<path d="M101.447 44.1339C101.221 44.3963 101.04 44.6945 100.913 45.0163C100.775 45.3627 100.707 45.7326 100.713 46.105C100.703 46.5931 100.795 47.0779 100.984 47.5283C101.154 47.9262 101.407 48.2833 101.727 48.5754C102.047 48.8675 102.426 49.088 102.838 49.2219C103.275 49.3653 103.733 49.4374 104.193 49.4354C104.759 49.4441 105.32 49.3351 105.841 49.1151C106.297 48.8985 106.716 48.6102 107.081 48.2612L107.859 49.2432H110.761L108.543 46.5747C108.805 46.2136 109.016 45.8186 109.171 45.4005C109.336 44.9409 109.443 44.463 109.492 43.9773V43.8065H107.438V43.9417C107.41 44.1532 107.367 44.3624 107.31 44.568C107.274 44.6938 107.232 44.8174 107.181 44.938L106.112 43.5859C106.566 43.3195 106.969 42.975 107.303 42.5683C107.682 42.0975 107.882 41.5073 107.866 40.9032C107.874 40.5016 107.794 40.1032 107.631 39.7362C107.479 39.4101 107.257 39.1211 106.982 38.8893C106.704 38.6618 106.384 38.4902 106.04 38.3841C105.324 38.1519 104.553 38.1519 103.837 38.3841C103.504 38.497 103.196 38.6734 102.931 38.9036C102.666 39.1294 102.448 39.405 102.289 39.7148C102.129 40.045 102.048 40.4082 102.054 40.7751C102.043 41.2228 102.146 41.666 102.353 42.0631C102.528 42.3849 102.728 42.6919 102.952 42.9811C102.71 43.1163 102.467 43.2657 102.239 43.4294C101.947 43.6305 101.681 43.8672 101.447 44.1339ZM104.3 47.393C104.131 47.3958 103.963 47.3618 103.808 47.2934C103.651 47.2316 103.506 47.1425 103.38 47.0301C103.259 46.916 103.16 46.781 103.088 46.6316C103.018 46.4824 102.981 46.3197 102.981 46.1549C102.98 45.9708 103.019 45.7888 103.095 45.6211C103.168 45.4553 103.269 45.3036 103.394 45.1728C103.517 45.0297 103.661 44.9072 103.822 44.8099C103.951 44.7253 104.087 44.6515 104.229 44.5893L105.833 46.6032C105.642 46.8174 105.424 47.0063 105.184 47.1653C104.91 47.3243 104.596 47.4032 104.279 47.393H104.3ZM104.222 40.7039C104.215 40.5981 104.232 40.492 104.271 40.3935C104.311 40.295 104.372 40.2066 104.45 40.1347C104.596 39.9961 104.79 39.9195 104.992 39.9212C105.096 39.9201 105.199 39.9419 105.294 39.9849C105.389 40.028 105.473 40.0912 105.541 40.1702C105.62 40.2498 105.682 40.3444 105.723 40.4482C105.765 40.5521 105.786 40.6632 105.784 40.7751C105.8 41.0679 105.703 41.3557 105.513 41.5792C105.331 41.7675 105.13 41.9367 104.913 42.0845C104.757 41.8781 104.6 41.6717 104.457 41.4725C104.289 41.2517 104.198 40.9814 104.2 40.7039H104.222Z" fill="white"/>
<path d="M88.9101 46.4325V46.5749C88.9088 47.0511 89.0317 47.5195 89.2667 47.934C89.4764 48.2843 89.7644 48.5814 90.1082 48.8022C90.4603 49.0298 90.8522 49.1891 91.2635 49.2719C91.69 49.3637 92.1252 49.409 92.5615 49.4071C92.9902 49.4078 93.418 49.3649 93.838 49.279C94.2453 49.2017 94.6332 49.0445 94.9791 48.8164C95.3217 48.5979 95.6037 48.2969 95.7992 47.9412C96.0243 47.5294 96.1351 47.065 96.1201 46.5962C96.1279 46.2603 96.0519 45.9278 95.8991 45.6284C95.7558 45.3714 95.5588 45.1481 95.3214 44.9737C95.0776 44.7948 94.8084 44.6533 94.5227 44.5539C94.2303 44.4543 93.9307 44.3689 93.6383 44.2977L92.7825 44.1056C92.5408 44.0544 92.3026 43.9879 92.0694 43.9063C91.8947 43.8532 91.7323 43.7662 91.5915 43.6502C91.5085 43.5687 91.4566 43.4607 91.4449 43.345C91.4331 43.2294 91.4623 43.1133 91.5274 43.0168C91.5876 42.9444 91.6631 42.8861 91.7484 42.846C91.8531 42.8018 91.9636 42.7731 92.0765 42.7606C92.4986 42.689 92.9326 42.7512 93.3174 42.9385C93.4365 43.0137 93.5331 43.1193 93.5971 43.2446C93.6611 43.3698 93.6901 43.5099 93.6811 43.6502V43.7925H95.9347V43.6288C95.9132 43.19 95.786 42.7628 95.5639 42.3835C95.3603 42.0643 95.0903 41.7925 94.7723 41.5865C94.4441 41.3815 94.0818 41.2369 93.7025 41.1595C92.9039 41.0067 92.0835 41.0067 91.2849 41.1595C90.9027 41.2308 90.5359 41.3681 90.2009 41.5651C89.8709 41.7616 89.596 42.0382 89.4021 42.3692C89.1892 42.7669 89.0858 43.2138 89.1026 43.6644C89.092 43.9892 89.1683 44.311 89.3237 44.5966C89.4675 44.8454 89.6648 45.0592 89.9014 45.2228C90.1473 45.3911 90.4163 45.5229 90.7001 45.6142C90.9854 45.7067 91.2849 45.7921 91.5844 45.8632C92.1567 45.9763 92.7194 46.1333 93.2675 46.3329C93.6169 46.4681 93.7881 46.6531 93.7881 46.9022C93.7938 47.0383 93.7564 47.1728 93.6811 47.2865C93.6107 47.3888 93.5181 47.4739 93.4101 47.5355C93.2865 47.6023 93.1546 47.6525 93.0179 47.685C92.7018 47.7639 92.3711 47.7639 92.0551 47.685C91.8944 47.6428 91.7424 47.573 91.6058 47.4786C91.4763 47.3844 91.3692 47.2629 91.292 47.1228C91.2135 46.9636 91.1744 46.7879 91.1779 46.6104V46.461L88.9101 46.4325Z" fill="white"/>
<path d="M79.6817 41.2448H77.3354V49.2219H79.6817V41.2448Z" fill="white"/>
<path d="M25.9877 42.3905H22.1224V38.3201H19.555V49.229H22.1224V44.6534H25.9877V49.229H28.5551V38.3201H25.9877V42.3905Z" fill="white"/>
<path d="M70.8813 38.3201H68.535V40.3624H70.8813V38.3201Z" fill="white"/>
<path d="M50.335 49.229V43.9418C50.346 43.4912 50.2735 43.0425 50.1211 42.6182C49.9986 42.2769 49.7962 41.9697 49.5308 41.7221C49.2653 41.4746 48.9445 41.2938 48.5949 41.195C48.2236 41.0903 47.8396 41.0376 47.4538 41.0384C46.9478 41.0315 46.4513 41.1752 46.0275 41.4511C45.7294 41.6474 45.4626 41.8873 45.2359 42.1627C45.0511 41.7989 44.7534 41.5044 44.3872 41.323C43.9646 41.1207 43.5009 41.0184 43.0322 41.0242C42.5507 41.0176 42.0759 41.1379 41.6558 41.3729C41.3609 41.542 41.0979 41.7611 40.8785 42.0204V41.2305H38.6463V49.2148H40.9926V44.6107C40.9824 44.3194 41.0309 44.029 41.1352 43.7568C41.2166 43.5747 41.3329 43.4104 41.4775 43.2728C41.5966 43.1725 41.7349 43.0975 41.884 43.0522C41.995 43.0177 42.1102 42.9986 42.2264 42.9953C42.4543 42.9773 42.6825 43.0269 42.8825 43.1377C43.02 43.2302 43.1267 43.3615 43.1891 43.5148C43.253 43.6985 43.2913 43.89 43.3032 44.0841C43.3032 44.3118 43.3032 44.5324 43.3032 44.753V49.2148H45.6495V44.7886C45.6502 44.5505 45.6669 44.3128 45.6995 44.077C45.7265 43.8754 45.7893 43.6802 45.8849 43.5006C45.9756 43.3425 46.1027 43.2084 46.2557 43.1092C46.4419 43.003 46.6551 42.9535 46.869 42.9669C47.0802 42.9576 47.2906 42.9991 47.4824 43.0878C47.6204 43.1681 47.7319 43.2868 47.8033 43.4294C47.8842 43.5992 47.9326 43.7827 47.9459 43.9702C47.9459 44.1908 47.9459 44.4328 47.9459 44.6818V49.1863L50.335 49.229Z" fill="white"/>
<path d="M62.1736 41.2448H59.9271V49.2291H62.2734V45.0519C62.2285 44.4977 62.3502 43.9428 62.6228 43.4579C62.752 43.2993 62.9188 43.1752 63.108 43.0969C63.2973 43.0187 63.5031 42.9886 63.7069 43.0096C63.878 42.9885 64.0518 43.0138 64.2098 43.0826C64.3679 43.1515 64.5045 43.2614 64.6054 43.401C64.8099 43.816 64.901 44.2775 64.8693 44.7388V49.2291H67.2228V44.3545C67.2266 43.9077 67.1836 43.4617 67.0944 43.0238C67.0212 42.6449 66.8681 42.2859 66.6451 41.9707C66.4148 41.6604 66.1076 41.4151 65.7536 41.259C65.2992 41.0839 64.8142 41.0016 64.3273 41.0171C63.864 41.02 63.4076 41.1296 62.9937 41.3373C62.664 41.5067 62.3783 41.7503 62.1593 42.0489L62.1736 41.2448Z" fill="white"/>
<path d="M72.7426 47.3433C72.7289 47.6896 72.7999 48.0339 72.9495 48.3467C73.0787 48.5998 73.2763 48.8118 73.52 48.9587C73.7688 49.1007 74.0422 49.1948 74.3259 49.2362C74.6306 49.2797 74.938 49.3011 75.2458 49.3002C75.4527 49.3002 75.6595 49.3002 75.8734 49.3002C76.0741 49.2932 76.2741 49.2742 76.4725 49.2433H76.5937V47.2864L76.4154 47.322C76.3216 47.3437 76.2262 47.3579 76.1302 47.3647C76.0233 47.3719 75.9161 47.3719 75.8092 47.3647C75.417 47.3647 75.2744 47.2864 75.2245 47.2366C75.1145 47.0526 75.0693 46.8372 75.0961 46.6246V42.9741H76.5937V41.2591H75.0961V38.9606H72.7426V41.2591H71.5017V42.9741H72.7426V47.3433Z" fill="white"/>
<path d="M55.6624 44.2548C55.4119 44.3178 55.1567 44.3606 54.8993 44.3829C54.5855 44.3829 54.2717 44.4541 53.9793 44.5039C53.6642 44.5549 53.3523 44.6238 53.0451 44.7102C52.738 44.7903 52.4481 44.9254 52.1893 45.1087C51.93 45.2948 51.7176 45.5384 51.5688 45.8203C51.3944 46.1789 51.3111 46.5748 51.3264 46.9731C51.3192 47.3441 51.3896 47.7125 51.5332 48.0548C51.6668 48.3521 51.8668 48.615 52.118 48.8233C52.3733 49.028 52.6665 49.1803 52.9809 49.2717C53.3197 49.3676 53.6699 49.4179 54.0221 49.4211C54.5058 49.4237 54.9869 49.3517 55.4485 49.2076C55.8142 49.094 56.152 48.9049 56.4397 48.6526C56.4437 48.6833 56.4437 48.7143 56.4397 48.745C56.4655 48.8726 56.4988 48.9986 56.5396 49.1222L56.5753 49.229H59.0143L58.8788 49.0012C58.7736 48.7981 58.7128 48.5749 58.7005 48.3465C58.6591 48.0233 58.64 47.6975 58.6434 47.3716V43.3724C58.6608 42.9442 58.5436 42.5212 58.3082 42.1627C58.0968 41.8571 57.8093 41.6118 57.4738 41.4511C57.1283 41.2811 56.7574 41.1682 56.3756 41.1166C55.5707 40.9905 54.7498 41.0073 53.9508 41.1664C53.5453 41.246 53.1568 41.3953 52.8026 41.6076C52.4547 41.8128 52.1612 42.0983 51.9468 42.4402C51.705 42.8329 51.5698 43.2817 51.5546 43.7424V43.9061H53.9009V43.7709C53.9012 43.6223 53.9325 43.4754 53.9926 43.3394C54.0528 43.2034 54.1405 43.0814 54.2503 42.981C54.5011 42.8091 54.8025 42.7264 55.1061 42.7462C55.2708 42.7469 55.4352 42.7588 55.5982 42.7818C55.7247 42.7993 55.8461 42.8429 55.9548 42.9099C56.0557 42.9717 56.1372 43.0604 56.1901 43.166C56.2615 43.3144 56.2934 43.4786 56.2829 43.6428C56.2923 43.7119 56.2849 43.7823 56.2613 43.8479C56.2377 43.9136 56.1986 43.9726 56.1473 44.02C56.0036 44.1307 55.8385 44.2107 55.6624 44.2548ZM54.7353 45.9129L55.2202 45.8417C55.3807 45.8237 55.5402 45.7976 55.6981 45.7634C55.8456 45.7357 55.9909 45.6976 56.1331 45.6496L56.2615 45.5997V46.105C56.2615 46.2188 56.2615 46.3683 56.2258 46.5675C56.2034 46.7534 56.1427 46.9327 56.0475 47.0941C55.9432 47.2782 55.7935 47.4325 55.6125 47.5424C55.3467 47.6803 55.0486 47.7442 54.7496 47.7275C54.6013 47.7242 54.4535 47.7099 54.3074 47.6848C54.1835 47.6616 54.0651 47.6158 53.9579 47.5495C53.863 47.486 53.7847 47.4006 53.7297 47.3005C53.6744 47.1726 53.6476 47.0342 53.6513 46.8949C53.6469 46.7509 53.6737 46.6077 53.7297 46.475C53.7857 46.3697 53.8635 46.2776 53.9579 46.2046C54.0625 46.1286 54.1779 46.0687 54.3003 46.0267C54.443 45.9806 54.5882 45.9425 54.7353 45.9129Z" fill="white"/>
<path d="M34.2389 49.108C34.565 48.9522 34.8505 48.7232 35.0733 48.4391V49.229H37.3198V41.2448H34.9734V45.4219C35.0168 45.9782 34.8953 46.535 34.624 47.023C34.4936 47.1802 34.3267 47.3032 34.1377 47.3813C33.9488 47.4595 33.7436 47.4904 33.54 47.4713C33.3681 47.4924 33.1937 47.4664 33.0354 47.3962C32.8771 47.3261 32.7409 47.2143 32.6414 47.0728C32.436 46.6582 32.3449 46.1964 32.3775 45.735V41.2448H30.0241V46.1192C30.0203 46.5661 30.0633 47.0121 30.1525 47.45C30.2242 47.8315 30.3775 48.1931 30.6018 48.5103C30.832 48.8121 31.1401 49.0458 31.4932 49.1863C31.9481 49.359 32.4331 49.4389 32.9195 49.4211C33.3771 49.4151 33.8276 49.3082 34.2389 49.108Z" fill="white"/>
<path d="M106.554 35.616H108.936V29.3467H110.362V27.6318H108.936V27.3613C108.913 27.1584 108.963 26.9539 109.078 26.7849C109.144 26.7277 109.221 26.6849 109.305 26.6591C109.388 26.6334 109.476 26.6254 109.563 26.6355C109.802 26.6357 110.04 26.65 110.276 26.6782H110.448V24.7925H110.305L109.777 24.7497H109.214C108.852 24.7235 108.488 24.7733 108.147 24.8958C107.805 25.0184 107.493 25.211 107.231 25.4613C106.783 25.9433 106.544 26.5831 106.568 27.2404V27.6816H105.341V29.3965H106.568L106.554 35.616Z" fill="white"/>
<path d="M46.698 34.9329C47.1344 35.2626 47.6309 35.5043 48.16 35.6445C49.3309 35.9465 50.5611 35.9342 51.7258 35.6089C52.2315 35.4648 52.704 35.223 53.1164 34.8973C53.5021 34.5952 53.8121 34.2079 54.0222 33.7659C54.2133 33.3158 54.3103 32.8315 54.3074 32.3427C54.3266 31.8012 54.1906 31.2655 53.9152 30.7985C53.6794 30.4217 53.3687 30.0972 53.0023 29.8449C52.6762 29.6196 52.318 29.4445 51.9397 29.3255C51.6117 29.2258 51.3335 29.1476 51.1338 29.1049C50.492 28.9412 49.9714 28.806 49.572 28.6921C49.2588 28.6127 48.9533 28.5056 48.6592 28.3719C48.5061 28.3122 48.3728 28.2112 48.2741 28.0801C48.2028 27.9494 48.1683 27.8019 48.1742 27.6532C48.1663 27.4835 48.2085 27.3153 48.2955 27.1693C48.3784 27.0366 48.4906 26.9246 48.6235 26.8419C48.7453 26.7522 48.8833 26.687 49.03 26.6498C49.4436 26.5603 49.8716 26.5603 50.2852 26.6498C50.4904 26.6888 50.6863 26.7661 50.8628 26.8775C51.0254 26.9901 51.1596 27.1387 51.2551 27.3116C51.3583 27.5353 51.4165 27.7771 51.4262 28.0232V28.1655H53.908V28.0161C53.9231 27.4498 53.8007 26.8883 53.5515 26.3794C53.3233 25.9386 52.9963 25.5562 52.5958 25.2622C52.1789 24.9718 51.7125 24.7596 51.2194 24.636C50.2336 24.3726 49.1957 24.3726 48.2099 24.636C47.7462 24.7609 47.3089 24.9682 46.919 25.2479C46.5395 25.5303 46.2237 25.8892 45.9919 26.3011C45.7434 26.7593 45.6204 27.2747 45.6354 27.7955C45.6225 28.2478 45.7178 28.6967 45.9135 29.1049C46.0854 29.4525 46.3283 29.7603 46.6267 30.0086C46.9369 30.2489 47.2804 30.443 47.6465 30.585C48.0171 30.7297 48.3957 30.8532 48.7804 30.955L49.9001 31.2539C50.2286 31.3303 50.5506 31.4326 50.8628 31.5599C51.1045 31.6532 51.325 31.7935 51.5118 31.9726C51.5873 32.0507 51.6459 32.1434 51.684 32.245C51.722 32.3466 51.7387 32.4549 51.7329 32.5633C51.7418 32.7669 51.6815 32.9675 51.5617 33.1325C51.4409 33.2853 51.2874 33.4093 51.1124 33.4955C50.9216 33.5891 50.7169 33.6515 50.5063 33.6805C50.0322 33.7626 49.546 33.7432 49.0799 33.6236C48.825 33.5636 48.5833 33.4575 48.3668 33.3104C48.1782 33.1632 48.0248 32.9761 47.9175 32.7625C47.7964 32.4995 47.7378 32.2121 47.7463 31.9228V31.7734H45.2502V31.9228C45.2277 32.5294 45.3525 33.1324 45.614 33.6805C45.8655 34.1813 46.238 34.6117 46.698 34.9329Z" fill="white"/>
<path d="M81.6144 34.6694C81.9714 35.0364 82.4014 35.3248 82.8767 35.5163C83.9403 35.9054 85.1078 35.9054 86.1715 35.5163C86.6498 35.3266 87.0824 35.038 87.4409 34.6694C87.802 34.29 88.079 33.8391 88.2539 33.3459C88.4518 32.796 88.5485 32.215 88.5392 31.6309C88.5479 31.0445 88.4513 30.4612 88.2539 29.9088C88.0848 29.4166 87.8112 28.9665 87.4518 28.5895C87.0924 28.2125 86.6557 27.9173 86.1715 27.7242C85.1095 27.3255 83.9386 27.3255 82.8767 27.7242C82.4024 27.9208 81.973 28.2113 81.6144 28.5781C81.2572 28.9631 80.9807 29.4156 80.8013 29.9088C80.6098 30.4625 80.5158 31.0452 80.5232 31.6309C80.5145 32.2144 80.6087 32.7949 80.8013 33.3459C80.9791 33.8377 81.2558 34.2882 81.6144 34.6694ZM83.7539 29.5103C83.9913 29.3722 84.2638 29.3054 84.5383 29.3182C84.8149 29.308 85.0889 29.3745 85.3299 29.5103C85.5378 29.637 85.7135 29.81 85.8434 30.0155C85.9744 30.236 86.0684 30.4764 86.1216 30.7272C86.1731 31.0161 86.1993 31.3089 86.2 31.6024C86.1996 31.8935 86.1734 32.1841 86.1216 32.4706C86.0684 32.7213 85.9744 32.9617 85.8434 33.1822C85.7185 33.3917 85.5416 33.5657 85.3299 33.6874C85.0869 33.8175 84.8139 33.8813 84.5383 33.8724C84.2627 33.8823 83.9893 33.8184 83.7467 33.6874C83.5402 33.5638 83.3685 33.39 83.2475 33.1822C83.1109 32.9645 83.0166 32.7231 82.9694 32.4706C82.9116 32.1848 82.8829 31.8939 82.8838 31.6024C82.8833 31.3086 82.912 31.0154 82.9694 30.7272C83.0166 30.4747 83.1109 30.2333 83.2475 30.0155C83.3646 29.8034 83.534 29.6246 83.7396 29.4961L83.7539 29.5103Z" fill="white"/>
<path d="M72.8069 34.6696C73.1617 35.0391 73.5922 35.328 74.0691 35.5164C74.5924 35.7165 75.1491 35.8155 75.7094 35.8082C76.272 35.8142 76.8307 35.7152 77.3568 35.5164C77.8382 35.3286 78.2736 35.0398 78.6334 34.6696C78.9923 34.2898 79.2668 33.8388 79.4393 33.346C79.6269 32.7942 79.7138 32.2134 79.696 31.631C79.7042 31.0446 79.6076 30.4615 79.4108 29.9089C79.2451 29.4149 78.9727 28.9631 78.6129 28.5856C78.2531 28.2081 77.8145 27.9141 77.3283 27.7243C76.2687 27.3261 75.1002 27.3261 74.0406 27.7243C73.5645 27.9175 73.1344 28.2084 72.7783 28.5782C72.4162 28.9596 72.1392 29.4131 71.9653 29.9089C71.7685 30.4615 71.6719 31.0446 71.6801 31.631C71.6714 32.2151 71.768 32.796 71.9653 33.346C72.1459 33.8431 72.4331 34.2948 72.8069 34.6696ZM74.9463 29.5104C75.1847 29.3745 75.4565 29.3079 75.7308 29.3183C76.0074 29.3081 76.2814 29.3746 76.5224 29.5104C76.7318 29.6353 76.9079 29.8086 77.0359 30.0157C77.1669 30.2361 77.2609 30.4765 77.3141 30.7273C77.3714 31.0155 77.4001 31.3087 77.3996 31.6025C77.4005 31.8941 77.3718 32.1849 77.3141 32.4707C77.2609 32.7215 77.1669 32.9618 77.0359 33.1823C76.9109 33.3918 76.7341 33.5658 76.5224 33.6876C76.2794 33.8176 76.0064 33.8814 75.7308 33.8726C75.4574 33.8825 75.1864 33.8186 74.9463 33.6876C74.7373 33.5649 74.563 33.391 74.44 33.1823C74.309 32.9618 74.215 32.7215 74.1619 32.4707C74.1076 32.1844 74.079 31.8939 74.0763 31.6025C74.0793 31.3089 74.108 31.016 74.1619 30.7273C74.2139 30.4762 74.3079 30.2356 74.44 30.0157C74.5595 29.8076 74.7254 29.6298 74.925 29.4962L74.9463 29.5104Z" fill="white"/>
<path d="M65.7394 31.4389C65.6927 30.8855 65.8119 30.3307 66.0817 29.8449C66.2112 29.6844 66.3788 29.5587 66.5694 29.4792C66.7599 29.3996 66.9673 29.3688 67.1728 29.3895C67.3435 29.3705 67.5162 29.3975 67.673 29.4676C67.8297 29.5376 67.9648 29.6483 68.0643 29.788C68.2719 30.2021 68.3654 30.6638 68.3353 31.1258V35.6161H70.6816V30.7416C70.6841 30.2951 70.6435 29.8495 70.5603 29.4109C70.4876 29.0306 70.3318 28.671 70.1039 28.3577C69.8768 28.0443 69.5687 27.7983 69.2125 27.6461C68.7586 27.469 68.2731 27.3867 67.7861 27.4041C67.3506 27.4108 66.9229 27.5206 66.5381 27.7243C66.2127 27.8942 65.9318 28.138 65.718 28.436V24.7142H63.3645V35.6161H65.718L65.7394 31.4389Z" fill="white"/>
<path d="M55.9548 34.6624C56.3045 35.0281 56.7273 35.3166 57.1957 35.5092C57.7033 35.7126 58.2462 35.8141 58.7932 35.8081C59.7109 35.8419 60.6101 35.5437 61.3249 34.9684C62.0242 34.3441 62.4558 33.4751 62.5301 32.5418V32.371H60.2552V32.4991C60.2192 32.8918 60.0594 33.263 59.7987 33.5594C59.5603 33.7631 59.2653 33.8894 58.953 33.9211C58.6407 33.9529 58.3262 33.8888 58.0515 33.7373C57.8534 33.6012 57.6898 33.4209 57.5737 33.2107C57.4507 32.9879 57.3618 32.7481 57.3098 32.4991C57.2538 32.2299 57.2252 31.9557 57.2242 31.6808C57.2252 31.3987 57.2538 31.1175 57.3098 30.8411C57.3636 30.577 57.4574 30.3226 57.5879 30.0867C57.7117 29.8715 57.8823 29.6867 58.0871 29.5459C58.2972 29.404 58.5467 29.3317 58.8003 29.3396C58.9696 29.3229 59.1405 29.3412 59.3025 29.3932C59.4644 29.4452 59.6139 29.5299 59.7416 29.6421C59.8694 29.7542 59.9727 29.8913 60.045 30.0449C60.1174 30.1985 60.1574 30.3654 60.1624 30.5351V30.6632H62.4588V30.4995C62.4372 30.0292 62.3105 29.5697 62.088 29.1545C61.8858 28.7799 61.6033 28.4543 61.2607 28.201C60.9194 27.9417 60.5323 27.7486 60.1196 27.6317C59.6907 27.5086 59.2466 27.4463 58.8003 27.4467C58.2246 27.4346 57.653 27.5463 57.1244 27.774C56.6459 27.9784 56.2194 28.2872 55.8763 28.6778C55.5271 29.0787 55.2627 29.5458 55.099 30.0512C54.9239 30.6034 54.8373 31.1798 54.8422 31.759C54.8364 32.3168 54.9306 32.8711 55.1204 33.3957C55.317 33.8661 55.6 34.2957 55.9548 34.6624Z" fill="white"/>
<path d="M91.9767 24.7069H89.6233V35.6159H91.9767V24.7069Z" fill="white"/>
<path d="M98.1598 34.6696C98.5169 35.0365 98.9468 35.3249 99.4221 35.5164C99.9456 35.7158 100.502 35.8148 101.062 35.8082C101.627 35.8148 102.188 35.7158 102.717 35.5164C103.196 35.3289 103.629 35.04 103.986 34.6696C104.345 34.2883 104.622 33.8379 104.799 33.346C104.994 32.7955 105.091 32.215 105.085 31.631C105.09 31.0449 104.993 30.4623 104.799 29.9089C104.623 29.4144 104.346 28.9615 103.986 28.5782C103.628 28.2075 103.196 27.9164 102.717 27.7243C102.19 27.519 101.628 27.4175 101.062 27.4254C100.501 27.4168 99.9439 27.5183 99.4221 27.7243C98.9397 27.9191 98.5048 28.2149 98.1467 28.5918C97.7887 28.9687 97.5159 29.4178 97.3468 29.9089C97.1528 30.4623 97.0563 31.0449 97.0615 31.631C97.0551 32.215 97.1517 32.7955 97.3468 33.346C97.5217 33.8392 97.7987 34.2902 98.1598 34.6696ZM100.299 29.5104C100.538 29.3745 100.809 29.308 101.084 29.3183C101.363 29.3083 101.639 29.3747 101.882 29.5104C102.09 29.6355 102.263 29.8089 102.389 30.0157C102.523 30.2348 102.617 30.4757 102.667 30.7273C102.724 31.0155 102.753 31.3087 102.753 31.6026C102.753 31.8941 102.725 32.185 102.667 32.4707C102.617 32.7224 102.523 32.9632 102.389 33.1823C102.268 33.3924 102.093 33.5667 101.882 33.6876C101.637 33.8176 101.362 33.8813 101.084 33.8726C100.81 33.8815 100.54 33.8177 100.299 33.6876C100.093 33.5639 99.9211 33.3901 99.8001 33.1823C99.6635 32.9646 99.5691 32.7232 99.5219 32.4707C99.4641 32.185 99.4355 31.8941 99.4363 31.6026C99.4359 31.3087 99.4645 31.0155 99.5219 30.7273C99.5698 30.4761 99.6615 30.2353 99.7929 30.0157C99.9124 29.8076 100.078 29.6298 100.278 29.4962L100.299 29.5104Z" fill="white"/>
</svg>
