<svg width="134" height="56" viewBox="0 0 134 56" fill="none" xmlns="http://www.w3.org/2000/svg">
<path d="M94.5883 54.5347H95.2275V50.286H96.8174V49.7543H92.993V50.286H94.5883V54.5347Z" fill="white"/>
<path d="M97.2526 54.5347H97.8219V52.5796C97.8068 52.4389 97.8226 52.2967 97.8681 52.1628C97.9136 52.0289 97.9878 51.9065 98.0855 51.8043C98.1831 51.702 98.302 51.6222 98.4336 51.5706C98.5653 51.519 98.7067 51.4967 98.8478 51.5053C98.9413 51.4973 99.0354 51.5097 99.1237 51.5415C99.212 51.5734 99.2923 51.6239 99.3591 51.6898C99.426 51.7556 99.4778 51.8351 99.511 51.9229C99.5442 52.0107 99.558 52.1046 99.5515 52.1982V54.5454H100.115V52.268C100.115 51.5268 99.8361 51.0004 98.9284 51.0004C98.712 50.9887 98.4967 51.0379 98.3069 51.1423C98.117 51.2467 97.9602 51.4023 97.8541 51.5912V49.765H97.2848V54.5454L97.2526 54.5347Z" fill="white"/>
<path d="M101.576 49.7543H101.007V50.4472H101.576V49.7543ZM101.007 54.5347H101.576V51.0702H101.007V54.5347Z" fill="white"/>
<path d="M102.457 54.5346H103.027V52.5795C103.012 52.4391 103.029 52.2972 103.075 52.1637C103.121 52.0302 103.195 51.9083 103.292 51.8062C103.39 51.7041 103.508 51.6244 103.639 51.5724C103.771 51.5205 103.912 51.4975 104.053 51.5052C104.146 51.4972 104.24 51.5096 104.328 51.5415C104.417 51.5733 104.497 51.6239 104.564 51.6897C104.631 51.7555 104.683 51.8351 104.716 51.9228C104.749 52.0106 104.763 52.1045 104.756 52.1981V54.5454H105.326V52.2679C105.326 51.5267 105.041 51.0003 104.133 51.0003C103.905 50.9883 103.678 51.041 103.479 51.1521C103.279 51.2633 103.115 51.4285 103.005 51.6288V51.0916H102.468V54.5561L102.457 54.5346Z" fill="white"/>
<path d="M106.212 54.5347H106.781V53.2188L107.318 52.7246L108.5 54.5347H109.225L107.753 52.3325L109.123 51.0702H108.36L106.781 52.585V49.7543H106.212V54.5347Z" fill="white"/>
<path d="M112.238 50.286H113.485C114.199 50.286 114.559 50.5976 114.559 51.1615C114.559 51.7255 114.226 52.0478 113.485 52.0424H112.238V50.286ZM111.589 54.5347H112.222V52.5796H113.683C114.058 52.5796 114.417 52.4307 114.682 52.1658C114.947 51.9009 115.096 51.5416 115.096 51.1669C115.096 50.7923 114.947 50.433 114.682 50.168C114.417 49.9031 114.058 49.7543 113.683 49.7543H111.589V54.5347Z" fill="white"/>
<path d="M116.261 52.4667C116.261 52.2032 116.366 51.9505 116.553 51.7641C116.739 51.5778 116.992 51.4731 117.255 51.4731C117.519 51.4731 117.771 51.5778 117.958 51.7641C118.144 51.9505 118.249 52.2032 118.249 52.4667H116.261ZM118.238 53.4336C118.2 53.638 118.087 53.8209 117.921 53.9461C117.755 54.0714 117.548 54.1299 117.341 54.1103C117.192 54.1192 117.043 54.0953 116.904 54.0403C116.765 53.9853 116.64 53.9005 116.538 53.7919C116.436 53.6834 116.358 53.5536 116.311 53.4119C116.264 53.2702 116.249 53.1199 116.267 52.9716H118.861C118.893 52.1337 118.517 50.9896 117.293 50.9896C117.067 50.9962 116.845 51.0486 116.64 51.1438C116.435 51.239 116.251 51.3749 116.101 51.5432C115.95 51.7116 115.835 51.9088 115.763 52.123C115.691 52.3372 115.663 52.5638 115.681 52.789C115.714 53.8633 116.219 54.6099 117.341 54.6099C117.691 54.6357 118.037 54.529 118.312 54.3111C118.587 54.0932 118.769 53.78 118.824 53.4336H118.238Z" fill="white"/>
<path d="M119.855 52.8051C119.855 51.9618 120.338 51.4945 120.929 51.4945C121.52 51.4945 122.003 51.9618 122.003 52.8051C122.003 53.6484 121.52 54.1103 120.929 54.1103C120.338 54.1103 119.855 53.643 119.855 52.8051ZM119.253 52.8051C119.24 53.0335 119.274 53.2622 119.353 53.4771C119.431 53.692 119.553 53.8886 119.71 54.0548C119.867 54.2211 120.057 54.3536 120.267 54.4441C120.477 54.5346 120.703 54.5813 120.932 54.5813C121.161 54.5813 121.387 54.5346 121.597 54.4441C121.807 54.3536 121.997 54.2211 122.154 54.0548C122.311 53.8886 122.432 53.692 122.511 53.4771C122.59 53.2622 122.623 53.0335 122.61 52.8051C122.61 51.7846 122.03 50.9896 120.935 50.9896C120.7 50.9821 120.467 51.025 120.25 51.1154C120.034 51.2059 119.839 51.3418 119.68 51.5139C119.52 51.6861 119.4 51.8904 119.326 52.1132C119.253 52.3359 119.228 52.5719 119.253 52.8051Z" fill="white"/>
<path d="M123.303 55.8559H123.873V54.0673C124 54.2418 124.169 54.382 124.364 54.4757C124.559 54.5694 124.774 54.6136 124.99 54.6045C126.064 54.6045 126.574 53.7826 126.574 52.8051C126.574 51.8275 126.037 50.9842 124.963 50.9842C124.747 50.9617 124.529 51 124.333 51.0949C124.138 51.1898 123.972 51.3375 123.856 51.5213V51.054H123.287V55.8399L123.303 55.8559ZM125.989 52.7675C125.989 53.4442 125.731 54.1103 124.952 54.1103C124.173 54.1103 123.878 53.4818 123.878 52.7997C123.878 52.1175 124.173 51.4945 124.952 51.4945C125.731 51.4945 126.026 52.1229 126.026 52.7675H125.989Z" fill="white"/>
<path d="M127.283 54.5347H127.853V49.7543H127.283V54.5347Z" fill="white"/>
<path d="M129.147 52.4667C129.166 52.2151 129.279 51.9798 129.464 51.8081C129.648 51.6363 129.891 51.5409 130.144 51.5409C130.396 51.5409 130.639 51.6363 130.824 51.8081C131.008 51.9798 131.121 52.2151 131.14 52.4667H129.147ZM131.124 53.4336C131.086 53.638 130.973 53.8209 130.807 53.9461C130.641 54.0714 130.434 54.1299 130.227 54.1103C130.078 54.1183 129.929 54.0938 129.791 54.0384C129.653 53.9831 129.528 53.8983 129.426 53.7899C129.324 53.6815 129.246 53.5522 129.199 53.4109C129.152 53.2696 129.136 53.1197 129.153 52.9716H131.747C131.779 52.1337 131.403 50.9896 130.179 50.9896C129.953 50.9962 129.73 51.0486 129.525 51.1438C129.321 51.239 129.137 51.3749 128.986 51.5432C128.836 51.7116 128.721 51.9088 128.649 52.123C128.577 52.3372 128.549 52.5638 128.567 52.789C128.599 53.8633 129.104 54.6099 130.227 54.6099C130.577 54.6357 130.923 54.529 131.198 54.3111C131.472 54.0932 131.655 53.78 131.709 53.4336H131.124Z" fill="white"/>
<path d="M85.6075 0H133.052V47.4446H85.6075V0Z" fill="white"/>
<path d="M23.0697 47.4446H133.047V47.7561H23.0697V47.4446Z" fill="white"/>
<path d="M0 47.4446H109.977V47.7561H0V47.4446Z" fill="white"/>
<path d="M85.6022 47.4124H89.5071V39.957C89.5071 37.0673 90.4202 35.8802 92.5365 35.8802C94.352 35.8802 95.0395 37.0404 95.0395 39.3769V47.4339H98.9498V38.6626C98.9498 35.139 97.8756 32.7971 93.745 32.7971C92.9101 32.8134 92.0926 33.0388 91.3673 33.4526C90.642 33.8664 90.032 34.4554 89.593 35.1659H89.5071V19.2185H85.6022V47.4124Z" fill="#252121"/>
<path d="M98.8961 41.0258H102.801V32.7701C102.801 29.9932 104.676 29.4937 105.444 29.4937C107.92 29.4937 107.812 31.3951 107.812 33.0441V41.0258H111.717V33.0978C111.717 31.3092 112.131 29.4937 114.333 29.4937C116.535 29.4937 116.729 31.0621 116.729 32.9635V41.0204H120.634V31.5025C120.634 27.8178 118.485 26.4159 115.434 26.4159C114.578 26.4226 113.737 26.6421 112.987 27.0547C112.237 27.4673 111.601 28.0599 111.137 28.7793C110.364 27.0712 108.769 26.4159 106.98 26.4159C106.12 26.4053 105.271 26.6113 104.512 27.015C103.752 27.4186 103.107 28.0069 102.635 28.7256H102.575V26.7973H98.8907V41.0258H98.8961Z" fill="#252121"/>
<path d="M120.134 29.8859C120.295 33.6458 123.518 34.8919 126.816 34.8919C130.114 34.8919 133.31 33.6834 133.31 29.9396C133.31 27.2969 131.081 26.4751 128.798 25.9487C126.515 25.4223 124.367 25.2343 124.367 23.8324C124.367 22.6722 125.661 22.5111 126.515 22.5111C127.923 22.5111 129.077 22.9193 129.201 24.434H132.918C132.612 20.9427 129.754 19.8953 126.644 19.8953C123.534 19.8953 120.451 20.8299 120.451 24.4609C120.451 26.9692 122.707 27.7642 124.963 28.2637C127.772 28.8653 129.394 29.2789 129.394 30.4606C129.394 31.841 127.96 32.2814 126.838 32.2814C125.296 32.2814 123.862 31.5886 123.835 29.8859H120.134Z" fill="#252121"/>
<path d="M23.4135 41.4127H21.6464V47.4393H23.4135V41.4127Z" fill="white"/>
<path d="M23.4135 39.205H21.6464V40.7465H23.4135V39.205Z" fill="white"/>
<path d="M13.772 42.1377C13.5037 41.8562 13.1775 41.6362 12.8159 41.4931C12.4193 41.3364 11.9962 41.258 11.5698 41.2622C11.1468 41.2573 10.727 41.3358 10.3344 41.4931C9.97471 41.6369 9.65039 41.8568 9.38367 42.1377C9.11173 42.4241 8.90311 42.7645 8.77135 43.1367C8.62227 43.5555 8.54949 43.9975 8.55649 44.442C8.54996 44.8828 8.62274 45.3213 8.77135 45.7365C8.9032 46.1071 9.11186 46.4457 9.38367 46.7301C9.64875 47.0117 9.97365 47.2301 10.3344 47.3693C10.7287 47.5199 11.1478 47.5946 11.5698 47.5896C11.9953 47.5945 12.4179 47.5198 12.8159 47.3693C13.1783 47.2301 13.5049 47.0118 13.772 46.7301C14.0421 46.4444 14.2505 46.1062 14.3843 45.7365C14.5304 45.3207 14.6031 44.8826 14.5992 44.442C14.6031 43.9978 14.5304 43.5563 14.3843 43.1367C14.2505 42.7655 14.0421 42.4255 13.772 42.1377ZM12.1606 46.0319C11.9771 46.1343 11.7691 46.1845 11.559 46.1769C11.3532 46.1836 11.1493 46.1354 10.9682 46.0373C10.8133 45.9414 10.6827 45.8108 10.5868 45.6559C10.4898 45.4887 10.4192 45.3075 10.3774 45.1188C10.3388 44.9024 10.3191 44.6832 10.3183 44.4635C10.3191 44.2402 10.3388 44.0174 10.3774 43.7974C10.4161 43.6078 10.4869 43.4261 10.5868 43.2603C10.684 43.1049 10.8142 42.9729 10.9682 42.8736C11.1477 42.771 11.3524 42.7207 11.559 42.7285C11.7564 42.719 11.9526 42.7641 12.1261 42.8588C12.2995 42.9536 12.4434 43.0944 12.542 43.2657C12.6463 43.4293 12.7175 43.6118 12.7515 43.8028C12.7947 44.0222 12.8163 44.2453 12.8159 44.4688C12.816 44.6889 12.7944 44.9083 12.7515 45.1241C12.7119 45.3135 12.6411 45.4951 12.542 45.6613C12.4512 45.8109 12.3236 45.9347 12.1714 46.0211L12.1606 46.0319Z" fill="white"/>
<path d="M19.2453 45.0866C19.2183 45.3814 19.0978 45.6599 18.9016 45.8815C18.7239 46.0389 18.5013 46.1365 18.2652 46.1606C18.0291 46.1847 17.7914 46.134 17.5856 46.0158C17.4365 45.9152 17.3132 45.7809 17.2257 45.6237C17.1344 45.455 17.0675 45.2741 17.027 45.0866C16.9849 44.8852 16.9633 44.68 16.9626 44.4743C16.9631 44.2614 16.9846 44.0491 17.027 43.8405C17.0657 43.6406 17.1365 43.4484 17.2365 43.2711C17.3293 43.1069 17.4578 42.9656 17.6125 42.8575C17.7612 42.7605 17.9322 42.7029 18.1093 42.6901C18.2864 42.6774 18.4639 42.7098 18.625 42.7845C18.7861 42.8591 18.9256 42.9735 19.0304 43.1169C19.1351 43.2603 19.2017 43.4279 19.2239 43.6041V43.7008H20.9534V43.5826C20.9396 43.2263 20.846 42.8775 20.6795 42.5621C20.5223 42.2811 20.3083 42.036 20.051 41.8423C19.7921 41.6497 19.5011 41.5042 19.1916 41.4127C18.8686 41.3197 18.5341 41.2727 18.1979 41.273C17.7646 41.2671 17.3348 41.3512 16.9357 41.5201C16.5739 41.6744 16.2524 41.9096 15.9957 42.2076C15.7287 42.4988 15.5224 42.8402 15.3888 43.212C15.2569 43.627 15.1916 44.0603 15.1954 44.4958C15.1895 44.9173 15.2624 45.3363 15.4103 45.7312C15.542 46.0918 15.7448 46.4224 16.0065 46.7034C16.269 46.9804 16.5876 47.1983 16.9411 47.3425C17.3234 47.496 17.7323 47.5727 18.1442 47.5681C18.835 47.5967 19.5126 47.3734 20.051 46.9397C20.5774 46.4654 20.9038 45.8087 20.9642 45.1027V44.9792H19.2453V45.0866Z" fill="white"/>
<path d="M7.12773 43.0562C6.87608 42.8892 6.6009 42.7606 6.31129 42.6748C6.0481 42.5996 5.84399 42.5406 5.70434 42.5137L4.52265 42.2022C4.28776 42.1389 4.05794 42.0581 3.83513 41.9604C3.7203 41.912 3.62026 41.8342 3.54508 41.7349C3.49329 41.6356 3.46917 41.5243 3.47525 41.4126C3.46799 41.2844 3.49984 41.157 3.56657 41.0473C3.62845 40.9485 3.71089 40.8643 3.80827 40.8003C3.9106 40.7352 4.02321 40.688 4.1413 40.6606C4.45461 40.5931 4.7787 40.5931 5.09201 40.6606C5.24689 40.6918 5.39449 40.752 5.52708 40.8379C5.65026 40.9204 5.75014 41.0332 5.81714 41.1655C5.89979 41.3329 5.94558 41.516 5.95142 41.7026V41.8101H7.826V41.6919C7.83606 41.2646 7.74399 40.841 7.55744 40.4565C7.38355 40.125 7.13538 39.8382 6.83231 39.6186C6.52217 39.3961 6.172 39.2356 5.80102 39.1459C5.05635 38.9499 4.27364 38.9499 3.52897 39.1459C3.17992 39.2432 2.85079 39.4014 2.55676 39.6132C2.27115 39.8244 2.03324 40.0935 1.8585 40.4028C1.6743 40.7497 1.58185 41.138 1.58994 41.5307C1.57837 41.8499 1.64184 42.1672 1.77524 42.4574C1.90864 42.7475 2.10825 43.0023 2.35803 43.2012C2.5928 43.3823 2.85123 43.5305 3.12612 43.6417C3.40748 43.7483 3.69435 43.8397 3.98553 43.9156C4.27557 44.0015 4.56025 44.0767 4.82344 44.1412C5.07042 44.2005 5.31277 44.2777 5.54857 44.3721C5.73016 44.4433 5.89617 44.5491 6.03736 44.6837C6.09424 44.7426 6.13837 44.8126 6.16702 44.8893C6.19567 44.966 6.20821 45.0477 6.20387 45.1295C6.2105 45.2824 6.16713 45.4332 6.08033 45.5592C5.98992 45.6773 5.87186 45.7714 5.73656 45.8331C5.59396 45.903 5.44199 45.9519 5.28538 45.9782C4.92799 46.0354 4.56279 46.0208 4.21112 45.9352C4.02683 45.8888 3.85346 45.8067 3.70085 45.6935C3.55305 45.587 3.43475 45.4447 3.35709 45.2799C3.2653 45.0816 3.22115 44.8645 3.22817 44.6461V44.5333H1.3536V44.6461C1.3368 45.1056 1.43075 45.5625 1.62753 45.9782C1.80874 46.3413 2.07166 46.6576 2.39563 46.902C2.71634 47.1477 3.08093 47.33 3.46989 47.4392C3.8854 47.5486 4.31319 47.6046 4.74288 47.6057C5.22819 47.6118 5.71165 47.5448 6.17701 47.4069C6.55827 47.299 6.91429 47.1164 7.22441 46.8698C7.50271 46.6391 7.7234 46.3467 7.86896 46.0158C8.0156 45.6768 8.08883 45.3107 8.08382 44.9415C8.10116 44.5308 7.99851 44.1239 7.7884 43.7706C7.61669 43.4918 7.39229 43.2491 7.12773 43.0562Z" fill="white"/>
<path d="M82.2613 44.2326C82.0776 44.0976 81.8749 43.9908 81.6597 43.9157C81.4395 43.8405 81.2139 43.776 80.9883 43.7223L80.3491 43.5773C80.1673 43.5396 79.988 43.4912 79.812 43.4322C79.6803 43.3898 79.5582 43.3223 79.4521 43.2335C79.4155 43.2003 79.3865 43.1596 79.367 43.1142C79.3475 43.0688 79.3381 43.0197 79.3393 42.9703C79.3353 42.8934 79.3581 42.8175 79.4037 42.7555C79.4482 42.6998 79.5053 42.6556 79.5703 42.6265C79.6472 42.5932 79.7286 42.5714 79.812 42.5621C80.1299 42.5073 80.457 42.5543 80.7466 42.6964C80.8362 42.7531 80.909 42.8329 80.9572 42.9274C81.0054 43.0219 81.0273 43.1276 81.0205 43.2335V43.3356H82.7178V43.212C82.6984 42.8806 82.6008 42.5586 82.4332 42.272C82.2843 42.0276 82.0801 41.8215 81.8369 41.6705C81.5926 41.5153 81.321 41.4077 81.0366 41.3535C80.4357 41.2327 79.8167 41.2327 79.2158 41.3535C78.9265 41.4056 78.6485 41.5074 78.394 41.6543C78.1482 41.8044 77.9434 42.0129 77.7977 42.2613C77.6355 42.5609 77.5558 42.8983 77.5668 43.2389C77.5604 43.4845 77.6198 43.7274 77.7387 43.9425C77.8453 44.1315 77.9942 44.2933 78.1737 44.4152C78.357 44.5422 78.5579 44.6417 78.7699 44.7106C78.9848 44.7804 79.2104 44.8449 79.4414 44.8986C79.8722 44.9847 80.296 45.1032 80.709 45.2531C80.9722 45.3552 81.1011 45.4948 81.1011 45.6828C81.1062 45.7856 81.0779 45.8874 81.0205 45.9729C80.9675 46.0501 80.8977 46.1143 80.8164 46.1609C80.724 46.2128 80.6245 46.2508 80.521 46.2737C80.2811 46.3333 80.0303 46.3333 79.7905 46.2737C79.6695 46.2418 79.555 46.1891 79.4521 46.1179C79.3589 46.0458 79.2805 45.9564 79.2211 45.8547C79.1596 45.7334 79.1301 45.5985 79.1352 45.4626V45.3498H77.4325V45.468C77.4351 45.8277 77.5294 46.1807 77.7064 46.4939C77.8639 46.7583 78.0786 46.9841 78.3349 47.1546C78.6025 47.3206 78.8969 47.4387 79.205 47.5037C79.528 47.573 79.8576 47.6072 80.188 47.6057C80.5109 47.606 80.833 47.5736 81.1494 47.5091C81.4551 47.4501 81.7468 47.3335 82.0088 47.1653C82.2631 46.9959 82.4746 46.7697 82.6265 46.5046C82.7925 46.1907 82.874 45.839 82.8629 45.4841C82.8718 45.2467 82.8221 45.0107 82.7181 44.7971C82.6141 44.5835 82.4591 44.3988 82.2667 44.2594L82.2613 44.2326Z" fill="white"/>
<path d="M41.9122 43.0562C41.6678 42.8873 41.4 42.7552 41.1172 42.6641C40.8541 42.5889 40.6499 42.5298 40.5049 42.503L39.3286 42.1914C39.093 42.1306 38.8629 42.0498 38.6411 41.9498C38.5253 41.903 38.4249 41.8248 38.351 41.7241C38.2974 41.6255 38.2714 41.5141 38.2758 41.4019C38.2714 41.274 38.303 41.1474 38.3671 41.0366C38.4326 40.939 38.5166 40.855 38.6142 40.7895C38.716 40.7236 38.8288 40.6763 38.9472 40.6499C39.2587 40.5823 39.5811 40.5823 39.8926 40.6499C40.0478 40.6801 40.1956 40.7403 40.3277 40.8271C40.4538 40.9078 40.5559 41.021 40.6231 41.1548C40.7045 41.3223 40.7485 41.5056 40.752 41.6919V41.7993H42.6212V41.6812C42.6345 41.2536 42.5422 40.8293 42.3526 40.4458C42.1806 40.1146 41.9343 39.8279 41.6329 39.6078C41.3213 39.3844 40.9692 39.2238 40.5962 39.1352C39.8534 38.9392 39.0724 38.9392 38.3295 39.1352C37.98 39.2313 37.6507 39.3896 37.3573 39.6025C37.0717 39.8138 36.8338 40.0828 36.6591 40.3921C36.4723 40.7381 36.3797 41.127 36.3905 41.52C36.3808 41.8614 36.4526 42.2002 36.6 42.5084C36.728 42.7716 36.9112 43.0043 37.1371 43.1905C37.3706 43.3736 37.6293 43.5219 37.9052 43.631C38.1863 43.7384 38.4732 43.8298 38.7646 43.9049C39.0493 43.9908 39.334 44.066 39.6025 44.1305C39.8497 44.189 40.0921 44.2662 40.3277 44.3615C40.5086 44.4339 40.6744 44.5396 40.8165 44.673C40.8733 44.7319 40.9175 44.8019 40.9461 44.8786C40.9748 44.9553 40.9873 45.037 40.983 45.1188C40.9905 45.2726 40.945 45.4243 40.854 45.5485C40.7645 45.6653 40.6486 45.7592 40.5157 45.8224C40.3715 45.8932 40.2177 45.9421 40.0591 45.9675C39.7017 46.0245 39.3365 46.0099 38.9848 45.9245C38.8014 45.8759 38.6284 45.794 38.4746 45.6828C38.3301 45.5742 38.214 45.4323 38.1362 45.2692C38.0438 45.0711 37.9996 44.8539 38.0073 44.6354V44.5226H36.1273V44.6354C36.1109 45.0949 36.2049 45.5517 36.4013 45.9675C36.5827 46.3289 36.8434 46.6447 37.164 46.8913C37.4953 47.139 37.8708 47.3213 38.2705 47.4284C38.6859 47.5382 39.1137 47.5942 39.5435 47.5949C40.027 47.6018 40.5088 47.5348 40.9722 47.3962C41.3622 47.2897 41.7273 47.1072 42.0465 46.8591C42.3248 46.6284 42.5455 46.336 42.691 46.0051C42.8357 45.6655 42.9088 45.2999 42.9059 44.9308C42.9214 44.5203 42.8189 44.1139 42.6105 43.7599C42.4266 43.4814 42.1893 43.2422 41.9122 43.0562Z" fill="white"/>
<path d="M51.5643 41.4127H49.7917V47.4393H51.5643V41.4127Z" fill="white"/>
<path d="M47.3908 45.0866C47.3637 45.3814 47.2433 45.6599 47.047 45.8815C46.9464 45.9806 46.8259 46.0572 46.6935 46.1062C46.5611 46.1553 46.4198 46.1757 46.2789 46.1662C46.089 46.1703 45.9021 46.1179 45.7418 46.0158C45.5899 45.9168 45.4645 45.7822 45.3766 45.6237C45.2845 45.4553 45.2175 45.2744 45.1778 45.0866C45.1384 44.8848 45.1168 44.6799 45.1134 44.4743C45.1165 44.2615 45.138 44.0495 45.1778 43.8405C45.2166 43.6406 45.2873 43.4484 45.3873 43.2711C45.4788 43.1059 45.6075 42.9643 45.7633 42.8575C45.911 42.7665 46.0791 42.7138 46.2523 42.7042C46.4256 42.6946 46.5985 42.7284 46.7553 42.8026C46.9122 42.8767 47.048 42.9889 47.1506 43.1289C47.2531 43.2688 47.3191 43.4322 47.3425 43.6041V43.7008H49.072V43.5826C49.0563 43.2259 48.9609 42.8771 48.7927 42.5621C48.6395 42.2816 48.429 42.0364 48.175 41.8423C47.9141 41.6497 47.6214 41.5043 47.3102 41.4127C46.9872 41.3197 46.6527 41.2727 46.3165 41.273C45.8832 41.2671 45.4534 41.3512 45.0543 41.5201C44.6945 41.6777 44.3736 41.9124 44.1143 42.2076C43.8569 42.5011 43.6598 42.8424 43.5342 43.212C43.4023 43.627 43.3371 44.0603 43.3409 44.4958C43.3355 44.9173 43.4083 45.3362 43.5557 45.7312C43.6888 46.0912 43.8914 46.4215 44.1519 46.7034C44.4145 46.9804 44.7331 47.1983 45.0865 47.3425C45.4689 47.496 45.8777 47.5727 46.2897 47.5681C46.9799 47.6074 47.661 47.3957 48.2072 46.9719C48.7338 46.4984 49.0587 45.8409 49.115 45.1349V45.0114H47.3962L47.3908 45.0866Z" fill="white"/>
<path d="M51.5643 39.205H49.7917V40.7465H51.5643V39.205Z" fill="white"/>
<path d="M63.8484 41.9551C63.6774 41.7185 63.4454 41.5329 63.177 41.4179C62.836 41.2808 62.4701 41.2168 62.1028 41.23C61.7523 41.234 61.4072 41.3166 61.093 41.4717C60.8471 41.6032 60.6327 41.7864 60.4645 42.0088V41.4126H58.7887V47.4338H60.5612V44.2862C60.5274 43.8679 60.619 43.449 60.8244 43.0831C60.9217 42.9633 61.0473 42.8697 61.1898 42.8106C61.3324 42.7515 61.4874 42.7289 61.6408 42.7447C61.7698 42.7288 61.9006 42.7478 62.0197 42.7998C62.1387 42.8517 62.2416 42.9347 62.3176 43.0401C62.4716 43.3552 62.5401 43.7053 62.5164 44.0553V47.4392H64.2889V43.7491C64.2913 43.4119 64.2589 43.0753 64.1922 42.7447C64.1348 42.4601 64.0176 42.191 63.8484 41.9551Z" fill="white"/>
<path d="M57.4781 42.3579C57.2421 42.0206 56.9291 41.7444 56.565 41.5522C56.1615 41.3455 55.713 41.2421 55.2597 41.2514C54.8423 41.2482 54.4288 41.3324 54.0458 41.4985C53.6902 41.6563 53.3704 41.8847 53.1059 42.1699C52.8378 42.4634 52.6298 42.8064 52.4935 43.1797C52.3492 43.5811 52.2764 44.0047 52.2787 44.4313C52.2738 44.8628 52.3447 45.2918 52.4882 45.6989C52.6179 46.0689 52.8186 46.4101 53.079 46.7033C53.342 46.9874 53.6649 47.2094 54.0243 47.3532C54.4174 47.5087 54.8371 47.5854 55.2597 47.5788C55.8579 47.5971 56.4477 47.4342 56.9517 47.1115C57.4807 46.7361 57.861 46.1866 58.026 45.5592L58.0743 45.4142H56.4629V45.4948C56.3988 45.6839 56.2693 45.8439 56.0977 45.946C55.8818 46.0954 55.6242 46.1724 55.3618 46.1662C55.1945 46.1777 55.0265 46.1556 54.8678 46.1011C54.7092 46.0467 54.563 45.961 54.4379 45.8492C54.2217 45.5897 54.1021 45.2632 54.0995 44.9254H58.1387V44.8233C58.1723 44.3779 58.1342 43.93 58.026 43.4967C57.9203 43.0846 57.7341 42.6976 57.4781 42.3579ZM54.6582 42.7984C54.825 42.7161 55.0093 42.6756 55.1953 42.6802C55.3342 42.6691 55.4739 42.6883 55.6047 42.7365C55.7355 42.7848 55.8542 42.8609 55.9526 42.9595C56.1227 43.1695 56.2372 43.4188 56.2857 43.6846H54.0619C54.0619 43.6148 54.0942 43.5396 54.1157 43.4537C54.1565 43.3202 54.2201 43.1948 54.3037 43.0831C54.3986 42.9646 54.5176 42.8675 54.6528 42.7984H54.6582Z" fill="white"/>
<path d="M32.4587 39.205H30.6862V47.4391H32.4587V39.205Z" fill="white"/>
<path d="M29.7194 46.7679C29.6882 46.5239 29.6738 46.278 29.6764 46.032V43.0187C29.6909 42.6953 29.6025 42.3756 29.4239 42.1056C29.2635 41.8761 29.0472 41.6913 28.7955 41.5685C28.5352 41.4402 28.2559 41.3549 27.9683 41.316C27.3619 41.2235 26.7441 41.2363 26.1421 41.3536C25.8367 41.4137 25.5441 41.5264 25.2773 41.6866C25.0164 41.843 24.7956 42.0582 24.6328 42.3151C24.4509 42.6133 24.3509 42.9542 24.3427 43.3034V43.4216H26.1045V43.3195C26.1047 43.2074 26.1283 43.0964 26.1736 42.9938C26.2189 42.8912 26.285 42.7991 26.3677 42.7233C26.5569 42.5943 26.7837 42.5319 27.0122 42.5461C27.1356 42.5377 27.2595 42.5377 27.3828 42.5461C27.4781 42.5593 27.5696 42.5922 27.6514 42.6427C27.7256 42.6916 27.7865 42.758 27.8287 42.8361C27.8819 42.9482 27.906 43.072 27.8985 43.196C27.9056 43.2481 27.9 43.3012 27.8823 43.3508C27.8645 43.4004 27.8351 43.4449 27.7964 43.4807C27.6901 43.5661 27.5649 43.6251 27.4312 43.6525C27.2404 43.6987 27.0465 43.731 26.8511 43.7492C26.6148 43.7761 26.3838 43.8029 26.1582 43.8405C25.9209 43.879 25.686 43.9311 25.4546 43.9963C25.2254 44.0579 25.0089 44.1598 24.8154 44.2971C24.6196 44.4385 24.458 44.622 24.3427 44.8342C24.2289 45.1008 24.1703 45.3877 24.1703 45.6775C24.1703 45.9674 24.2289 46.2542 24.3427 46.5208C24.4373 46.7473 24.5868 46.9467 24.7778 47.1009C24.9701 47.2554 25.1909 47.3703 25.4277 47.4393C25.683 47.5099 25.947 47.5443 26.2119 47.5413C26.5762 47.5434 26.9385 47.4891 27.2862 47.3802C27.5622 47.2957 27.8168 47.1528 28.0328 46.9612V47.0311C28.0503 47.1273 28.0737 47.2224 28.1026 47.3158L28.1295 47.3963H29.945L29.8375 47.2244C29.7696 47.0811 29.7295 46.9262 29.7194 46.7679ZM27.9039 44.6946V45.0759C27.9099 45.1922 27.9099 45.3088 27.9039 45.4251C27.8864 45.5669 27.8407 45.7039 27.7696 45.8279C27.6907 45.9652 27.5779 46.0798 27.4419 46.1609C27.2435 46.2645 27.0209 46.3128 26.7974 46.3006C26.6838 46.301 26.5704 46.2902 26.459 46.2684C26.3657 46.2509 26.2765 46.2163 26.1958 46.1663C26.123 46.1214 26.0651 46.056 26.0293 45.9783C25.983 45.8831 25.9608 45.778 25.9648 45.6722C25.9604 45.5629 25.9825 45.4541 26.0293 45.3552C26.0695 45.276 26.1263 45.2064 26.1958 45.1511C26.2761 45.0944 26.365 45.0509 26.459 45.0222C26.5651 44.9829 26.6749 44.9541 26.7866 44.9363C26.9048 44.9094 27.023 44.8933 27.1465 44.8772L27.5064 44.8235C27.6189 44.7987 27.73 44.7683 27.8394 44.7322L27.9039 44.6946Z" fill="white"/>
<path d="M69.107 45.0867C69.0774 45.3808 68.9573 45.6586 68.7632 45.8816C68.5855 46.0389 68.3629 46.1366 68.1268 46.1606C67.8907 46.1847 67.653 46.1341 67.4472 46.0159C67.2963 45.9174 67.1725 45.7826 67.0874 45.6238C66.9952 45.4554 66.9283 45.2744 66.8886 45.0867C66.8462 44.8853 66.8246 44.6801 66.8242 44.4743C66.8243 44.2614 66.8459 44.0491 66.8886 43.8405C66.9273 43.6407 66.9981 43.4484 67.0981 43.2712C67.1896 43.1059 67.3183 42.9643 67.4741 42.8576C67.6333 42.7527 67.8206 42.6984 68.0112 42.7018C68.1387 42.6892 68.2675 42.703 68.3894 42.7423C68.5114 42.7816 68.624 42.8455 68.7202 42.9301C68.8164 43.0148 68.8942 43.1183 68.9487 43.2342C69.0032 43.3502 69.0333 43.4761 69.0371 43.6042V43.7009H70.7667V43.5827C70.7583 43.2437 70.6732 42.911 70.5179 42.6096C70.3625 42.3082 70.1409 42.0459 69.8697 41.8424C69.6101 41.6508 69.3193 41.5054 69.0103 41.4127C68.6871 41.3205 68.3527 41.2735 68.0166 41.2731C67.5832 41.2666 67.1533 41.3507 66.7543 41.5201C66.3918 41.6757 66.0687 41.9107 65.809 42.2077C65.5477 42.5105 65.3503 42.8632 65.2289 43.2443C65.097 43.6593 65.0317 44.0926 65.0355 44.5281C65.0306 44.9491 65.1016 45.3676 65.245 45.7634C65.3813 46.1231 65.5855 46.4532 65.8466 46.7356C66.1092 47.0127 66.4278 47.2306 66.7812 47.3748C67.1635 47.5283 67.5724 47.605 67.9844 47.6004C68.675 47.628 69.3523 47.4048 69.8912 46.972C70.4177 46.4984 70.7426 45.841 70.7989 45.135V45.0114H69.0855L69.107 45.0867Z" fill="white"/>
<path d="M76.3904 42.3579C76.1531 42.0218 75.8404 41.7459 75.4773 41.5522C75.0738 41.3455 74.6253 41.2421 74.1721 41.2514C73.7546 41.2482 73.3411 41.3324 72.9582 41.4985C72.6026 41.6563 72.2827 41.8847 72.0182 42.1699C71.7483 42.462 71.5401 42.8054 71.4059 43.1797C71.2615 43.5811 71.1888 44.0047 71.191 44.4313C71.1862 44.8628 71.2571 45.2918 71.4005 45.6989C71.5299 46.0703 71.7326 46.4119 71.9967 46.7033C72.2567 46.9884 72.5782 47.2106 72.9367 47.3532C73.3297 47.5087 73.7495 47.5854 74.1721 47.5788C74.7719 47.5965 75.3632 47.4337 75.8694 47.1115C76.3854 46.7298 76.7536 46.1813 76.9114 45.5592L76.9598 45.4142H75.3484L75.3215 45.4948C75.2535 45.6817 75.125 45.8405 74.9563 45.946C74.7388 46.0961 74.4792 46.1732 74.2151 46.1662C74.0494 46.1777 73.883 46.1556 73.7261 46.1012C73.5691 46.0467 73.4249 45.961 73.3019 45.8492C73.0842 45.5902 72.9627 45.2638 72.9582 44.9254H76.9974V44.8233C77.0309 44.3779 76.9929 43.93 76.8846 43.4967C76.7936 43.0892 76.6259 42.7027 76.3904 42.3579ZM73.5705 42.7984C73.7373 42.7161 73.9217 42.6756 74.1076 42.6802C74.2466 42.6691 74.3863 42.6883 74.517 42.7365C74.6478 42.7848 74.7665 42.8609 74.865 42.9595C75.035 43.1695 75.1495 43.4188 75.198 43.6846H72.9582C72.9702 43.6068 72.9863 43.5298 73.0065 43.4537C73.0473 43.3202 73.1109 43.1948 73.1945 43.0831C73.2985 42.9628 73.4266 42.8658 73.5705 42.7984Z" fill="white"/>
<path d="M66.5557 34.5427C66.5842 34.0973 66.5461 33.6502 66.4429 33.216C66.3426 32.8105 66.1697 32.4265 65.9326 32.0826C65.6953 31.7465 65.3826 31.4706 65.0195 31.277C64.616 31.0702 64.1675 30.9669 63.7143 30.9762C63.2968 30.9729 62.8833 31.0571 62.5004 31.2232C62.1424 31.3795 61.8205 31.6081 61.555 31.8946C61.2882 32.187 61.0803 32.528 60.9427 32.8991C60.8006 33.3009 60.7297 33.7244 60.7332 34.1506C60.7289 34.5834 60.7979 35.0138 60.9373 35.4236C61.0667 35.795 61.2695 36.1366 61.5335 36.428C61.7945 36.712 62.1157 36.934 62.4735 37.0779C62.8686 37.2329 63.29 37.3095 63.7143 37.3035C64.3123 37.3204 64.9017 37.1577 65.4062 36.8362C65.9239 36.4561 66.2924 35.907 66.4483 35.2839L66.4966 35.1389H64.8852V35.2195C64.8169 35.4078 64.6861 35.5671 64.5146 35.6707C64.2635 35.8301 63.9687 35.9065 63.6718 35.8891C63.3749 35.8718 63.091 35.7615 62.8602 35.574C62.6413 35.3139 62.5214 34.9847 62.5219 34.6447H66.5557V34.5427ZM63.1127 32.5231C63.2795 32.4408 63.4639 32.4003 63.6498 32.4049C63.7883 32.3942 63.9274 32.413 64.058 32.4603C64.1886 32.5075 64.3076 32.582 64.4072 32.6789C64.5736 32.8924 64.686 33.143 64.7348 33.4094H62.495C62.5069 33.3293 62.5249 33.2503 62.5487 33.173C62.5865 33.041 62.6484 32.9172 62.7313 32.8078C62.8356 32.6856 62.9659 32.5883 63.1127 32.5231Z" fill="white"/>
<path d="M53.3852 31.132H51.618V37.1532H53.3852V31.132Z" fill="white"/>
<path d="M60.0134 28.9244H58.2462V30.466H60.0134V28.9244Z" fill="white"/>
<path d="M76.4066 33.3127C76.2362 33.5108 76.1 33.7359 76.0037 33.9788C75.9003 34.2402 75.8492 34.5194 75.8533 34.8006C75.8457 35.169 75.9153 35.5349 76.0575 35.8748C76.1855 36.1752 76.3764 36.4447 76.6173 36.6652C76.8582 36.8857 77.1435 37.0521 77.454 37.1532C77.7833 37.2615 78.1279 37.3159 78.4745 37.3143C78.9004 37.321 79.323 37.2386 79.7153 37.0726C80.0593 36.9092 80.3748 36.6915 80.6499 36.4281L81.2354 37.1693H83.4215L81.751 35.1551C81.9481 34.8825 82.1071 34.5844 82.2237 34.2688C82.3476 33.9219 82.4287 33.5611 82.4654 33.1946V33.0657H80.9185V33.1677C80.8971 33.3273 80.8648 33.4852 80.8218 33.6404C80.7952 33.7354 80.7629 33.8286 80.7251 33.9197L79.9194 32.8991C80.2614 32.698 80.5651 32.438 80.8164 32.1311C81.1025 31.7757 81.2529 31.3302 81.2407 30.8742C81.2471 30.5711 81.1866 30.2703 81.0635 29.9933C80.9491 29.7472 80.7822 29.529 80.5747 29.3541C80.3653 29.1823 80.1245 29.0528 79.8657 28.9727C79.3263 28.7975 78.7453 28.7975 78.206 28.9727C77.9553 29.058 77.7236 29.1911 77.5238 29.3648C77.3241 29.5353 77.1599 29.7434 77.0404 29.9772C76.9196 30.2264 76.8589 30.5005 76.8632 30.7775C76.8549 31.1154 76.9325 31.4499 77.0887 31.7497C77.22 31.9926 77.3709 32.2243 77.5399 32.4426C77.3573 32.5447 77.1747 32.6574 77.0028 32.781C76.7828 32.9328 76.5825 33.1115 76.4066 33.3127ZM78.5551 35.7728C78.4276 35.7748 78.3011 35.7492 78.1845 35.6976C78.0661 35.651 77.957 35.5837 77.8622 35.4989C77.7712 35.4127 77.6966 35.3108 77.642 35.1981C77.5892 35.0854 77.5617 34.9626 77.5614 34.8382C77.5608 34.6993 77.5901 34.5619 77.6474 34.4353C77.7021 34.3102 77.7785 34.1957 77.873 34.0969C77.965 33.9889 78.0738 33.8964 78.1952 33.823C78.2925 33.7591 78.3949 33.7034 78.5014 33.6565L79.7099 35.1766C79.5658 35.3383 79.4015 35.4809 79.2211 35.6009C79.0143 35.7209 78.778 35.7804 78.539 35.7728H78.5551ZM78.496 30.7238C78.4908 30.6439 78.5036 30.5638 78.5333 30.4895C78.563 30.4151 78.609 30.3484 78.6679 30.2941C78.7779 30.1895 78.9243 30.1317 79.0761 30.1329C79.1546 30.1322 79.2323 30.1486 79.3038 30.1811C79.3752 30.2135 79.4387 30.2613 79.4897 30.3209C79.549 30.381 79.5957 30.4524 79.6271 30.5308C79.6585 30.6092 79.6738 30.6931 79.6723 30.7775C79.6845 30.9985 79.6114 31.2157 79.4682 31.3845C79.3312 31.5265 79.18 31.6543 79.017 31.7658C78.8989 31.61 78.7807 31.4543 78.6733 31.3039C78.5463 31.1373 78.4783 30.9332 78.4799 30.7238H78.496Z" fill="white"/>
<path d="M66.9639 35.0477V35.1551C66.9629 35.5146 67.0555 35.8681 67.2324 36.181C67.3904 36.4454 67.6073 36.6697 67.8662 36.8363C68.1314 37.0081 68.4266 37.1284 68.7364 37.1908C69.0576 37.2602 69.3854 37.2944 69.714 37.2929C70.0369 37.2935 70.3591 37.261 70.6754 37.1962C70.9822 37.1379 71.2743 37.0192 71.5348 36.8471C71.7929 36.6821 72.0053 36.455 72.1525 36.1864C72.3221 35.8756 72.4055 35.5251 72.3942 35.1712C72.4001 34.9177 72.3429 34.6667 72.2277 34.4408C72.1198 34.2467 71.9715 34.0782 71.7927 33.9466C71.6091 33.8115 71.4063 33.7047 71.1911 33.6297C70.9709 33.5545 70.7452 33.49 70.525 33.4363L69.8805 33.2913C69.6984 33.2527 69.519 33.2024 69.3433 33.1409C69.2118 33.1008 69.0895 33.0351 68.9835 32.9475C68.9209 32.886 68.8818 32.8045 68.873 32.7172C68.8642 32.6299 68.8861 32.5423 68.9351 32.4695C68.9805 32.4148 69.0373 32.3708 69.1016 32.3406C69.1804 32.3072 69.2637 32.2855 69.3487 32.2761C69.6666 32.222 69.9935 32.269 70.2833 32.4104C70.373 32.4671 70.4458 32.5469 70.494 32.6414C70.5422 32.7359 70.564 32.8417 70.5572 32.9475V33.055H72.2546V32.9314C72.2384 32.6002 72.1426 32.2777 71.9753 31.9914C71.8219 31.7505 71.6186 31.5453 71.3791 31.3898C71.1319 31.2351 70.8591 31.126 70.5734 31.0676C69.9719 30.9522 69.354 30.9522 68.7525 31.0676C68.4646 31.1214 68.1884 31.225 67.9361 31.3737C67.6875 31.522 67.4805 31.7308 67.3345 31.9807C67.1741 32.2808 67.0963 32.6182 67.1089 32.9583C67.1009 33.2034 67.1584 33.4463 67.2754 33.6619C67.3837 33.8497 67.5323 34.0111 67.7105 34.1346C67.8957 34.2616 68.0983 34.3611 68.3121 34.43C68.5269 34.4998 68.7525 34.5643 68.9781 34.618C69.4091 34.7033 69.8329 34.8219 70.2457 34.9725C70.5089 35.0746 70.6378 35.2142 70.6378 35.4022C70.6422 35.505 70.614 35.6065 70.5572 35.6923C70.5042 35.7695 70.4345 35.8337 70.3532 35.8803C70.26 35.9306 70.1607 35.9685 70.0577 35.993C69.8197 36.0526 69.5706 36.0526 69.3326 35.993C69.2116 35.9612 69.0971 35.9085 68.9942 35.8373C68.8967 35.7662 68.816 35.6745 68.7579 35.5687C68.6987 35.4485 68.6693 35.3159 68.6719 35.182V35.0692L66.9639 35.0477Z" fill="white"/>
<path d="M60.0134 31.132H58.2462V37.1532H60.0134V31.132Z" fill="white"/>
<path d="M19.5729 31.9968H16.6617V28.9244H14.728V37.1586H16.6617V33.7049H19.5729V37.1586H21.5066V28.9244H19.5729V31.9968Z" fill="white"/>
<path d="M53.3852 28.9244H51.618V30.466H53.3852V28.9244Z" fill="white"/>
<path d="M37.9105 37.1586V33.1677C37.9188 32.8276 37.8641 32.4889 37.7493 32.1687C37.6571 31.9111 37.5047 31.6792 37.3047 31.4923C37.1048 31.3055 36.8632 31.1691 36.5999 31.0944C36.3203 31.0154 36.031 30.9757 35.7405 30.9763C35.3594 30.971 34.9854 31.0795 34.6662 31.2878C34.4417 31.436 34.2407 31.617 34.07 31.8249C33.9308 31.5503 33.7066 31.328 33.4308 31.1911C33.1125 31.0384 32.7633 30.9612 32.4103 30.9655C32.0476 30.9606 31.69 31.0514 31.3736 31.2287C31.1515 31.3563 30.9534 31.5218 30.7881 31.7175V31.1213H29.1069V37.1479H30.8741V33.6726C30.8664 33.4528 30.9029 33.2336 30.9815 33.0281C31.0428 32.8907 31.1304 32.7666 31.2393 32.6628C31.329 32.5871 31.4332 32.5305 31.5455 32.4963C31.6291 32.4703 31.7158 32.4558 31.8033 32.4534C31.975 32.4398 32.1469 32.4772 32.2975 32.5608C32.401 32.6306 32.4815 32.7297 32.5284 32.8455C32.5765 32.9841 32.6054 33.1287 32.6144 33.2752C32.6144 33.4471 32.6144 33.6136 32.6144 33.7801V37.1479H34.3815V33.8069C34.382 33.6272 34.3946 33.4478 34.4191 33.2698C34.4395 33.1176 34.4868 32.9703 34.5588 32.8347C34.6271 32.7155 34.7228 32.6142 34.8381 32.5393C34.9783 32.4592 35.1389 32.4218 35.3 32.4319C35.4591 32.4249 35.6175 32.4562 35.762 32.5232C35.8659 32.5838 35.9499 32.6734 36.0037 32.781C36.0646 32.9092 36.101 33.0476 36.1111 33.1892C36.1111 33.3557 36.1111 33.5384 36.1111 33.7264V37.1264L37.9105 37.1586Z" fill="white"/>
<path d="M46.8268 31.132H45.1349V37.1586H46.902V34.0056C46.8682 33.5873 46.9599 33.1685 47.1652 32.8025C47.2625 32.6827 47.3881 32.5891 47.5306 32.53C47.6732 32.4709 47.8282 32.4483 47.9817 32.4641C48.1106 32.4482 48.2414 32.4672 48.3605 32.5192C48.4795 32.5712 48.5824 32.6542 48.6585 32.7595C48.8125 33.0727 48.881 33.4211 48.8572 33.7693V37.1586H50.6297V33.4793C50.6326 33.142 50.6002 32.8054 50.533 32.4748C50.4779 32.1888 50.3626 31.9178 50.1946 31.6799C50.0212 31.4457 49.7898 31.2606 49.5232 31.1428C49.181 31.0106 48.8157 30.9484 48.449 30.9601C48.1 30.9623 47.7563 31.045 47.4445 31.2018C47.1962 31.3297 46.9811 31.5136 46.8161 31.739L46.8268 31.132Z" fill="white"/>
<path d="M54.7871 35.7352C54.7768 35.9966 54.8303 36.2565 54.9429 36.4926C55.0403 36.6836 55.1891 36.8436 55.3726 36.9545C55.56 37.0617 55.7659 37.1328 55.9796 37.164C56.2091 37.1969 56.4406 37.213 56.6725 37.2123C56.8282 37.2123 56.984 37.2123 57.1451 37.2123C57.2963 37.207 57.4469 37.1927 57.5963 37.1694H57.6876V35.6922L57.5533 35.7191C57.4827 35.7355 57.4109 35.7462 57.3385 35.7513C57.258 35.7568 57.1773 35.7568 57.0968 35.7513C56.8014 35.7513 56.694 35.6922 56.6564 35.6546C56.5735 35.5158 56.5395 35.3532 56.5597 35.1927V32.4373H57.6876V31.1428H56.5597V29.4078H54.7871V31.1428H53.8525V32.4373H54.7871V35.7352Z" fill="white"/>
<path d="M41.9228 33.4039C41.7342 33.4515 41.542 33.4838 41.3481 33.5006C41.1118 33.5006 40.8754 33.5543 40.6552 33.5919C40.4179 33.6305 40.183 33.6825 39.9516 33.7477C39.7203 33.8082 39.5019 33.9101 39.307 34.0485C39.1117 34.1889 38.9518 34.3728 38.8397 34.5856C38.7083 34.8563 38.6456 35.1551 38.6571 35.4558C38.6517 35.7358 38.7047 36.0139 38.8129 36.2722C38.9135 36.4967 39.0642 36.6951 39.2533 36.8523C39.4456 37.0068 39.6664 37.1218 39.9032 37.1907C40.1584 37.2632 40.4222 37.3011 40.6874 37.3035C41.0517 37.3055 41.4141 37.2511 41.7617 37.1424C42.0372 37.0566 42.2916 36.9139 42.5083 36.7234C42.5113 36.7466 42.5113 36.77 42.5083 36.7932C42.5277 36.8895 42.5528 36.9846 42.5835 37.0779L42.6104 37.1585H44.4474L44.3453 36.9866C44.2661 36.8332 44.2203 36.6648 44.211 36.4924C44.1799 36.2484 44.1655 36.0026 44.168 35.7566V32.7379C44.1811 32.4147 44.0928 32.0954 43.9156 31.8248C43.7564 31.5941 43.5398 31.409 43.2872 31.2877C43.0269 31.1594 42.7475 31.0741 42.46 31.0352C41.8538 30.94 41.2355 30.9527 40.6337 31.0728C40.3284 31.1329 40.0357 31.2456 39.769 31.4058C39.5069 31.5607 39.2859 31.7762 39.1244 32.0343C38.9423 32.3307 38.8404 32.6695 38.829 33.0172V33.1408H40.5961V33.0387C40.5964 32.9265 40.6199 32.8156 40.6652 32.713C40.7105 32.6104 40.7766 32.5183 40.8593 32.4425C41.0482 32.3127 41.2752 32.2503 41.5039 32.2652C41.6279 32.2658 41.7517 32.2748 41.8745 32.2921C41.9698 32.3053 42.0612 32.3383 42.1431 32.3888C42.219 32.4355 42.2804 32.5024 42.3203 32.5821C42.374 32.6941 42.3981 32.8181 42.3901 32.942C42.3973 32.9942 42.3917 33.0473 42.3739 33.0968C42.3562 33.1464 42.3267 33.1909 42.2881 33.2267C42.1798 33.3103 42.0555 33.3706 41.9228 33.4039ZM41.2246 34.6555L41.5898 34.6018C41.7107 34.5882 41.8308 34.5684 41.9497 34.5427C42.0608 34.5217 42.1703 34.493 42.2774 34.4567L42.374 34.4191V34.8005C42.374 34.8864 42.374 34.9992 42.3472 35.1496C42.3303 35.2899 42.2846 35.4253 42.2129 35.5471C42.1344 35.686 42.0216 35.8025 41.8852 35.8855C41.6851 35.9895 41.4606 36.0378 41.2353 36.0251C41.1237 36.0227 41.0124 36.0119 40.9023 35.9929C40.809 35.9754 40.7198 35.9408 40.6391 35.8909C40.5676 35.8429 40.5086 35.7784 40.4672 35.7029C40.4256 35.6063 40.4054 35.5018 40.4081 35.3967C40.4049 35.2881 40.425 35.18 40.4672 35.0798C40.5094 35.0003 40.568 34.9308 40.6391 34.8757C40.7179 34.8183 40.8048 34.7731 40.8969 34.7414C41.0044 34.7066 41.1138 34.6779 41.2246 34.6555Z" fill="white"/>
<path d="M25.7875 37.0672C26.0331 36.9496 26.2482 36.7768 26.416 36.5623V37.1585H28.1079V31.132H26.3408V34.2849C26.3734 34.7048 26.2819 35.1251 26.0776 35.4934C25.9793 35.6121 25.8536 35.7049 25.7113 35.7639C25.569 35.8229 25.4145 35.8462 25.2611 35.8318C25.1317 35.8477 25.0003 35.8281 24.8811 35.7752C24.7619 35.7222 24.6593 35.6378 24.5844 35.531C24.4296 35.2181 24.361 34.8695 24.3856 34.5212V31.132H22.6131V34.8113C22.6102 35.1485 22.6426 35.4852 22.7098 35.8157C22.7638 36.1037 22.8792 36.3766 23.0482 36.616C23.2216 36.8438 23.4537 37.0202 23.7196 37.1263C24.0622 37.2567 24.4275 37.317 24.7938 37.3036C25.1384 37.299 25.4778 37.2183 25.7875 37.0672Z" fill="white"/>
<path d="M80.2524 26.8833H82.0464V22.1512H83.1206V20.8567H82.0464V20.6526C82.029 20.4994 82.0671 20.345 82.1538 20.2175C82.2035 20.1743 82.2616 20.1419 82.3245 20.1225C82.3874 20.1031 82.4537 20.097 82.519 20.1047C82.6986 20.1048 82.8779 20.1156 83.0562 20.1369H83.1851V18.7135H83.0777L82.6802 18.6813H82.2559C81.9832 18.6615 81.7095 18.699 81.4523 18.7916C81.1951 18.8841 80.9601 19.0295 80.7626 19.2184C80.4249 19.5822 80.2452 20.0652 80.2631 20.5612V20.8943H79.3392V22.1887H80.2631L80.2524 26.8833Z" fill="white"/>
<path d="M35.1712 26.3677C35.4999 26.6166 35.8739 26.799 36.2723 26.9049C37.1542 27.1328 38.0807 27.1235 38.9579 26.878C39.3388 26.7691 39.6947 26.5867 40.0053 26.3409C40.2958 26.1128 40.5293 25.8205 40.6875 25.4868C40.8314 25.1471 40.9045 24.7815 40.9023 24.4126C40.9168 24.0038 40.8143 23.5995 40.6069 23.247C40.4293 22.9626 40.1953 22.7177 39.9194 22.5272C39.6738 22.3572 39.404 22.225 39.1191 22.1352C38.872 22.06 38.6625 22.0009 38.5121 21.9686C38.0287 21.8451 37.6366 21.743 37.3358 21.6571C37.0999 21.5972 36.8698 21.5163 36.6483 21.4154C36.533 21.3704 36.4326 21.2941 36.3582 21.1952C36.3046 21.0965 36.2786 20.9851 36.283 20.8729C36.2771 20.7448 36.3088 20.6178 36.3744 20.5077C36.4368 20.4075 36.5213 20.323 36.6214 20.2606C36.7131 20.1929 36.8171 20.1436 36.9276 20.1155C37.2391 20.048 37.5614 20.048 37.8729 20.1155C38.0275 20.145 38.1751 20.2033 38.308 20.2874C38.4304 20.3724 38.5315 20.4845 38.6034 20.6151C38.6812 20.7839 38.725 20.9664 38.7323 21.1522V21.2596H40.6016V21.1468C40.6129 20.7194 40.5207 20.2956 40.333 19.9114C40.1612 19.5787 39.9149 19.2901 39.6132 19.0681C39.2993 18.8489 38.948 18.6888 38.5766 18.5955C37.8341 18.3967 37.0524 18.3967 36.3099 18.5955C35.9607 18.6897 35.6313 18.8462 35.3377 19.0574C35.0518 19.2706 34.8139 19.5414 34.6394 19.8524C34.4522 20.1982 34.3596 20.5872 34.3709 20.9803C34.3611 21.3217 34.433 21.6605 34.5803 21.9686C34.7098 22.231 34.8928 22.4634 35.1175 22.6508C35.3511 22.8322 35.6099 22.9787 35.8856 23.0859C36.1647 23.1951 36.4499 23.2883 36.7396 23.3652L37.5829 23.5908C37.8303 23.6484 38.0728 23.7257 38.308 23.8217C38.49 23.8921 38.6561 23.9981 38.7968 24.1333C38.8537 24.1922 38.8978 24.2621 38.9265 24.3388C38.9551 24.4155 38.9677 24.4973 38.9633 24.5791C38.97 24.7328 38.9246 24.8842 38.8344 25.0088C38.7434 25.1241 38.6278 25.2177 38.496 25.2827C38.3523 25.3534 38.1981 25.4005 38.0395 25.4224C37.6824 25.4844 37.3162 25.4697 36.9652 25.3794C36.7732 25.3342 36.5911 25.254 36.4281 25.1431C36.2861 25.0319 36.1705 24.8907 36.0897 24.7295C35.9985 24.531 35.9543 24.314 35.9608 24.0957V23.9829H34.0808V24.0957C34.0638 24.5535 34.1578 25.0087 34.3548 25.4224C34.5442 25.8004 34.8248 26.1253 35.1712 26.3677Z" fill="white"/>
<path d="M61.4689 26.1689C61.7379 26.4458 62.0617 26.6635 62.4197 26.808C63.2208 27.1018 64.1001 27.1018 64.9012 26.808C65.2615 26.6649 65.5873 26.447 65.8573 26.1689C66.1292 25.8825 66.3379 25.5421 66.4696 25.1698C66.6187 24.7548 66.6915 24.3162 66.6845 23.8753C66.6911 23.4327 66.6183 22.9924 66.4696 22.5755C66.3423 22.2039 66.1362 21.8642 65.8655 21.5797C65.5948 21.2951 65.2659 21.0723 64.9012 20.9265C64.1014 20.6256 63.2195 20.6256 62.4197 20.9265C62.0625 21.0749 61.7391 21.2942 61.4689 21.571C61.1999 21.8617 60.9917 22.2032 60.8566 22.5755C60.7124 22.9934 60.6415 23.4332 60.6471 23.8753C60.6406 24.3158 60.7115 24.7539 60.8566 25.1698C60.9905 25.5411 61.1989 25.8811 61.4689 26.1689ZM63.0803 22.2747C63.2592 22.1704 63.4644 22.1201 63.6712 22.1297C63.8795 22.122 64.0859 22.1722 64.2674 22.2747C64.4239 22.3704 64.5563 22.5009 64.6541 22.656C64.7528 22.8225 64.8236 23.0039 64.8636 23.1932C64.9024 23.4113 64.9222 23.6323 64.9227 23.8538C64.9224 24.0736 64.9026 24.2929 64.8636 24.5091C64.8236 24.6984 64.7528 24.8798 64.6541 25.0463C64.56 25.2044 64.4268 25.3357 64.2674 25.4276C64.0844 25.5258 63.8787 25.5739 63.6712 25.5673C63.4635 25.5747 63.2577 25.5265 63.075 25.4276C62.9194 25.3343 62.7901 25.2031 62.699 25.0463C62.5961 24.8819 62.525 24.6997 62.4895 24.5091C62.446 24.2934 62.4244 24.0739 62.425 23.8538C62.4247 23.632 62.4463 23.4107 62.4895 23.1932C62.525 23.0026 62.5961 22.8204 62.699 22.656C62.7871 22.4959 62.9147 22.361 63.0696 22.2639L63.0803 22.2747Z" fill="white"/>
<path d="M54.8355 26.1689C55.1028 26.4479 55.427 26.6659 55.7862 26.8081C56.1803 26.9592 56.5996 27.0339 57.0216 27.0284C57.4453 27.0329 57.8661 26.9582 58.2624 26.8081C58.625 26.6664 58.9528 26.4484 59.2239 26.1689C59.4941 25.8823 59.7009 25.5419 59.8308 25.1699C59.9721 24.7534 60.0376 24.315 60.0242 23.8754C60.0303 23.4328 59.9576 22.9926 59.8093 22.5756C59.6846 22.2026 59.4794 21.8617 59.2084 21.5767C58.9374 21.2918 58.6071 21.0699 58.2409 20.9266C57.4429 20.626 56.5628 20.626 55.7647 20.9266C55.4062 21.0724 55.0822 21.292 54.814 21.5711C54.5413 21.859 54.3326 22.2013 54.2017 22.5756C54.0535 22.9926 53.9807 23.4328 53.9869 23.8754C53.9803 24.3163 54.0531 24.7548 54.2017 25.1699C54.3377 25.5451 54.554 25.8861 54.8355 26.1689ZM56.4469 22.2748C56.6264 22.1722 56.8311 22.1219 57.0377 22.1297C57.2461 22.1221 57.4524 22.1723 57.6339 22.2748C57.7916 22.369 57.9242 22.4998 58.0207 22.6561C58.1193 22.8225 58.1901 23.004 58.2302 23.1933C58.2734 23.4108 58.295 23.6321 58.2946 23.8539C58.2953 24.074 58.2737 24.2935 58.2302 24.5092C58.1901 24.6985 58.1193 24.8799 58.0207 25.0463C57.9266 25.2045 57.7934 25.3358 57.6339 25.4277C57.4509 25.5259 57.2453 25.574 57.0377 25.5674C56.8318 25.5749 56.6277 25.5266 56.4469 25.4277C56.2894 25.3351 56.1582 25.2038 56.0655 25.0463C55.9669 24.8799 55.8961 24.6985 55.8561 24.5092C55.8152 24.2931 55.7936 24.0738 55.7916 23.8539C55.7939 23.6322 55.8155 23.4112 55.8561 23.1933C55.8952 23.0037 55.9661 22.8222 56.0655 22.6561C56.1555 22.4991 56.2805 22.3649 56.4308 22.264L56.4469 22.2748Z" fill="white"/>
<path d="M49.5125 23.7304C49.4774 23.3127 49.5671 22.8939 49.7703 22.5272C49.8679 22.4061 49.9941 22.3112 50.1376 22.2511C50.2812 22.1911 50.4374 22.1679 50.5921 22.1835C50.7207 22.1692 50.8508 22.1895 50.9688 22.2424C51.0869 22.2953 51.1886 22.3788 51.2636 22.4843C51.4199 22.7968 51.4903 23.1453 51.4677 23.4941V26.8834H53.2348V23.204C53.2367 22.8671 53.2062 22.5307 53.1435 22.1996C53.0888 21.9126 52.9714 21.6411 52.7997 21.4046C52.6287 21.1681 52.3966 20.9824 52.1283 20.8675C51.7865 20.7339 51.4209 20.6717 51.0541 20.6849C50.726 20.69 50.4039 20.7728 50.1141 20.9266C49.869 21.0548 49.6574 21.2388 49.4964 21.4637V18.6545H47.7239V26.8834H49.4964L49.5125 23.7304Z" fill="white"/>
<path d="M42.1431 26.1636C42.4065 26.4397 42.7249 26.6574 43.0777 26.8028C43.46 26.9563 43.8688 27.0329 44.2808 27.0284C44.9721 27.0539 45.6492 26.8288 46.1876 26.3946C46.7143 25.9233 47.0394 25.2674 47.0954 24.5629V24.434H45.3819V24.5307C45.3549 24.8271 45.2345 25.1073 45.0382 25.331C44.8586 25.4848 44.6364 25.5801 44.4012 25.6041C44.166 25.6281 43.9291 25.5797 43.7222 25.4653C43.573 25.3626 43.4498 25.2265 43.3623 25.0678C43.2697 24.8997 43.2027 24.7187 43.1636 24.5307C43.1214 24.3275 43.0999 24.1206 43.0991 23.913C43.0999 23.7001 43.1214 23.4879 43.1636 23.2792C43.2041 23.0799 43.2748 22.8879 43.3731 22.7098C43.4663 22.5473 43.5948 22.4079 43.7491 22.3016C43.9073 22.1945 44.0952 22.14 44.2862 22.1459C44.4137 22.1333 44.5424 22.1471 44.6644 22.1863C44.7864 22.2256 44.899 22.2896 44.9952 22.3742C45.0914 22.4588 45.1692 22.5623 45.2237 22.6783C45.2782 22.7942 45.3083 22.9202 45.3121 23.0482V23.1449H47.0417V23.0214C47.0254 22.6664 46.9299 22.3196 46.7624 22.0062C46.6101 21.7234 46.3973 21.4777 46.1393 21.2865C45.8822 21.0907 45.5907 20.945 45.2799 20.8568C44.9568 20.7638 44.6223 20.7168 44.2862 20.7171C43.8526 20.708 43.4221 20.7923 43.0239 20.9642C42.6636 21.1184 42.3423 21.3515 42.084 21.6463C41.821 21.9489 41.6218 22.3015 41.4985 22.683C41.3667 23.0999 41.3014 23.5349 41.3051 23.9721C41.3007 24.3931 41.3716 24.8115 41.5146 25.2075C41.6627 25.5626 41.8759 25.8868 42.1431 26.1636Z" fill="white"/>
<path d="M69.2735 18.649H67.501V26.8832H69.2735V18.649Z" fill="white"/>
<path d="M73.9304 26.1689C74.1994 26.4459 74.5232 26.6636 74.8811 26.8081C75.2754 26.9586 75.6945 27.0333 76.1165 27.0283C76.542 27.0333 76.9647 26.9586 77.3627 26.8081C77.7238 26.6666 78.05 26.4485 78.3188 26.1689C78.5888 25.8811 78.7972 25.5411 78.9311 25.1699C79.078 24.7543 79.1508 24.3161 79.1459 23.8754C79.1498 23.4329 79.0772 22.9932 78.9311 22.5755C78.798 22.2023 78.5896 21.8604 78.3188 21.5711C78.0491 21.2912 77.7233 21.0716 77.3627 20.9265C76.9658 20.7716 76.5426 20.6949 76.1165 20.7009C75.6939 20.6944 75.2742 20.7711 74.8811 20.9265C74.5178 21.0736 74.1902 21.2969 73.9206 21.5813C73.651 21.8658 73.4455 22.2048 73.3181 22.5755C73.172 22.9932 73.0994 23.4329 73.1033 23.8754C73.0984 24.3161 73.1712 24.7543 73.3181 25.1699C73.4499 25.5422 73.6585 25.8825 73.9304 26.1689ZM75.5418 22.2747C75.7213 22.1721 75.926 22.1219 76.1326 22.1297C76.3427 22.1222 76.5507 22.1723 76.7342 22.2747C76.8903 22.3691 77.0212 22.5 77.1156 22.6561C77.2163 22.8215 77.2872 23.0033 77.3251 23.1932C77.3683 23.4108 77.3899 23.6321 77.3895 23.8539C77.3902 24.0739 77.3686 24.2935 77.3251 24.5092C77.2872 24.6991 77.2163 24.8809 77.1156 25.0463C77.0244 25.2049 76.8928 25.3364 76.7342 25.4277C76.5493 25.5258 76.3419 25.5739 76.1326 25.5673C75.9268 25.574 75.7229 25.5259 75.5418 25.4277C75.3863 25.3343 75.2569 25.2031 75.1658 25.0463C75.063 24.882 74.9919 24.6998 74.9563 24.5092C74.9128 24.2935 74.8912 24.0739 74.8919 23.8539C74.8915 23.6321 74.9131 23.4108 74.9563 23.1932C74.9924 23.0036 75.0615 22.8218 75.1604 22.6561C75.2504 22.499 75.3754 22.3649 75.5257 22.264L75.5418 22.2747Z" fill="white"/>
</svg>
