<svg width="466" height="96" viewBox="0 0 466 96" fill="none" xmlns="http://www.w3.org/2000/svg">
<path d="M18.4521 59.7456C21.6521 59.7456 24.5801 60.4976 27.2361 62.0016C29.8921 63.4736 31.9881 65.5376 33.5241 68.1936C35.0921 70.8496 35.8761 73.8416 35.8761 77.1696C35.8761 80.4976 35.0921 83.4896 33.5241 86.1456C31.9881 88.8016 29.8761 90.8816 27.1881 92.3856C24.5321 93.8896 21.6201 94.6416 18.4521 94.6416C15.2521 94.6416 12.3081 93.8896 9.62013 92.3856C6.96413 90.8816 4.85213 88.8016 3.28413 86.1456C1.71613 83.4896 0.932129 80.4976 0.932129 77.1696C0.932129 73.8416 1.71613 70.8496 3.28413 68.1936C4.85213 65.5376 6.96413 63.4736 9.62013 62.0016C12.3081 60.4976 15.2521 59.7456 18.4521 59.7456ZM18.4521 69.5856C16.3081 69.5856 14.6601 70.2736 13.5081 71.6496C12.3561 72.9936 11.7801 74.8336 11.7801 77.1696C11.7801 79.4736 12.3561 81.3136 13.5081 82.6896C14.6601 84.0336 16.3081 84.7056 18.4521 84.7056C20.5641 84.7056 22.1961 84.0336 23.3481 82.6896C24.5001 81.3136 25.0761 79.4736 25.0761 77.1696C25.0761 74.8336 24.5001 72.9936 23.3481 71.6496C22.1961 70.2736 20.5641 69.5856 18.4521 69.5856Z" fill="white"/>
<path d="M50.1363 60.3216V79.4736C50.1363 81.0416 50.4722 82.2896 51.1442 83.2176C51.8482 84.1136 52.9683 84.5616 54.5042 84.5616C56.0402 84.5616 57.1763 84.1136 57.9123 83.2176C58.6483 82.2896 59.0163 81.0416 59.0163 79.4736V60.3216H69.6243V79.4736C69.6243 82.7056 68.9523 85.4736 67.6083 87.7776C66.2643 90.0496 64.4243 91.7616 62.0883 92.9136C59.7523 94.0656 57.1443 94.6416 54.2643 94.6416C51.3843 94.6416 48.8243 94.0656 46.5843 92.9136C44.3763 91.7616 42.6483 90.0496 41.4003 87.7776C40.1523 85.5056 39.5283 82.7376 39.5283 79.4736V60.3216H50.1363Z" fill="white"/>
<path d="M91.3083 94.3056L84.8763 82.1136V94.3056H74.2203V60.3216H90.0602C92.8122 60.3216 95.1642 60.8176 97.1162 61.8096C99.0683 62.7696 100.524 64.0976 101.484 65.7936C102.476 67.4576 102.972 69.3456 102.972 71.4576C102.972 73.7296 102.332 75.7456 101.052 77.5056C99.8043 79.2656 97.9963 80.5296 95.6283 81.2976L103.02 94.3056H91.3083ZM84.8763 75.0096H89.1003C90.1243 75.0096 90.8923 74.7856 91.4043 74.3376C91.9163 73.8576 92.1723 73.1216 92.1723 72.1296C92.1723 71.2336 91.9003 70.5296 91.3563 70.0176C90.8443 69.5056 90.0923 69.2496 89.1003 69.2496H84.8763V75.0096Z" fill="white"/>
<path d="M130.373 59.9856C133.317 59.9856 135.941 60.5456 138.245 61.6656C140.581 62.7536 142.469 64.3056 143.909 66.3216C145.381 68.3376 146.357 70.6896 146.837 73.3776H135.605C135.093 72.2576 134.357 71.3936 133.397 70.7856C132.469 70.1456 131.397 69.8256 130.181 69.8256C128.389 69.8256 126.965 70.4976 125.909 71.8416C124.885 73.1856 124.373 74.9936 124.373 77.2656C124.373 79.5376 124.885 81.3456 125.909 82.6896C126.965 84.0336 128.389 84.7056 130.181 84.7056C131.397 84.7056 132.469 84.4016 133.397 83.7936C134.357 83.1536 135.093 82.2736 135.605 81.1536H146.837C146.357 83.8416 145.381 86.1936 143.909 88.2096C142.469 90.2256 140.581 91.7936 138.245 92.9136C135.941 94.0016 133.317 94.5456 130.373 94.5456C126.949 94.5456 123.973 93.8256 121.445 92.3856C118.917 90.9136 116.965 88.8656 115.589 86.2416C114.245 83.6176 113.573 80.6256 113.573 77.2656C113.573 73.9056 114.245 70.9136 115.589 68.2896C116.965 65.6656 118.917 63.6336 121.445 62.1936C123.973 60.7216 126.949 59.9856 130.373 59.9856Z" fill="white"/>
<path d="M167.233 59.7456C170.433 59.7456 173.361 60.4976 176.017 62.0016C178.673 63.4736 180.769 65.5376 182.305 68.1936C183.873 70.8496 184.657 73.8416 184.657 77.1696C184.657 80.4976 183.873 83.4896 182.305 86.1456C180.769 88.8016 178.657 90.8816 175.969 92.3856C173.313 93.8896 170.401 94.6416 167.233 94.6416C164.033 94.6416 161.089 93.8896 158.401 92.3856C155.745 90.8816 153.633 88.8016 152.065 86.1456C150.497 83.4896 149.713 80.4976 149.713 77.1696C149.713 73.8416 150.497 70.8496 152.065 68.1936C153.633 65.5376 155.745 63.4736 158.401 62.0016C161.089 60.4976 164.033 59.7456 167.233 59.7456ZM167.233 69.5856C165.089 69.5856 163.441 70.2736 162.289 71.6496C161.137 72.9936 160.561 74.8336 160.561 77.1696C160.561 79.4736 161.137 81.3136 162.289 82.6896C163.441 84.0336 165.089 84.7056 167.233 84.7056C169.345 84.7056 170.977 84.0336 172.129 82.6896C173.281 81.3136 173.857 79.4736 173.857 77.1696C173.857 74.8336 173.281 72.9936 172.129 71.6496C170.977 70.2736 169.345 69.5856 167.233 69.5856Z" fill="white"/>
<path d="M229.35 60.3216V94.3056H218.742V77.3616L213.51 94.3056H204.389L199.158 77.3616V94.3056H188.501V60.3216H201.557L209.046 80.7216L216.342 60.3216H229.35Z" fill="white"/>
<path d="M275.006 60.3216V94.3056H264.398V77.3616L259.166 94.3056H250.046L244.814 77.3616V94.3056H234.158V60.3216H247.214L254.702 80.7216L261.998 60.3216H275.006Z" fill="white"/>
<path d="M290.23 60.3216V79.4736C290.23 81.0416 290.566 82.2896 291.238 83.2176C291.942 84.1136 293.062 84.5616 294.598 84.5616C296.134 84.5616 297.27 84.1136 298.006 83.2176C298.742 82.2896 299.11 81.0416 299.11 79.4736V60.3216H309.718V79.4736C309.718 82.7056 309.046 85.4736 307.702 87.7776C306.358 90.0496 304.518 91.7616 302.182 92.9136C299.846 94.0656 297.238 94.6416 294.358 94.6416C291.478 94.6416 288.918 94.0656 286.678 92.9136C284.47 91.7616 282.742 90.0496 281.494 87.7776C280.246 85.5056 279.622 82.7376 279.622 79.4736V60.3216H290.23Z" fill="white"/>
<path d="M346.906 94.3056H336.25L324.97 77.2176V94.3056H314.314V60.3216H324.97L336.25 77.6976V60.3216H346.906V94.3056Z" fill="white"/>
<path d="M362.376 60.3216V94.3056H351.72V60.3216H362.376Z" fill="white"/>
<path d="M393.877 60.3216V68.7696H384.853V94.3056H374.197V68.7696H365.269V60.3216H393.877Z" fill="white"/>
<path d="M407.423 60.3216V94.3056H396.767V60.3216H407.423Z" fill="white"/>
<path d="M465.164 84.2736C465.164 86.2256 464.652 87.9856 463.628 89.5536C462.636 91.1216 461.18 92.3696 459.26 93.2976C457.34 94.1936 455.052 94.6416 452.396 94.6416C448.332 94.6416 444.972 93.6976 442.316 91.8096C439.692 89.8896 438.268 87.0896 438.044 83.4096H449.372C449.532 85.3616 450.396 86.3376 451.964 86.3376C452.508 86.3376 452.94 86.1936 453.26 85.9056C453.612 85.6176 453.788 85.2016 453.788 84.6576C453.788 83.8576 453.372 83.2336 452.54 82.7856C451.74 82.3056 450.428 81.7616 448.604 81.1536C446.46 80.4496 444.668 79.7296 443.228 78.9936C441.82 78.2576 440.588 77.1696 439.532 75.7296C438.476 74.2896 437.948 72.4176 437.948 70.1136C437.948 67.9056 438.508 66.0336 439.628 64.4976C440.78 62.9296 442.332 61.7456 444.284 60.9456C446.268 60.1456 448.492 59.7456 450.956 59.7456C455.02 59.7456 458.252 60.6896 460.652 62.5776C463.052 64.4656 464.364 67.1856 464.588 70.7376H453.116C452.956 68.9456 452.22 68.0496 450.908 68.0496C450.46 68.0496 450.092 68.1936 449.804 68.4816C449.516 68.7376 449.372 69.1376 449.372 69.6816C449.372 70.4176 449.772 71.0256 450.572 71.5056C451.404 71.9536 452.684 72.4816 454.412 73.0896C456.588 73.8576 458.38 74.6256 459.788 75.3936C461.228 76.1296 462.476 77.2336 463.532 78.7056C464.62 80.1456 465.164 82.0016 465.164 84.2736Z" fill="white"/>
<path d="M29.9848 47.5333L21.0765 30.6473V47.5333H6.31787V0.465363H28.2563C32.0678 0.465363 35.3254 1.15232 38.0289 2.52624C40.7324 3.85585 42.749 5.69513 44.0786 8.04409C45.4525 10.3487 46.1395 12.9636 46.1395 15.8887C46.1395 19.0355 45.2531 21.8276 43.4803 24.2652C41.7518 26.7028 39.2477 28.4535 35.968 29.5172L46.2059 47.5333H29.9848ZM21.0765 20.8083H26.9267C28.3449 20.8083 29.4086 20.498 30.1177 19.8776C30.8269 19.2128 31.1814 18.1934 31.1814 16.8195C31.1814 15.5785 30.8047 14.6035 30.0513 13.8943C29.3422 13.1852 28.3006 12.8307 26.9267 12.8307H21.0765V20.8083Z" fill="white"/>
<path d="M102.554 0.465363V47.5333H87.7949V0.465363H102.554Z" fill="white"/>
<path d="M165.794 0.465363V47.5333H151.102V24.0658L143.855 47.5333H131.224L123.978 24.0658V47.5333H109.219V0.465363H127.302L137.673 28.7194L147.778 0.465363H165.794Z" fill="white"/>
<path d="M202.635 40.4199H186.946L184.619 47.5333H169.129L186.348 0.465363H203.366L220.518 47.5333H204.962L202.635 40.4199ZM199.045 29.3177L194.791 16.2211L190.536 29.3177H199.045Z" fill="white"/>
<path d="M246.342 0C252.502 0 257.51 1.48472 261.366 4.45417C265.266 7.42361 267.571 11.4567 268.28 16.5535H252.724C252.148 15.6228 251.328 14.9137 250.264 14.4262C249.2 13.8943 247.915 13.6284 246.408 13.6284C243.572 13.6284 241.378 14.5591 239.827 16.4206C238.275 18.2377 237.5 20.7418 237.5 23.9328C237.5 27.6114 238.364 30.3592 240.093 32.1764C241.821 33.9935 244.48 34.9021 248.07 34.9021C251.483 34.9021 254.231 33.5281 256.314 30.7803H244.547V20.3429H268.546V35.1015C266.507 38.6028 263.693 41.6165 260.103 44.1428C256.513 46.6247 251.97 47.8657 246.475 47.8657C241.599 47.8657 237.345 46.8685 233.71 44.8741C230.121 42.8354 227.351 39.9989 225.4 36.3646C223.495 32.7304 222.542 28.5864 222.542 23.9328C222.542 19.2792 223.495 15.1353 225.4 11.5011C227.351 7.86681 230.121 5.05249 233.71 3.05809C237.3 1.01936 241.511 0 246.342 0Z" fill="white"/>
<path d="M288.62 0.465363V47.5333H273.861V0.465363H288.62Z" fill="white"/>
<path d="M340.426 47.5333H325.667L310.044 23.8664V47.5333H295.286V0.465363H310.044L325.667 24.5312V0.465363H340.426V47.5333Z" fill="white"/>
<path d="M361.852 0.465363V47.5333H347.093V0.465363H361.852Z" fill="white"/>
<path d="M413.658 47.5333H398.899L383.276 23.8664V47.5333H368.518V0.465363H383.276L398.899 24.5312V0.465363H413.658V47.5333Z" fill="white"/>
<path d="M442.796 0C448.956 0 453.964 1.48472 457.82 4.45417C461.72 7.42361 464.025 11.4567 464.734 16.5535H449.178C448.602 15.6228 447.782 14.9137 446.718 14.4262C445.654 13.8943 444.369 13.6284 442.862 13.6284C440.026 13.6284 437.832 14.5591 436.281 16.4206C434.729 18.2377 433.954 20.7418 433.954 23.9328C433.954 27.6114 434.818 30.3592 436.547 32.1764C438.275 33.9935 440.934 34.9021 444.524 34.9021C447.937 34.9021 450.685 33.5281 452.768 30.7803H441.001V20.3429H465V35.1015C462.961 38.6028 460.147 41.6165 456.557 44.1428C452.967 46.6247 448.424 47.8657 442.929 47.8657C438.053 47.8657 433.799 46.8685 430.164 44.8741C426.574 42.8354 423.804 39.9989 421.854 36.3646C419.949 32.7304 418.996 28.5864 418.996 23.9328C418.996 19.2792 419.949 15.1353 421.854 11.5011C423.804 7.86681 426.574 5.05249 430.164 3.05809C433.754 1.01936 437.965 0 442.796 0Z" fill="white"/>
<circle cx="18" cy="77.3057" r="18" fill="#ECBA41"/>
<circle cx="167" cy="77.3057" r="18" fill="#ECBA41"/>
<path fill-rule="evenodd" clip-rule="evenodd" d="M49.6797 1.30566H80.6658V13.4307H49.6797V1.30566ZM49.6798 34.9862H80.6659V47.1112H49.6798V34.9862ZM79.3187 17.4723H49.6798V29.5973H79.3187V17.4723Z" fill="#E4582D"/>
<rect x="412" y="60.3057" width="23" height="9" fill="#E4582D"/>
<rect x="412" y="85.3057" width="23" height="9" fill="#E4582D"/>
<rect x="412" y="72.3057" width="22" height="9" fill="#E4582D"/>
</svg>
